<?xml version="1.0" encoding="UTF-8"?>
<svg xmlns="http://www.w3.org/2000/svg" xmlns:xlink="http://www.w3.org/1999/xlink" width="112.5pt" height="112.5pt" viewBox="0 0 112.5 112.5" version="1.1">
<g id="surface34">
<path style=" stroke:none;fill-rule:nonzero;fill:rgb(100%,100%,100%);fill-opacity:1;" d="M 112.480469 59.058594 C 112.480469 49.601562 106.605469 41.429688 97.882812 38.214844 C 98.25 36.195312 98.433594 34.265625 98.433594 32.15625 C 98.433594 14.617188 84.199219 0.386719 66.664062 0.386719 C 56.46875 0.386719 46.921875 5.25 40.953125 13.609375 C 38.015625 11.3125 34.433594 10.117188 30.667969 10.117188 C 21.394531 10.117188 13.773438 17.648438 13.773438 27.011719 C 13.773438 29.035156 14.140625 31.054688 14.785156 32.890625 C 5.96875 35.921875 0 44.367188 0 53.734375 C 0 63.191406 5.875 71.457031 14.691406 74.667969 C 14.324219 76.597656 14.140625 78.617188 14.140625 80.730469 C 14.140625 98.175781 28.371094 112.40625 45.820312 112.40625 C 56.101562 112.40625 65.5625 107.449219 71.53125 99.1875 C 74.46875 101.480469 78.140625 102.765625 81.90625 102.765625 C 91.179688 102.765625 98.800781 95.238281 98.800781 85.871094 C 98.800781 83.851562 98.433594 81.832031 97.789062 79.996094 C 106.421875 76.871094 112.480469 68.425781 112.480469 59.058594 Z M 112.480469 59.058594 "/>
<path style=" stroke:none;fill-rule:nonzero;fill:rgb(95.686275%,74.117647%,9.803922%);fill-opacity:1;" d="M 43.984375 48.5 L 69.050781 59.976562 L 94.394531 37.757812 C 94.761719 35.921875 94.945312 34.082031 94.945312 32.15625 C 94.945312 16.546875 82.273438 3.875 66.664062 3.875 C 57.296875 3.875 48.574219 8.464844 43.339844 16.179688 L 39.117188 38.03125 Z M 43.984375 48.5 "/>
<path style=" stroke:none;fill-rule:nonzero;fill:rgb(23.529412%,74.509804%,69.411765%);fill-opacity:1;" d="M 17.996094 75.035156 C 17.628906 76.871094 17.445312 78.800781 17.445312 80.730469 C 17.445312 96.339844 30.210938 109.101562 45.820312 109.101562 C 55.277344 109.101562 64 104.417969 69.324219 96.707031 L 73.457031 74.851562 L 67.855469 64.203125 L 42.699219 52.722656 Z M 17.996094 75.035156 "/>
<path style=" stroke:none;fill-rule:nonzero;fill:rgb(91.372549%,27.843137%,54.901961%);fill-opacity:1;" d="M 17.8125 31.605469 L 34.984375 35.644531 L 38.839844 16.085938 C 36.453125 14.25 33.605469 13.332031 30.578125 13.332031 C 23.140625 13.332031 16.988281 19.390625 16.988281 26.921875 C 16.988281 28.484375 17.261719 30.136719 17.8125 31.605469 Z M 17.8125 31.605469 "/>
<path style=" stroke:none;fill-rule:nonzero;fill:rgb(17.254902%,27.058824%,56.078431%);fill-opacity:1;" d="M 16.34375 35.738281 C 8.632812 38.214844 3.304688 45.652344 3.304688 53.734375 C 3.304688 61.628906 8.171875 68.699219 15.519531 71.457031 L 39.667969 49.601562 L 35.257812 40.144531 Z M 16.34375 35.738281 "/>
<path style=" stroke:none;fill-rule:nonzero;fill:rgb(58.431373%,77.647059%,23.921569%);fill-opacity:1;" d="M 73.734375 96.613281 C 76.121094 98.453125 78.96875 99.460938 81.90625 99.460938 C 89.34375 99.460938 95.496094 93.402344 95.496094 85.871094 C 95.496094 84.21875 95.21875 82.65625 94.667969 81.1875 L 77.496094 77.148438 Z M 73.734375 96.613281 "/>
<path style=" stroke:none;fill-rule:nonzero;fill:rgb(9.019608%,40%,33.333333%);fill-opacity:1;" d="M 77.222656 72.648438 L 96.136719 77.058594 C 103.851562 74.484375 109.175781 67.140625 109.175781 59.058594 C 109.175781 51.164062 104.308594 44.183594 96.964844 41.335938 L 72.171875 63.007812 Z M 77.222656 72.648438 "/>
</g>
</svg>
