<?xml version="1.0" encoding="UTF-8"?>
<svg xmlns="http://www.w3.org/2000/svg" xmlns:xlink="http://www.w3.org/1999/xlink" width="90pt" height="90pt" viewBox="0 0 90 90" version="1.1">
<g id="surface44">
<path style=" stroke:none;fill-rule:nonzero;fill:rgb(100%,100%,100%);fill-opacity:1;" d="M 89.984375 47.246094 C 89.984375 39.679688 85.285156 33.144531 78.304688 30.574219 C 78.601562 28.957031 78.746094 27.414062 78.746094 25.722656 C 78.746094 11.695312 67.359375 0.308594 53.332031 0.308594 C 45.175781 0.308594 37.535156 4.203125 32.761719 10.886719 C 30.410156 9.050781 27.546875 8.09375 24.535156 8.09375 C 17.117188 8.09375 11.019531 14.117188 11.019531 21.609375 C 11.019531 23.226562 11.3125 24.84375 11.828125 26.3125 C 4.773438 28.734375 0 35.496094 0 42.988281 C 0 50.554688 4.703125 57.164062 11.753906 59.734375 C 11.460938 61.277344 11.3125 62.894531 11.3125 64.582031 C 11.3125 78.539062 22.699219 89.925781 36.65625 89.925781 C 44.882812 89.925781 52.449219 85.960938 57.222656 79.347656 C 59.574219 81.183594 62.511719 82.214844 65.523438 82.214844 C 72.945312 82.214844 79.039062 76.191406 79.039062 68.699219 C 79.039062 67.082031 78.746094 65.464844 78.234375 63.996094 C 85.136719 61.5 89.984375 54.742188 89.984375 47.246094 Z M 89.984375 47.246094 "/>
<path style=" stroke:none;fill-rule:nonzero;fill:rgb(95.686275%,74.117647%,9.803922%);fill-opacity:1;" d="M 35.1875 38.800781 L 55.238281 47.980469 L 75.515625 30.207031 C 75.808594 28.734375 75.957031 27.265625 75.957031 25.722656 C 75.957031 13.238281 65.816406 3.097656 53.332031 3.097656 C 45.835938 3.097656 38.859375 6.773438 34.671875 12.941406 L 31.292969 30.425781 Z M 35.1875 38.800781 "/>
<path style=" stroke:none;fill-rule:nonzero;fill:rgb(23.529412%,74.509804%,69.411765%);fill-opacity:1;" d="M 14.398438 60.027344 C 14.105469 61.5 13.957031 63.042969 13.957031 64.582031 C 13.957031 77.070312 24.167969 87.28125 36.65625 87.28125 C 44.222656 87.28125 51.199219 83.535156 55.460938 77.367188 L 58.765625 59.882812 L 54.285156 51.359375 L 34.15625 42.179688 Z M 14.398438 60.027344 "/>
<path style=" stroke:none;fill-rule:nonzero;fill:rgb(91.372549%,27.843137%,54.901961%);fill-opacity:1;" d="M 14.25 25.285156 L 27.988281 28.515625 L 31.074219 12.871094 C 29.164062 11.398438 26.886719 10.664062 24.460938 10.664062 C 18.511719 10.664062 13.589844 15.515625 13.589844 21.539062 C 13.589844 22.785156 13.808594 24.109375 14.25 25.285156 Z M 14.25 25.285156 "/>
<path style=" stroke:none;fill-rule:nonzero;fill:rgb(17.254902%,27.058824%,56.078431%);fill-opacity:1;" d="M 13.074219 28.589844 C 6.90625 30.574219 2.644531 36.523438 2.644531 42.988281 C 2.644531 49.304688 6.539062 54.960938 12.414062 57.164062 L 31.734375 39.679688 L 28.207031 32.117188 Z M 13.074219 28.589844 "/>
<path style=" stroke:none;fill-rule:nonzero;fill:rgb(58.431373%,77.647059%,23.921569%);fill-opacity:1;" d="M 58.988281 77.292969 C 60.894531 78.761719 63.171875 79.570312 65.523438 79.570312 C 71.472656 79.570312 76.394531 74.722656 76.394531 68.699219 C 76.394531 67.375 76.175781 66.125 75.734375 64.949219 L 62 61.71875 Z M 58.988281 77.292969 "/>
<path style=" stroke:none;fill-rule:nonzero;fill:rgb(9.019608%,40%,33.333333%);fill-opacity:1;" d="M 61.777344 58.121094 L 76.910156 61.644531 C 83.082031 59.589844 87.339844 53.710938 87.339844 47.246094 C 87.339844 40.929688 83.449219 35.347656 77.570312 33.070312 L 57.738281 50.40625 Z M 61.777344 58.121094 "/>
</g>
</svg>
