<?xml version="1.0" encoding="UTF-8"?>
<svg xmlns="http://www.w3.org/2000/svg" xmlns:xlink="http://www.w3.org/1999/xlink" width="195pt" height="195pt" viewBox="0 0 195 195" version="1.1">
<g id="surface29">
<path style=" stroke:none;fill-rule:nonzero;fill:rgb(75.294118%,60%,36.470588%);fill-opacity:1;" d="M 121.1875 67.144531 C 119.484375 65.859375 115.746094 61.042969 110.390625 60.324219 C 105.007812 59.605469 96.722656 62.417969 95.199219 62.65625 C 93.734375 62.894531 90.742188 62.296875 90.714844 62.386719 C 90.714844 62.445312 94.753906 64 97.984375 64.660156 C 101.214844 65.347656 100.945312 64.628906 108.601562 65.289062 C 116.257812 65.945312 119.699219 68.550781 121.851562 68.9375 C 124.003906 69.328125 125.46875 69.328125 125.46875 69.058594 C 125.464844 68.789062 122.890625 68.429688 121.1875 67.144531 Z M 110.449219 58.378906 C 108.835938 57.332031 104.738281 54.191406 100.667969 55.65625 C 96.628906 57.121094 93.910156 59.484375 92.023438 60.050781 C 90.109375 60.617188 86.460938 60.679688 86.460938 60.679688 C 86.460938 60.679688 89.839844 62.027344 93.847656 61.367188 C 97.855469 60.679688 102.460938 58.257812 106.347656 58.734375 C 110.265625 59.214844 109.875 59.390625 110.863281 59.511719 C 111.851562 59.601562 112.566406 59.601562 112.566406 59.363281 C 112.605469 59.097656 112.066406 59.425781 110.449219 58.378906 Z M 95.078125 53.984375 C 92.683594 53.894531 90.324219 56.554688 88.019531 58.171875 C 85.925781 59.667969 82.457031 59.964844 81.949219 59.996094 C 82.488281 59.996094 86.464844 59.964844 89.304688 59.308594 C 92.355469 58.589844 95.644531 55.871094 97.082031 55.152344 C 98.519531 54.433594 100.074219 54.882812 100.074219 54.703125 C 100.070312 54.492188 97.46875 54.105469 95.078125 53.984375 Z M 88.019531 73.003906 L 87.453125 70.820312 C 86.257812 69.175781 84.671875 68.875 82.96875 68.007812 L 82.730469 67.441406 L 84.464844 67.472656 C 84.523438 67.144531 84.375 66.695312 84.253906 66.484375 C 82.699219 66.484375 81.414062 66.453125 79.796875 65.945312 C 77.761719 66.542969 76.6875 67.558594 75.519531 69.054688 C 76.175781 69.203125 76.714844 68.933594 77.402344 69.054688 C 80.929688 69.472656 83.503906 71.207031 85.957031 73.480469 L 86.078125 72.972656 C 85.390625 71.269531 83.746094 70.070312 82.640625 68.785156 C 85.148438 70.015625 86.3125 71.269531 88.019531 73.003906 Z M 88.019531 73.003906 "/>
<path style=" stroke:none;fill-rule:nonzero;fill:rgb(75.294118%,60%,36.470588%);fill-opacity:1;" d="M 113.769531 102.882812 C 112.871094 102.554688 112.003906 102.253906 111.167969 101.894531 C 108.863281 100.546875 110.359375 99.054688 108.65625 97.46875 C 109.375 97.289062 109.375 95.824219 109.375 95.734375 C 104.558594 96.453125 100.042969 97.859375 95.917969 100.101562 C 93.046875 97.410156 88.769531 96.035156 85.152344 94.390625 C 84.136719 93.851562 83.148438 93.253906 82.160156 92.625 C 80.214844 91.398438 78.390625 90.054688 76.71875 88.527344 C 75.371094 87.269531 74.148438 85.925781 73.128906 84.398438 L 73.609375 86.222656 C 71.90625 85.503906 70.050781 84.816406 68.136719 84.398438 C 67.359375 84.21875 66.582031 84.097656 65.804688 84.039062 C 65.835938 84.160156 65.894531 84.277344 65.984375 84.398438 C 66.34375 84.90625 67.089844 85.175781 67.628906 85.296875 C 67.179688 85.714844 66.851562 85.65625 66.191406 85.507812 C 65.863281 85.148438 65.472656 84.789062 65.113281 84.402344 C 64.425781 83.683594 63.886719 82.878906 64.214844 81.800781 C 65.113281 79.917969 67.503906 80.964844 69.179688 81.144531 L 69.570312 80.875 C 69.03125 80.394531 68.222656 80.484375 67.476562 80.277344 C 67.207031 80.21875 66.910156 80.097656 66.667969 79.917969 C 65.921875 79.410156 65.203125 78.75 65.679688 77.972656 C 67.414062 74.710938 69.628906 78.808594 71.511719 78.871094 C 70.824219 78.035156 69.808594 77.136719 69.328125 76.179688 C 69.597656 75.730469 70.464844 75.730469 71.152344 75.699219 C 71.421875 75.847656 71.71875 76.027344 72.019531 76.179688 C 74.324219 77.496094 76.59375 78.992188 78.929688 80.277344 C 79.917969 80.816406 80.902344 81.324219 81.921875 81.773438 C 83.507812 82.429688 84.671875 83.835938 86.230469 84.375 C 86.378906 84.433594 86.53125 84.464844 86.679688 84.496094 C 90.988281 84.554688 95.023438 86.621094 98.703125 87.90625 C 98.402344 86.800781 97.417969 86.589844 96.730469 85.753906 C 96.28125 85.304688 95.863281 84.855469 95.472656 84.347656 C 94.546875 83.121094 93.769531 81.714844 93.078125 80.21875 C 92.449219 78.871094 91.882812 77.46875 91.34375 76.121094 C 90.835938 74.925781 90.355469 73.757812 89.820312 72.710938 C 89.820312 72.710938 90.03125 74.148438 90.359375 76.121094 C 90.570312 77.378906 90.839844 78.8125 91.136719 80.21875 C 91.464844 81.742188 91.824219 83.210938 92.183594 84.347656 C 92.214844 84.4375 92.242188 84.527344 92.273438 84.648438 C 92.183594 84.558594 92.125 84.46875 92.0625 84.347656 C 91.015625 82.941406 89.910156 81.535156 88.742188 80.21875 C 87.367188 78.695312 85.871094 77.316406 84.195312 76.121094 C 83.867188 75.882812 83.539062 75.671875 83.207031 75.433594 C 83.207031 75.433594 83.296875 75.703125 83.476562 76.121094 C 83.867188 77.019531 84.613281 78.722656 85.269531 80.21875 C 85.6875 81.117188 86.046875 81.953125 86.347656 82.492188 L 86.167969 82.613281 C 85.359375 81.566406 84.164062 80.640625 82.640625 80.488281 C 81.953125 80.816406 81.382812 80.578125 80.816406 80.21875 C 80.128906 79.769531 79.46875 79.050781 78.691406 78.78125 L 79.769531 76.089844 C 80.1875 74.117188 78.601562 72.710938 77.675781 71.335938 L 74.773438 72.800781 C 73.1875 72.113281 72.621094 70.796875 72.261719 69.152344 L 73.699219 68.074219 C 73.640625 67.535156 72.652344 67.328125 72.175781 67.058594 C 74.058594 66.25 75.792969 65.414062 77.648438 64.785156 C 80.101562 63.738281 83.390625 64.605469 85.632812 66.132812 L 85.722656 65.742188 L 81.355469 62.75 C 80.097656 62.988281 78.875 63.855469 77.675781 63.765625 C 78.691406 60.535156 81.59375 59.96875 81.59375 59.96875 C 81.59375 59.96875 85.570312 58.890625 86.769531 57.664062 C 88.085938 56.289062 90.71875 54.582031 90.71875 54.433594 C 90.71875 54.285156 87.757812 54.34375 86.5 54.734375 C 84.4375 55.511719 83.449219 58.324219 80.726562 59.910156 C 78.8125 60.898438 77.167969 62.09375 76.6875 64.21875 L 70.316406 66.671875 L 70.167969 67.328125 C 71.003906 68.195312 71.691406 69.898438 72.050781 71.367188 C 71.992188 71.695312 71.542969 71.246094 71.363281 71.398438 C 70.914062 70.261719 70.734375 68.675781 69.417969 68.378906 L 69.328125 68.886719 C 70.015625 69.722656 70.316406 70.652344 70.613281 71.757812 C 71.570312 73.015625 73.664062 72.925781 74.742188 74.179688 C 75.222656 74.746094 75.578125 75.40625 75.699219 76.125 C 75.757812 76.453125 75.730469 76.78125 75.667969 77.140625 C 74.890625 76.929688 74.144531 76.511719 73.425781 76.125 C 71.722656 75.167969 70.074219 74.121094 68.191406 75.046875 C 67.5625 75.703125 66.695312 75.855469 65.917969 76.125 C 65.351562 76.335938 64.8125 76.605469 64.480469 77.171875 C 63.644531 77.859375 64.121094 78.816406 64.332031 79.566406 C 63.972656 79.867188 63.703125 80.046875 63.496094 80.222656 C 63.226562 80.492188 63.046875 80.761719 62.957031 81.300781 C 62.507812 80.910156 62.089844 80.554688 61.671875 80.222656 C 60.566406 79.355469 59.488281 78.699219 57.964844 77.980469 C 55.691406 76.902344 53.957031 77.351562 52.640625 77.949219 C 52.28125 79.59375 50.667969 78.21875 49.917969 79.445312 C 49.738281 79.714844 49.558594 79.984375 49.4375 80.253906 L 50.695312 80.253906 C 50.753906 80.164062 50.785156 80.074219 50.816406 79.984375 C 51.175781 79.894531 51.296875 80.015625 51.324219 80.253906 C 51.382812 80.761719 50.996094 81.808594 51.355469 82.347656 C 51.386719 83.035156 51.566406 83.785156 51.953125 84.382812 C 51.5625 84.652344 51.714844 85.21875 50.90625 84.742188 C 50.726562 84.621094 50.546875 84.503906 50.425781 84.382812 C 49.078125 83.15625 50.066406 81.542969 50.695312 80.253906 L 49.4375 80.253906 C 48.898438 81.242188 48.539062 82.289062 48.871094 83.542969 C 48.960938 83.84375 49.050781 84.109375 49.140625 84.351562 C 49.410156 85.070312 49.828125 85.609375 50.605469 85.964844 C 51.773438 86.472656 53 86.113281 53.835938 85.425781 C 55.359375 86.324219 56.378906 87.308594 57.273438 88.445312 C 58.261719 89.703125 59.066406 91.078125 60.324219 92.574219 C 61.730469 94.21875 63.644531 96.011719 66.875 97.867188 C 67.710938 98.734375 70.074219 99.0625 69.6875 100.886719 C 74.683594 99.363281 79.828125 96.3125 85.328125 97.148438 C 86.046875 97.117188 85.71875 96.191406 86.40625 96.160156 C 89.277344 97.296875 92.179688 98.253906 94.542969 100.136719 C 94.992188 100.40625 94.664062 101.183594 95.46875 101.363281 L 98.039062 99.839844 C 100.460938 100.917969 102.945312 101.902344 105.425781 102.832031 C 127.109375 110.808594 150.558594 113.050781 150.644531 112.753906 C 150.707031 112.453125 130.996094 109.164062 113.769531 102.882812 Z M 85.507812 78.300781 C 86.074219 78.808594 86.703125 79.496094 87.300781 80.273438 C 88.316406 81.621094 89.304688 83.144531 90.082031 84.191406 L 88.289062 83.652344 C 87.75 82.695312 87.121094 81.4375 86.523438 80.273438 C 86.136719 79.523438 85.777344 78.835938 85.507812 78.300781 Z M 76.984375 76.175781 C 76.984375 76.144531 76.953125 76.085938 76.925781 76.054688 C 76.984375 76.085938 77.046875 76.144531 77.105469 76.175781 C 77.671875 76.683594 77.554688 77.433594 77.703125 78.121094 C 76.175781 78.449219 77.191406 76.863281 76.984375 76.175781 Z M 68.699219 85.296875 C 70.195312 85.714844 69.746094 85.417969 70.671875 85.863281 C 69.296875 86.132812 69.234375 86.941406 67.769531 85.984375 C 68.25 85.835938 68.339844 85.777344 68.699219 85.296875 Z M 53.835938 83.382812 C 52.820312 83.351562 52.519531 82.246094 52.730469 81.257812 C 52.761719 80.898438 52.820312 80.570312 52.910156 80.269531 C 53.238281 79.074219 53.957031 78.234375 55.421875 78.414062 C 57.636719 78.742188 58.5625 79.28125 59.789062 80.269531 C 60.148438 80.539062 60.507812 80.867188 60.894531 81.226562 C 62.121094 82.484375 62.390625 82.960938 63.796875 84.398438 C 64.363281 84.964844 65.144531 85.683594 66.191406 86.640625 C 64.84375 85.773438 63.648438 85.054688 62.453125 84.398438 C 60.839844 83.472656 59.222656 82.632812 57.097656 81.675781 C 57.457031 81.585938 58.085938 81.886719 58.023438 81.347656 C 56.976562 80.601562 55.929688 81.4375 55.152344 81.945312 C 54.730469 82.367188 54.703125 83.414062 53.835938 83.382812 Z M 75.398438 95.40625 C 73.273438 96.394531 69.207031 97.019531 69.835938 96.542969 C 70.375 96.09375 66.335938 94.597656 63.914062 92.804688 C 63.855469 92.746094 63.792969 92.683594 63.734375 92.625 C 62.121094 91.011719 60.625 89.632812 59.339844 88.527344 C 56.410156 85.957031 54.585938 84.667969 54.585938 84.667969 C 54.585938 84.667969 54.644531 84.578125 54.734375 84.398438 C 55.09375 83.832031 55.992188 82.664062 57.246094 83.320312 C 57.785156 83.621094 58.441406 83.976562 59.160156 84.398438 C 61.222656 85.59375 63.824219 87.210938 65.917969 88.527344 C 67.890625 89.722656 69.417969 90.652344 69.6875 90.679688 C 71.660156 90.980469 71.601562 90.621094 72.46875 90.410156 C 72.320312 91.039062 71.960938 91.246094 71.210938 91.308594 C 72.078125 91.667969 72.914062 91.667969 73.84375 91.339844 C 75.070312 90.800781 75.21875 90.261719 75.578125 89.097656 C 75.578125 89.097656 77.910156 91.011719 80.003906 92.597656 C 80.273438 92.777344 80.511719 92.988281 80.75 93.164062 C 77.460938 93.28125 77.28125 94.808594 75.398438 95.40625 Z M 75.398438 95.40625 "/>
<path style=" stroke:none;fill-rule:nonzero;fill:rgb(75.294118%,60%,36.470588%);fill-opacity:1;" d="M 82.1875 76.175781 C 82.128906 76.59375 82.039062 77.042969 81.859375 77.371094 C 81.46875 78.089844 81.023438 78.957031 80.363281 78.808594 L 80.0625 78.507812 C 80.601562 77.878906 80.960938 77.042969 81.140625 76.175781 C 81.261719 75.609375 81.320312 75.007812 81.289062 74.441406 C 81.679688 74.171875 81.945312 74.589844 82.246094 74.832031 C 82.21875 74.828125 82.277344 75.457031 82.1875 76.175781 Z M 82.1875 76.175781 "/>
<path style=" stroke:none;fill-rule:nonzero;fill:rgb(75.294118%,60%,36.470588%);fill-opacity:1;" d="M 51.171875 87.808594 C 49.824219 88.257812 48.601562 87.480469 47.882812 86.253906 C 47.523438 85.625 47.523438 84.96875 47.523438 84.371094 C 47.523438 84.160156 47.554688 83.953125 47.523438 83.742188 C 47.613281 83.261719 48.089844 82.664062 48.480469 82.574219 C 48.421875 83.261719 48.390625 83.832031 48.449219 84.367188 C 48.507812 84.785156 48.628906 85.175781 48.867188 85.59375 C 49.40625 86.519531 50.75 86.96875 51.976562 86.640625 C 52.394531 86.550781 52.335938 86.3125 52.632812 86.550781 C 52.816406 87.332031 51.859375 87.601562 51.171875 87.808594 Z M 51.171875 87.808594 "/>
<path style=" stroke:none;fill-rule:nonzero;fill:rgb(75.294118%,60%,36.470588%);fill-opacity:1;" d="M 107.160156 93.792969 C 102.765625 95.140625 95.914062 98.878906 95.914062 98.878906 C 95.914062 98.878906 91.25 95.949219 88.4375 94.660156 C 87.0625 94.03125 85.6875 93.375 84.371094 92.597656 C 82.246094 91.402344 80.242188 90.054688 78.449219 88.5 C 77.253906 87.453125 76.175781 86.347656 75.21875 85.148438 C 75.21875 85.148438 77.433594 86.734375 80.421875 88.5 C 82.964844 89.996094 86.074219 91.640625 88.855469 92.597656 C 89.664062 92.867188 90.46875 93.105469 91.21875 93.226562 C 93.371094 93.675781 95.585938 93.40625 97.410156 92.925781 C 97.46875 94.332031 96.394531 94.839844 95.226562 95.4375 C 96.574219 95.558594 98.277344 94.898438 99.355469 93.914062 C 99.714844 93.523438 99.984375 93.078125 100.164062 92.566406 C 100.644531 91.28125 100.613281 89.726562 100.523438 88.46875 C 102.136719 89.753906 104.140625 91.160156 105.816406 92.566406 C 106.324219 93.015625 106.769531 93.371094 107.160156 93.792969 Z M 107.160156 93.792969 "/>
<path style=" stroke:none;fill-rule:nonzero;fill:rgb(75.294118%,60%,36.470588%);fill-opacity:1;" d="M 136.199219 92.027344 C 136.199219 92.148438 135.121094 92.386719 133.6875 92.59375 C 131.59375 92.921875 128.664062 93.25 127.136719 93.222656 C 125.253906 93.164062 120.40625 93.820312 115.921875 92.59375 C 114.308594 92.144531 112.722656 91.457031 111.347656 90.410156 C 110.628906 89.84375 109.792969 89.152344 109.074219 88.496094 C 109.015625 88.464844 108.984375 88.40625 108.953125 88.375 C 107.578125 87.117188 106.292969 85.773438 105.066406 84.367188 C 103.871094 83.019531 102.761719 81.617188 101.746094 80.238281 C 100.667969 78.800781 99.710938 77.398438 98.875 76.140625 C 96.8125 73 95.585938 70.667969 95.4375 70.398438 C 95.585938 70.546875 97.949219 73.210938 100.761719 76.140625 C 102.109375 77.546875 103.542969 78.980469 104.859375 80.238281 C 106.296875 81.585938 107.582031 82.71875 108.539062 83.378906 C 109.019531 83.707031 109.585938 84.035156 110.152344 84.367188 C 112.632812 85.773438 115.863281 87.207031 118.734375 88.375 C 118.824219 88.40625 118.914062 88.433594 119.003906 88.464844 C 120.527344 89.0625 122.144531 89.691406 123.25 90.078125 C 127.019531 91.398438 136.199219 91.757812 136.199219 92.027344 Z M 136.199219 92.027344 "/>
<path style=" stroke:none;fill-rule:nonzero;fill:rgb(75.294118%,60%,36.470588%);fill-opacity:1;" d="M 151.902344 86.613281 C 151.902344 86.851562 130.667969 87.691406 117.65625 84.398438 C 115.863281 83.949219 114.21875 83.410156 112.8125 82.785156 C 111.496094 82.1875 110.0625 81.320312 108.625 80.304688 C 106.921875 79.078125 105.1875 77.644531 103.570312 76.207031 C 99.261719 72.347656 95.765625 68.402344 95.523438 68.132812 C 95.792969 68.3125 100.1875 71.035156 103.628906 72.527344 C 105.511719 73.363281 108.683594 74.410156 113.078125 76.207031 C 115.679688 77.285156 118.699219 78.601562 122.109375 80.304688 C 123.695312 81.113281 125.371094 81.980469 127.132812 82.9375 C 128.210938 83.503906 129.496094 84.015625 130.960938 84.402344 C 139.160156 86.671875 151.902344 86.375 151.902344 86.613281 Z M 151.902344 86.613281 "/>
<path style=" stroke:none;fill-rule:nonzero;fill:rgb(75.294118%,60%,36.470588%);fill-opacity:1;" d="M 136.800781 79.226562 C 136.800781 79.226562 134.320312 80.363281 127.886719 78.957031 C 124.984375 78.300781 122.621094 77.3125 120.199219 76.175781 C 117.296875 74.800781 114.308594 73.273438 110.238281 71.957031 C 102.820312 69.59375 101.984375 69.59375 99.292969 68.070312 C 96.78125 66.632812 95.195312 65.527344 95.015625 65.378906 C 95.285156 65.46875 98.246094 66.546875 100.457031 66.84375 C 102.761719 67.171875 118.191406 68.96875 123.90625 72.078125 C 126.628906 73.542969 128.332031 75.039062 129.617188 76.175781 C 130.484375 76.921875 131.171875 77.523438 131.890625 77.851562 C 133.660156 78.65625 136.800781 78.867188 136.800781 79.226562 Z M 136.800781 79.226562 "/>
<path style=" stroke:none;fill-rule:nonzero;fill:rgb(0%,25.882353%,53.333333%);fill-opacity:1;" d="M 185.90625 128.722656 L 185.875 128.664062 L 185.21875 128.664062 L 185.519531 129.082031 L 186.296875 129.082031 L 186.296875 128.933594 C 186.117188 128.964844 185.996094 128.875 185.90625 128.722656 Z M 184.082031 128.722656 L 183.515625 128.691406 C 183.484375 128.929688 183.367188 128.992188 183.097656 128.992188 L 183.097656 129.113281 L 184.535156 129.113281 L 184.535156 128.964844 C 184.351562 128.964844 184.082031 128.933594 184.082031 128.722656 Z M 186.953125 128.695312 C 186.503906 129.53125 185.636719 130.101562 184.621094 130.101562 C 183.605469 130.101562 182.738281 129.535156 182.316406 128.695312 L 181.988281 128.695312 C 182.4375 129.683594 183.453125 130.398438 184.621094 130.398438 C 185.789062 130.398438 186.835938 129.710938 187.28125 128.695312 Z M 184.949219 127.496094 C 185.398438 127.4375 185.757812 127.136719 185.757812 126.6875 C 185.757812 126.058594 185.160156 125.789062 184.621094 125.789062 C 184.140625 125.789062 183.632812 125.789062 183.125 125.789062 L 183.125 125.9375 C 183.484375 125.9375 183.484375 126.027344 183.484375 126.355469 L 183.484375 128.6875 L 184.050781 128.6875 L 184.050781 127.550781 L 184.320312 127.550781 L 185.15625 128.6875 L 185.8125 128.6875 Z M 184.082031 127.378906 L 184.082031 126.0625 C 184.140625 126.0625 184.171875 126.0625 184.230469 126.0625 C 184.679688 126.0625 185.21875 126.183594 185.21875 126.691406 C 185.21875 127.257812 184.503906 127.347656 184.082031 127.378906 Z M 185.90625 128.722656 L 185.875 128.664062 L 184.976562 127.46875 C 185.425781 127.410156 185.785156 127.109375 185.785156 126.660156 C 185.785156 126.03125 185.1875 125.761719 184.648438 125.761719 C 184.167969 125.761719 183.660156 125.761719 183.152344 125.761719 L 183.152344 125.910156 C 183.511719 125.910156 183.511719 126 183.511719 126.328125 L 183.511719 128.660156 C 183.480469 128.898438 183.363281 128.960938 183.09375 128.960938 L 183.09375 129.082031 L 184.53125 129.082031 L 184.53125 128.933594 C 184.351562 128.933594 184.082031 128.902344 184.082031 128.664062 L 184.082031 127.496094 L 184.351562 127.496094 L 185.1875 128.632812 L 185.488281 129.050781 L 186.265625 129.050781 L 186.265625 128.902344 C 186.117188 128.964844 185.996094 128.875 185.90625 128.722656 Z M 184.082031 127.378906 L 184.082031 126.0625 C 184.140625 126.0625 184.171875 126.0625 184.230469 126.0625 C 184.679688 126.0625 185.21875 126.183594 185.21875 126.691406 C 185.21875 127.257812 184.503906 127.347656 184.082031 127.378906 Z M 185.90625 128.722656 L 185.875 128.664062 L 184.976562 127.46875 C 185.425781 127.410156 185.785156 127.109375 185.785156 126.660156 C 185.785156 126.03125 185.1875 125.761719 184.648438 125.761719 C 184.167969 125.761719 183.660156 125.761719 183.152344 125.761719 L 183.152344 125.910156 C 183.511719 125.910156 183.511719 126 183.511719 126.328125 L 183.511719 128.660156 C 183.480469 128.898438 183.363281 128.960938 183.09375 128.960938 L 183.09375 129.082031 L 184.53125 129.082031 L 184.53125 128.933594 C 184.351562 128.933594 184.082031 128.902344 184.082031 128.664062 L 184.082031 127.496094 L 184.351562 127.496094 L 185.1875 128.632812 L 185.488281 129.050781 L 186.265625 129.050781 L 186.265625 128.902344 C 186.117188 128.964844 185.996094 128.875 185.90625 128.722656 Z M 184.082031 127.378906 L 184.082031 126.0625 C 184.140625 126.0625 184.171875 126.0625 184.230469 126.0625 C 184.679688 126.0625 185.21875 126.183594 185.21875 126.691406 C 185.21875 127.257812 184.503906 127.347656 184.082031 127.378906 Z M 185.90625 128.722656 L 185.875 128.664062 L 184.976562 127.46875 C 185.425781 127.410156 185.785156 127.109375 185.785156 126.660156 C 185.785156 126.03125 185.1875 125.761719 184.648438 125.761719 C 184.167969 125.761719 183.660156 125.761719 183.152344 125.761719 L 183.152344 125.910156 C 183.511719 125.910156 183.511719 126 183.511719 126.328125 L 183.511719 128.660156 C 183.480469 128.898438 183.363281 128.960938 183.09375 128.960938 L 183.09375 129.082031 L 184.53125 129.082031 L 184.53125 128.933594 C 184.351562 128.933594 184.082031 128.902344 184.082031 128.664062 L 184.082031 127.496094 L 184.351562 127.496094 L 185.1875 128.632812 L 185.488281 129.050781 L 186.265625 129.050781 L 186.265625 128.902344 C 186.117188 128.964844 185.996094 128.875 185.90625 128.722656 Z M 184.082031 127.378906 L 184.082031 126.0625 C 184.140625 126.0625 184.171875 126.0625 184.230469 126.0625 C 184.679688 126.0625 185.21875 126.183594 185.21875 126.691406 C 185.21875 127.257812 184.503906 127.347656 184.082031 127.378906 Z M 185.90625 128.722656 L 185.875 128.664062 L 184.976562 127.46875 C 185.425781 127.410156 185.785156 127.109375 185.785156 126.660156 C 185.785156 126.03125 185.1875 125.761719 184.648438 125.761719 C 184.167969 125.761719 183.660156 125.761719 183.152344 125.761719 L 183.152344 125.910156 C 183.511719 125.910156 183.511719 126 183.511719 126.328125 L 183.511719 128.660156 C 183.480469 128.898438 183.363281 128.960938 183.09375 128.960938 L 183.09375 129.082031 L 184.53125 129.082031 L 184.53125 128.933594 C 184.351562 128.933594 184.082031 128.902344 184.082031 128.664062 L 184.082031 127.496094 L 184.351562 127.496094 L 185.1875 128.632812 L 185.488281 129.050781 L 186.265625 129.050781 L 186.265625 128.902344 C 186.117188 128.964844 185.996094 128.875 185.90625 128.722656 Z M 184.082031 127.378906 L 184.082031 126.0625 C 184.140625 126.0625 184.171875 126.0625 184.230469 126.0625 C 184.679688 126.0625 185.21875 126.183594 185.21875 126.691406 C 185.21875 127.257812 184.503906 127.347656 184.082031 127.378906 Z M 185.90625 128.722656 L 185.875 128.664062 L 184.976562 127.46875 C 185.425781 127.410156 185.785156 127.109375 185.785156 126.660156 C 185.785156 126.03125 185.1875 125.761719 184.648438 125.761719 C 184.167969 125.761719 183.660156 125.761719 183.152344 125.761719 L 183.152344 125.910156 C 183.511719 125.910156 183.511719 126 183.511719 126.328125 L 183.511719 128.660156 C 183.480469 128.898438 183.363281 128.960938 183.09375 128.960938 L 183.09375 129.082031 L 184.53125 129.082031 L 184.53125 128.933594 C 184.351562 128.933594 184.082031 128.902344 184.082031 128.664062 L 184.082031 127.496094 L 184.351562 127.496094 L 185.1875 128.632812 L 185.488281 129.050781 L 186.265625 129.050781 L 186.265625 128.902344 C 186.117188 128.964844 185.996094 128.875 185.90625 128.722656 Z M 184.082031 127.378906 L 184.082031 126.0625 C 184.140625 126.0625 184.171875 126.0625 184.230469 126.0625 C 184.679688 126.0625 185.21875 126.183594 185.21875 126.691406 C 185.21875 127.257812 184.503906 127.347656 184.082031 127.378906 Z M 185.90625 128.722656 L 185.875 128.664062 L 184.976562 127.46875 C 185.425781 127.410156 185.785156 127.109375 185.785156 126.660156 C 185.785156 126.03125 185.1875 125.761719 184.648438 125.761719 C 184.167969 125.761719 183.660156 125.761719 183.152344 125.761719 L 183.152344 125.910156 C 183.511719 125.910156 183.511719 126 183.511719 126.328125 L 183.511719 128.660156 C 183.480469 128.898438 183.363281 128.960938 183.09375 128.960938 L 183.09375 129.082031 L 184.53125 129.082031 L 184.53125 128.933594 C 184.351562 128.933594 184.082031 128.902344 184.082031 128.664062 L 184.082031 127.496094 L 184.351562 127.496094 L 185.1875 128.632812 L 185.488281 129.050781 L 186.265625 129.050781 L 186.265625 128.902344 C 186.117188 128.964844 185.996094 128.875 185.90625 128.722656 Z M 184.082031 127.378906 L 184.082031 126.0625 C 184.140625 126.0625 184.171875 126.0625 184.230469 126.0625 C 184.679688 126.0625 185.21875 126.183594 185.21875 126.691406 C 185.21875 127.257812 184.503906 127.347656 184.082031 127.378906 Z M 185.90625 128.722656 L 185.875 128.664062 L 184.976562 127.46875 C 185.425781 127.410156 185.785156 127.109375 185.785156 126.660156 C 185.785156 126.03125 185.1875 125.761719 184.648438 125.761719 C 184.167969 125.761719 183.660156 125.761719 183.152344 125.761719 L 183.152344 125.910156 C 183.511719 125.910156 183.511719 126 183.511719 126.328125 L 183.511719 128.660156 C 183.480469 128.898438 183.363281 128.960938 183.09375 128.960938 L 183.09375 129.082031 L 184.53125 129.082031 L 184.53125 128.933594 C 184.351562 128.933594 184.082031 128.902344 184.082031 128.664062 L 184.082031 127.496094 L 184.351562 127.496094 L 185.1875 128.632812 L 185.488281 129.050781 L 186.265625 129.050781 L 186.265625 128.902344 C 186.117188 128.964844 185.996094 128.875 185.90625 128.722656 Z M 184.082031 127.378906 L 184.082031 126.0625 C 184.140625 126.0625 184.171875 126.0625 184.230469 126.0625 C 184.679688 126.0625 185.21875 126.183594 185.21875 126.691406 C 185.21875 127.257812 184.503906 127.347656 184.082031 127.378906 Z M 185.90625 128.722656 L 185.875 128.664062 L 184.976562 127.46875 C 185.425781 127.410156 185.785156 127.109375 185.785156 126.660156 C 185.785156 126.03125 185.1875 125.761719 184.648438 125.761719 C 184.167969 125.761719 183.660156 125.761719 183.152344 125.761719 L 183.152344 125.910156 C 183.511719 125.910156 183.511719 126 183.511719 126.328125 L 183.511719 128.660156 C 183.480469 128.898438 183.363281 128.960938 183.09375 128.960938 L 183.09375 129.082031 L 184.53125 129.082031 L 184.53125 128.933594 C 184.351562 128.933594 184.082031 128.902344 184.082031 128.664062 L 184.082031 127.496094 L 184.351562 127.496094 L 185.1875 128.632812 L 185.488281 129.050781 L 186.265625 129.050781 L 186.265625 128.902344 C 186.117188 128.964844 185.996094 128.875 185.90625 128.722656 Z M 184.082031 127.378906 L 184.082031 126.0625 C 184.140625 126.0625 184.171875 126.0625 184.230469 126.0625 C 184.679688 126.0625 185.21875 126.183594 185.21875 126.691406 C 185.21875 127.257812 184.503906 127.347656 184.082031 127.378906 Z M 185.90625 128.722656 L 185.875 128.664062 L 184.976562 127.46875 C 185.425781 127.410156 185.785156 127.109375 185.785156 126.660156 C 185.785156 126.03125 185.1875 125.761719 184.648438 125.761719 C 184.167969 125.761719 183.660156 125.761719 183.152344 125.761719 L 183.152344 125.910156 C 183.511719 125.910156 183.511719 126 183.511719 126.328125 L 183.511719 128.660156 C 183.480469 128.898438 183.363281 128.960938 183.09375 128.960938 L 183.09375 129.082031 L 184.53125 129.082031 L 184.53125 128.933594 C 184.351562 128.933594 184.082031 128.902344 184.082031 128.664062 L 184.082031 127.496094 L 184.351562 127.496094 L 185.1875 128.632812 L 185.488281 129.050781 L 186.265625 129.050781 L 186.265625 128.902344 C 186.117188 128.964844 185.996094 128.875 185.90625 128.722656 Z M 184.082031 127.378906 L 184.082031 126.0625 C 184.140625 126.0625 184.171875 126.0625 184.230469 126.0625 C 184.679688 126.0625 185.21875 126.183594 185.21875 126.691406 C 185.21875 127.257812 184.503906 127.347656 184.082031 127.378906 Z M 184.621094 124.65625 C 183.007812 124.65625 181.71875 125.941406 181.71875 127.527344 C 181.71875 127.945312 181.808594 128.335938 181.988281 128.695312 L 182.316406 128.695312 C 182.136719 128.335938 182.015625 127.949219 182.015625 127.527344 C 182.015625 126.121094 183.183594 124.957031 184.617188 124.957031 C 186.054688 124.957031 187.21875 126.125 187.21875 127.527344 C 187.21875 127.945312 187.128906 128.335938 186.949219 128.695312 L 187.277344 128.695312 C 187.457031 128.335938 187.546875 127.949219 187.546875 127.527344 C 187.523438 125.941406 186.207031 124.65625 184.621094 124.65625 Z M 185.847656 128.695312 L 184.949219 127.5 C 185.398438 127.441406 185.757812 127.140625 185.757812 126.691406 C 185.757812 126.0625 185.160156 125.792969 184.621094 125.792969 C 184.140625 125.792969 183.632812 125.792969 183.125 125.792969 L 183.125 125.941406 C 183.484375 125.941406 183.484375 126.03125 183.484375 126.359375 L 183.484375 128.691406 C 183.453125 128.929688 183.335938 128.992188 183.066406 128.992188 L 183.066406 129.113281 L 184.503906 129.113281 L 184.503906 128.964844 C 184.324219 128.964844 184.054688 128.933594 184.054688 128.695312 L 184.054688 127.527344 L 184.324219 127.527344 L 185.160156 128.664062 L 185.460938 129.082031 L 186.238281 129.082031 L 186.238281 128.933594 C 186.058594 128.933594 185.9375 128.84375 185.847656 128.695312 Z M 184.082031 127.378906 L 184.082031 126.0625 C 184.140625 126.0625 184.171875 126.0625 184.230469 126.0625 C 184.679688 126.0625 185.21875 126.183594 185.21875 126.691406 C 185.21875 127.257812 184.503906 127.347656 184.082031 127.378906 Z M 185.90625 128.722656 L 185.875 128.664062 L 184.976562 127.46875 C 185.425781 127.410156 185.785156 127.109375 185.785156 126.660156 C 185.785156 126.03125 185.1875 125.761719 184.648438 125.761719 C 184.167969 125.761719 183.660156 125.761719 183.152344 125.761719 L 183.152344 125.910156 C 183.511719 125.910156 183.511719 126 183.511719 126.328125 L 183.511719 128.660156 C 183.480469 128.898438 183.363281 128.960938 183.09375 128.960938 L 183.09375 129.082031 L 184.53125 129.082031 L 184.53125 128.933594 C 184.351562 128.933594 184.082031 128.902344 184.082031 128.664062 L 184.082031 127.496094 L 184.351562 127.496094 L 185.1875 128.632812 L 185.488281 129.050781 L 186.265625 129.050781 L 186.265625 128.902344 C 186.117188 128.964844 185.996094 128.875 185.90625 128.722656 Z M 184.082031 127.378906 L 184.082031 126.0625 C 184.140625 126.0625 184.171875 126.0625 184.230469 126.0625 C 184.679688 126.0625 185.21875 126.183594 185.21875 126.691406 C 185.21875 127.257812 184.503906 127.347656 184.082031 127.378906 Z M 185.90625 128.722656 L 185.875 128.664062 L 184.976562 127.46875 C 185.425781 127.410156 185.785156 127.109375 185.785156 126.660156 C 185.785156 126.03125 185.1875 125.761719 184.648438 125.761719 C 184.167969 125.761719 183.660156 125.761719 183.152344 125.761719 L 183.152344 125.910156 C 183.511719 125.910156 183.511719 126 183.511719 126.328125 L 183.511719 128.660156 C 183.480469 128.898438 183.363281 128.960938 183.09375 128.960938 L 183.09375 129.082031 L 184.53125 129.082031 L 184.53125 128.933594 C 184.351562 128.933594 184.082031 128.902344 184.082031 128.664062 L 184.082031 127.496094 L 184.351562 127.496094 L 185.1875 128.632812 L 185.488281 129.050781 L 186.265625 129.050781 L 186.265625 128.902344 C 186.117188 128.964844 185.996094 128.875 185.90625 128.722656 Z M 184.082031 127.378906 L 184.082031 126.0625 C 184.140625 126.0625 184.171875 126.0625 184.230469 126.0625 C 184.679688 126.0625 185.21875 126.183594 185.21875 126.691406 C 185.21875 127.257812 184.503906 127.347656 184.082031 127.378906 Z M 185.90625 128.722656 L 185.875 128.664062 L 184.976562 127.46875 C 185.425781 127.410156 185.785156 127.109375 185.785156 126.660156 C 185.785156 126.03125 185.1875 125.761719 184.648438 125.761719 C 184.167969 125.761719 183.660156 125.761719 183.152344 125.761719 L 183.152344 125.910156 C 183.511719 125.910156 183.511719 126 183.511719 126.328125 L 183.511719 128.660156 C 183.480469 128.898438 183.363281 128.960938 183.09375 128.960938 L 183.09375 129.082031 L 184.53125 129.082031 L 184.53125 128.933594 C 184.351562 128.933594 184.082031 128.902344 184.082031 128.664062 L 184.082031 127.496094 L 184.351562 127.496094 L 185.1875 128.632812 L 185.488281 129.050781 L 186.265625 129.050781 L 186.265625 128.902344 C 186.117188 128.964844 185.996094 128.875 185.90625 128.722656 Z M 184.082031 127.378906 L 184.082031 126.0625 C 184.140625 126.0625 184.171875 126.0625 184.230469 126.0625 C 184.679688 126.0625 185.21875 126.183594 185.21875 126.691406 C 185.21875 127.257812 184.503906 127.347656 184.082031 127.378906 Z M 185.90625 128.722656 L 185.875 128.664062 L 184.976562 127.46875 C 185.425781 127.410156 185.785156 127.109375 185.785156 126.660156 C 185.785156 126.03125 185.1875 125.761719 184.648438 125.761719 C 184.167969 125.761719 183.660156 125.761719 183.152344 125.761719 L 183.152344 125.910156 C 183.511719 125.910156 183.511719 126 183.511719 126.328125 L 183.511719 128.660156 C 183.480469 128.898438 183.363281 128.960938 183.09375 128.960938 L 183.09375 129.082031 L 184.53125 129.082031 L 184.53125 128.933594 C 184.351562 128.933594 184.082031 128.902344 184.082031 128.664062 L 184.082031 127.496094 L 184.351562 127.496094 L 185.1875 128.632812 L 185.488281 129.050781 L 186.265625 129.050781 L 186.265625 128.902344 C 186.117188 128.964844 185.996094 128.875 185.90625 128.722656 Z M 184.082031 127.378906 L 184.082031 126.0625 C 184.140625 126.0625 184.171875 126.0625 184.230469 126.0625 C 184.679688 126.0625 185.21875 126.183594 185.21875 126.691406 C 185.21875 127.257812 184.503906 127.347656 184.082031 127.378906 Z M 185.90625 128.722656 L 185.875 128.664062 L 184.976562 127.46875 C 185.425781 127.410156 185.785156 127.109375 185.785156 126.660156 C 185.785156 126.03125 185.1875 125.761719 184.648438 125.761719 C 184.167969 125.761719 183.660156 125.761719 183.152344 125.761719 L 183.152344 125.910156 C 183.511719 125.910156 183.511719 126 183.511719 126.328125 L 183.511719 128.660156 C 183.480469 128.898438 183.363281 128.960938 183.09375 128.960938 L 183.09375 129.082031 L 184.53125 129.082031 L 184.53125 128.933594 C 184.351562 128.933594 184.082031 128.902344 184.082031 128.664062 L 184.082031 127.496094 L 184.351562 127.496094 L 185.1875 128.632812 L 185.488281 129.050781 L 186.265625 129.050781 L 186.265625 128.902344 C 186.117188 128.964844 185.996094 128.875 185.90625 128.722656 Z M 184.082031 127.378906 L 184.082031 126.0625 C 184.140625 126.0625 184.171875 126.0625 184.230469 126.0625 C 184.679688 126.0625 185.21875 126.183594 185.21875 126.691406 C 185.21875 127.257812 184.503906 127.347656 184.082031 127.378906 Z M 185.90625 128.722656 L 185.875 128.664062 L 184.976562 127.46875 C 185.425781 127.410156 185.785156 127.109375 185.785156 126.660156 C 185.785156 126.03125 185.1875 125.761719 184.648438 125.761719 C 184.167969 125.761719 183.660156 125.761719 183.152344 125.761719 L 183.152344 125.910156 C 183.511719 125.910156 183.511719 126 183.511719 126.328125 L 183.511719 128.660156 C 183.480469 128.898438 183.363281 128.960938 183.09375 128.960938 L 183.09375 129.082031 L 184.53125 129.082031 L 184.53125 128.933594 C 184.351562 128.933594 184.082031 128.902344 184.082031 128.664062 L 184.082031 127.496094 L 184.351562 127.496094 L 185.1875 128.632812 L 185.488281 129.050781 L 186.265625 129.050781 L 186.265625 128.902344 C 186.117188 128.964844 185.996094 128.875 185.90625 128.722656 Z M 184.082031 127.378906 L 184.082031 126.0625 C 184.140625 126.0625 184.171875 126.0625 184.230469 126.0625 C 184.679688 126.0625 185.21875 126.183594 185.21875 126.691406 C 185.21875 127.257812 184.503906 127.347656 184.082031 127.378906 Z M 185.90625 128.722656 L 185.875 128.664062 L 184.976562 127.46875 C 185.425781 127.410156 185.785156 127.109375 185.785156 126.660156 C 185.785156 126.03125 185.1875 125.761719 184.648438 125.761719 C 184.167969 125.761719 183.660156 125.761719 183.152344 125.761719 L 183.152344 125.910156 C 183.511719 125.910156 183.511719 126 183.511719 126.328125 L 183.511719 128.660156 C 183.480469 128.898438 183.363281 128.960938 183.09375 128.960938 L 183.09375 129.082031 L 184.53125 129.082031 L 184.53125 128.933594 C 184.351562 128.933594 184.082031 128.902344 184.082031 128.664062 L 184.082031 127.496094 L 184.351562 127.496094 L 185.1875 128.632812 L 185.488281 129.050781 L 186.265625 129.050781 L 186.265625 128.902344 C 186.117188 128.964844 185.996094 128.875 185.90625 128.722656 Z M 184.082031 127.378906 L 184.082031 126.0625 C 184.140625 126.0625 184.171875 126.0625 184.230469 126.0625 C 184.679688 126.0625 185.21875 126.183594 185.21875 126.691406 C 185.21875 127.257812 184.503906 127.347656 184.082031 127.378906 Z M 185.90625 128.722656 L 185.875 128.664062 L 184.976562 127.46875 C 185.425781 127.410156 185.785156 127.109375 185.785156 126.660156 C 185.785156 126.03125 185.1875 125.761719 184.648438 125.761719 C 184.167969 125.761719 183.660156 125.761719 183.152344 125.761719 L 183.152344 125.910156 C 183.511719 125.910156 183.511719 126 183.511719 126.328125 L 183.511719 128.660156 C 183.480469 128.898438 183.363281 128.960938 183.09375 128.960938 L 183.09375 129.082031 L 184.53125 129.082031 L 184.53125 128.933594 C 184.351562 128.933594 184.082031 128.902344 184.082031 128.664062 L 184.082031 127.496094 L 184.351562 127.496094 L 185.1875 128.632812 L 185.488281 129.050781 L 186.265625 129.050781 L 186.265625 128.902344 C 186.117188 128.964844 185.996094 128.875 185.90625 128.722656 Z M 184.082031 127.378906 L 184.082031 126.0625 C 184.140625 126.0625 184.171875 126.0625 184.230469 126.0625 C 184.679688 126.0625 185.21875 126.183594 185.21875 126.691406 C 185.21875 127.257812 184.503906 127.347656 184.082031 127.378906 Z M 184.082031 127.378906 "/>
<path style=" stroke:none;fill-rule:nonzero;fill:rgb(0%,25.882353%,53.333333%);fill-opacity:1;" d="M 179.359375 116.433594 L 179.359375 130.398438 L 172.570312 130.398438 L 172.570312 117.058594 C 172.570312 116.820312 172.570312 116.609375 172.570312 116.429688 C 172.511719 114.84375 172.152344 113.917969 171.582031 113.140625 C 171.164062 112.542969 170.117188 112.125 169.519531 112.125 C 168.144531 112.125 166.738281 112.871094 165.570312 113.828125 L 165.570312 130.398438 L 158.8125 130.398438 L 158.8125 108.683594 L 165.511719 107.605469 L 165.511719 110.566406 C 168.652344 108.59375 170.207031 107.996094 172.929688 107.996094 C 176.605469 107.96875 179.359375 110.539062 179.359375 116.433594 Z M 179.359375 116.433594 "/>
<path style=" stroke:none;fill-rule:nonzero;fill:rgb(0%,25.882353%,53.333333%);fill-opacity:1;" d="M 157.226562 130.367188 L 150.617188 130.367188 C 149.242188 130.367188 148.644531 129.949219 148.492188 128.664062 C 148.460938 128.425781 148.460938 128.15625 148.460938 127.855469 L 148.460938 119.453125 L 147.921875 119.453125 C 147.144531 119.453125 142.6875 120.441406 142.6875 124.6875 C 142.6875 125.375 142.957031 127.109375 144.003906 127.46875 C 144.363281 127.589844 145.109375 127.617188 145.261719 127.617188 C 146.160156 127.617188 147.054688 127.347656 148.042969 127.050781 C 147.953125 127.410156 147.863281 128.066406 147.773438 128.664062 C 147.714844 129.171875 147.652344 129.652344 147.59375 129.980469 C 146.335938 130.398438 145.261719 130.816406 143.945312 130.96875 C 143.167969 131.027344 142.777344 131.027344 142.597656 131.027344 C 140.382812 131.027344 138.140625 130.308594 136.855469 128.695312 C 136.167969 127.828125 135.75 126.660156 135.75 125.226562 C 135.75 117.871094 148.460938 116.734375 148.460938 116.734375 L 148.460938 114.820312 C 148.460938 114.074219 148.28125 111.023438 144.421875 111.023438 C 142.296875 111.023438 138.589844 111.859375 137.511719 112.28125 L 137.902344 109.351562 C 138.679688 109.082031 142.210938 108.003906 143.464844 107.855469 C 149.65625 107.109375 152.796875 109.441406 153.8125 110.757812 C 154.710938 111.925781 155.277344 113.898438 155.277344 115.332031 L 155.28125 127.40625 C 155.28125 127.855469 155.371094 128.273438 155.550781 128.664062 C 155.878906 129.53125 156.507812 130.21875 157.226562 130.367188 Z M 157.226562 130.367188 "/>
<path style=" stroke:none;fill-rule:nonzero;fill:rgb(0%,25.882353%,53.333333%);fill-opacity:1;" d="M 134.226562 118.375 C 134.226562 122.53125 132.761719 126.390625 129.917969 128.691406 C 128.421875 129.917969 126.566406 130.695312 124.355469 130.875 C 123.578125 130.933594 123.160156 130.933594 123.007812 130.933594 C 122.050781 130.933594 121.183594 130.753906 119.867188 130.304688 C 119.777344 130.003906 119.628906 129.289062 119.507812 128.691406 C 119.386719 128.0625 119.296875 127.523438 119.296875 127.523438 C 120.164062 127.882812 121.0625 128.179688 121.988281 128.179688 C 125.21875 128.179688 127.132812 125.277344 127.132812 119.296875 C 127.132812 118.609375 127.042969 117.53125 126.832031 116.425781 C 126.503906 114.691406 125.816406 112.835938 124.589844 112.117188 C 124.050781 111.816406 123.183594 111.429688 122.617188 111.429688 C 121.449219 111.429688 119.984375 111.878906 118.820312 112.714844 L 118.820312 140.710938 L 112.0625 140.710938 L 112.066406 108.625 L 118.855469 107.609375 L 118.855469 109.671875 C 120.558594 108.714844 122.625 108.027344 124.328125 107.878906 C 125.105469 107.789062 125.433594 107.789062 125.585938 107.789062 C 127.589844 107.789062 129.804688 108.445312 131.777344 110.628906 C 132.136719 111.046875 132.433594 111.585938 132.675781 112.035156 C 133.421875 113.472656 133.933594 114.964844 134.113281 116.429688 C 134.113281 116.640625 134.144531 116.820312 134.144531 117.027344 C 134.195312 117.867188 134.226562 118.195312 134.226562 118.375 Z M 134.226562 118.375 "/>
<path style=" stroke:none;fill-rule:nonzero;fill:rgb(0%,25.882353%,53.333333%);fill-opacity:1;" d="M 109.285156 123.609375 C 109.285156 125.132812 108.835938 127.167969 107.132812 128.695312 C 105.695312 129.980469 103.304688 130.9375 99.476562 130.9375 C 96.097656 130.9375 93.015625 129.769531 92.808594 129.679688 C 92.71875 129.351562 92.628906 129.023438 92.539062 128.691406 C 92.359375 128.003906 92.210938 127.285156 92 126.566406 C 93.136719 126.957031 95.5 128.089844 98.550781 128.089844 C 101.183594 128.089844 102.945312 126.714844 102.945312 125.039062 C 102.945312 124.230469 102.464844 123.273438 101.390625 122.644531 C 98.699219 121.089844 95.707031 120.519531 93.164062 117.769531 C 92.804688 117.378906 92.566406 116.902344 92.386719 116.394531 C 92.175781 115.738281 92.085938 115.078125 92.085938 114.570312 C 92.085938 110.683594 95.675781 107.8125 101.179688 107.8125 C 104.351562 107.8125 106.710938 109.070312 106.710938 109.070312 C 106.710938 109.070312 107.339844 111.253906 107.578125 112.300781 C 105.515625 111.3125 103.75 110.6875 101.835938 110.6875 C 100.757812 110.6875 98.367188 111.046875 98.367188 113.167969 C 98.367188 114.542969 100.222656 115.410156 102.40625 116.398438 C 105.546875 117.835938 109.285156 119.570312 109.285156 123.609375 Z M 109.285156 123.609375 "/>
<path style=" stroke:none;fill-rule:nonzero;fill:rgb(0%,25.882353%,53.333333%);fill-opacity:1;" d="M 88.347656 128.695312 C 84.101562 126.421875 76.117188 127.679688 76.117188 125.972656 C 76.117188 125.523438 76.746094 124.386719 76.925781 124.027344 C 77.644531 124.148438 77.761719 124.296875 79.4375 124.296875 C 86.945312 124.296875 89.1875 118.972656 89.1875 116.519531 L 89.1875 116.429688 C 89.1875 114.484375 88.648438 113.019531 86.914062 110.925781 L 89.875 111.375 L 89.875 107.9375 L 79.109375 107.9375 C 75.460938 107.9375 69.75 110.777344 69.75 116.011719 C 69.75 116.160156 69.75 116.28125 69.75 116.429688 C 69.839844 118.882812 70.828125 120.945312 74.207031 123.039062 C 72.441406 124.503906 70.769531 126.390625 70.769531 128.09375 C 70.769531 128.304688 70.800781 128.511719 70.828125 128.691406 C 71.15625 130.277344 72.742188 131.171875 73.308594 131.351562 C 76.628906 132.398438 80.039062 131.679688 83.417969 133.265625 C 84.226562 133.625 84.855469 134.222656 85.003906 134.820312 C 85.003906 134.910156 85.003906 134.96875 85.003906 135.03125 C 85.003906 137.304688 80.875 138.082031 78.902344 138.082031 C 78.722656 138.082031 78.484375 138.050781 77.765625 138.023438 C 75.492188 137.902344 73.21875 137.304688 70.945312 136.617188 C 71.273438 137.695312 71.511719 138.679688 71.84375 139.699219 C 73.757812 140.328125 75.195312 140.65625 77.617188 140.894531 L 79.890625 140.953125 C 83.660156 140.953125 89.429688 139.605469 90.65625 134.820312 C 90.804688 134.222656 90.894531 133.5625 90.894531 132.875 C 90.949219 130.816406 89.902344 129.53125 88.347656 128.695312 Z M 75.847656 116.253906 C 75.847656 114.609375 76.207031 113.382812 76.566406 112.484375 C 77.164062 111.078125 78.359375 110.421875 79.46875 110.421875 C 82.398438 110.421875 83.085938 114.996094 83.085938 116.253906 C 83.085938 116.3125 83.085938 116.375 83.085938 116.433594 C 83.054688 117.71875 82.519531 119.84375 81.828125 120.769531 C 81.082031 121.785156 80.421875 121.875 79.554688 121.875 C 76.683594 121.875 75.875 118.136719 75.847656 116.433594 C 75.847656 116.34375 75.847656 116.3125 75.847656 116.253906 Z M 75.847656 116.253906 "/>
<path style=" stroke:none;fill-rule:nonzero;fill:rgb(0%,25.882353%,53.333333%);fill-opacity:1;" d="M 67.203125 116.433594 L 67.203125 130.398438 L 60.414062 130.398438 L 60.414062 117.058594 C 60.414062 116.847656 60.414062 116.640625 60.382812 116.429688 C 60.292969 115.234375 59.933594 113.886719 59.394531 113.140625 C 58.976562 112.542969 57.929688 112.125 57.300781 112.125 C 55.925781 112.125 54.519531 112.871094 53.382812 113.828125 L 53.386719 130.398438 L 46.65625 130.398438 L 46.65625 108.683594 L 53.386719 107.605469 L 53.386719 110.566406 C 56.496094 108.59375 58.082031 107.996094 60.804688 107.996094 C 64.453125 107.96875 67.203125 110.539062 67.203125 116.433594 Z M 67.203125 116.433594 "/>
<path style=" stroke:none;fill-rule:nonzero;fill:rgb(0%,25.882353%,53.333333%);fill-opacity:1;" d="M 43.039062 101.179688 C 43.039062 102.703125 41.753906 104.886719 39.210938 104.886719 C 37.148438 104.886719 35.382812 103.332031 35.382812 101.238281 C 35.382812 99.175781 36.820312 97.46875 39.269531 97.46875 C 41.511719 97.46875 43.039062 99.382812 43.039062 101.179688 Z M 43.039062 101.179688 "/>
<path style=" stroke:none;fill-rule:nonzero;fill:rgb(0%,25.882353%,53.333333%);fill-opacity:1;" d="M 42.589844 107.578125 L 42.589844 130.367188 L 35.859375 130.367188 L 35.859375 108.65625 Z M 42.589844 107.578125 "/>
<path style=" stroke:none;fill-rule:nonzero;fill:rgb(0%,25.882353%,53.333333%);fill-opacity:1;" d="M 8.074219 99.921875 L 14.683594 99.921875 L 14.683594 130.367188 L 8.074219 130.367188 Z M 8.074219 99.921875 "/>
<path style=" stroke:none;fill-rule:nonzero;fill:rgb(0%,25.882353%,53.333333%);fill-opacity:1;" d="M 33.886719 130.398438 L 25.421875 130.398438 L 24.285156 128.695312 L 15.941406 116.433594 L 14.714844 114.578125 L 26.945312 99.921875 L 32.957031 99.921875 L 21.445312 113.441406 L 23.628906 116.433594 L 32.660156 128.695312 Z M 33.886719 130.398438 "/>
</g>
</svg>
