<?xml version="1.0" encoding="utf-8"?>
<!-- Generator: Adobe Illustrator 22.1.0, SVG Export Plug-In . SVG Version: 6.00 Build 0)  -->
<svg version="1.1" id="layer" xmlns="http://www.w3.org/2000/svg" xmlns:xlink="http://www.w3.org/1999/xlink" x="0px" y="0px"
	 viewBox="0 0 652 652" style="enable-background:new 0 0 652 652;" xml:space="preserve">
<style type="text/css">
	.st0{fill:#C0995D;}
	.st1{fill:#004288;}
</style>
<g id="Home">
	<g id="global-home-20" transform="translate(-101.000000, -62.000000)">
		<g id="navbar" transform="translate(50.000000, 40.000000)">
			<g id="logo" transform="translate(51.000000, 22.000000)">
				<path id="Fill-1" class="st0" d="M405.2,224.5c-5.7-4.3-18.2-20.4-36.1-22.8c-18-2.4-45.7,7-50.8,7.8c-4.9,0.8-14.9-1.2-15-0.9
					c0,0.2,13.5,5.4,24.3,7.6c10.8,2.3,9.9-0.1,35.5,2.1c25.6,2.2,37.1,10.9,44.3,12.2c7.2,1.3,12.1,1.3,12.1,0.4
					S410.9,228.8,405.2,224.5z M369.3,195.2c-5.4-3.5-19.1-14-32.7-9.1c-13.5,4.9-22.6,12.8-28.9,14.7c-6.4,1.9-18.6,2.1-18.6,2.1
					s11.3,4.5,24.7,2.3c13.4-2.3,28.8-10.4,41.8-8.8c13.1,1.6,11.8,2.2,15.1,2.6c3.3,0.3,5.7,0.3,5.7-0.5
					C376.5,197.6,374.7,198.7,369.3,195.2z M317.9,180.5c-8-0.3-15.9,8.6-23.6,14c-7,5-18.6,6-20.3,6.1c1.8,0,15.1-0.1,24.6-2.3
					c10.2-2.4,21.2-11.5,26-13.9s10-0.9,10-1.5C334.6,182.2,325.9,180.9,317.9,180.5z M294.3,244.1l-1.9-7.3c-4-5.5-9.3-6.5-15-9.4
					l-0.8-1.9l5.8,0.1c0.2-1.1-0.3-2.6-0.7-3.3c-5.2,0-9.5-0.1-14.9-1.8c-6.8,2-10.4,5.4-14.3,10.4c2.2,0.5,4-0.4,6.3,0
					c11.8,1.4,20.4,7.2,28.6,14.8l0.4-1.7c-2.3-5.7-7.8-9.7-11.5-14C284.7,234.1,288.6,238.3,294.3,244.1z"/>
				<path class="st0" d="M380.4,344c-3-1.1-5.9-2.1-8.7-3.3c-7.7-4.5-2.7-9.5-8.4-14.8c2.4-0.6,2.4-5.5,2.4-5.8
					c-16.1,2.4-31.2,7.1-45,14.6c-9.6-9-23.9-13.6-36-19.1c-3.4-1.8-6.7-3.8-10-5.9c-6.5-4.1-12.6-8.6-18.2-13.7
					c-4.5-4.2-8.6-8.7-12-13.8l1.6,6.1c-5.7-2.4-11.9-4.7-18.3-6.1c-2.6-0.6-5.2-1-7.8-1.2c0.1,0.4,0.3,0.8,0.6,1.2
					c1.2,1.7,3.7,2.6,5.5,3c-1.5,1.4-2.6,1.2-4.8,0.7c-1.1-1.2-2.4-2.4-3.6-3.7c-2.3-2.4-4.1-5.1-3-8.7c3-6.3,11-2.8,16.6-2.2
					l1.3-0.9c-1.8-1.6-4.5-1.3-7-2c-0.9-0.2-1.9-0.6-2.7-1.2c-2.5-1.7-4.9-3.9-3.3-6.5c5.8-10.9,13.2,2.8,19.5,3
					c-2.3-2.8-5.7-5.8-7.3-9l0,0c0.9-1.5,3.8-1.5,6.1-1.6c0.9,0.5,1.9,1.1,2.9,1.6c7.7,4.4,15.3,9.4,23.1,13.7c3.3,1.8,6.6,3.5,10,5
					c5.3,2.2,9.2,6.9,14.4,8.7c0.5,0.2,1,0.3,1.5,0.4c14.4,0.2,27.9,7.1,40.2,11.4c-1-3.7-4.3-4.4-6.6-7.2c-1.5-1.5-2.9-3-4.2-4.7
					c-3.1-4.1-5.7-8.8-8-13.8c-2.1-4.5-4-9.2-5.8-13.7c-1.7-4-3.3-7.9-5.1-11.4c0,0,0.7,4.8,1.8,11.4c0.7,4.2,1.6,9,2.6,13.7
					c1.1,5.1,2.3,10,3.5,13.8c0.1,0.3,0.2,0.6,0.3,1c-0.3-0.3-0.5-0.6-0.7-1c-3.5-4.7-7.2-9.4-11.1-13.8c-4.6-5.1-9.6-9.7-15.2-13.7
					c-1.1-0.8-2.2-1.5-3.3-2.3c0,0,0.3,0.9,0.9,2.3c1.3,3,3.8,8.7,6,13.7c1.4,3,2.6,5.8,3.6,7.6l-0.6,0.4c-2.7-3.5-6.7-6.6-11.8-7.1
					c-2.3,1.1-4.2,0.3-6.1-0.9c-2.3-1.5-4.5-3.9-7.1-4.8l3.6-9l0,0c1.4-6.6-3.9-11.3-7-15.9l-9.7,4.9c-5.3-2.3-7.2-6.7-8.4-12.2
					l4.8-3.6c-0.2-1.8-3.5-2.5-5.1-3.4c6.3-2.7,12.1-5.5,18.3-7.6c8.2-3.5,19.2-0.6,26.7,4.5l0.3-1.3l-14.6-10
					c-4.2,0.8-8.3,3.7-12.3,3.4c3.4-10.8,13.1-12.7,13.1-12.7s13.3-3.6,17.3-7.7c4.4-4.6,13.2-10.3,13.2-10.8s-9.9-0.3-14.1,1
					c-6.9,2.6-10.2,12-19.3,17.3c-6.4,3.3-11.9,7.3-13.5,14.4l-21.3,8.2l-0.5,2.2c2.8,2.9,5.1,8.6,6.3,13.5
					c-0.2,1.1-1.7-0.4-2.3,0.1c-1.5-3.8-2.1-9.1-6.5-10.1l-0.3,1.7c2.3,2.8,3.3,5.9,4.3,9.6c3.2,4.2,10.2,3.9,13.8,8.1
					c1.6,1.9,2.8,4.1,3.2,6.5c0.2,1.1,0.1,2.2-0.1,3.4c-2.6-0.7-5.1-2.1-7.5-3.4c-5.7-3.2-11.2-6.7-17.5-3.6c-2.1,2.2-5,2.7-7.6,3.6
					c-1.9,0.7-3.7,1.6-4.8,3.5c-2.8,2.3-1.2,5.5-0.5,8c-1.2,1-2.1,1.6-2.8,2.2c-0.9,0.9-1.5,1.8-1.8,3.6c-1.5-1.3-2.9-2.5-4.3-3.6
					c-3.7-2.9-7.3-5.1-12.4-7.5c-7.6-3.6-13.4-2.1-17.8-0.1c-1.2,5.5-6.6,0.9-9.1,5c-0.6,0.9-1.2,1.8-1.6,2.7h4.2
					c0.2-0.3,0.3-0.6,0.4-0.9c1.2-0.3,1.6,0.1,1.7,0.9c0.2,1.7-1.1,5.2,0.1,7c0.1,2.3,0.7,4.8,2,6.8l0,0c-1.3,0.9-0.8,2.8-3.5,1.2
					c-0.6-0.4-1.2-0.8-1.6-1.2c-4.5-4.1-1.2-9.5,0.9-13.8h-4.2c-1.8,3.3-3,6.8-1.9,11c0.3,1,0.6,1.9,0.9,2.7
					c0.9,2.4,2.3,4.2,4.9,5.4c3.9,1.7,8,0.5,10.8-1.8c5.1,3,8.5,6.3,11.5,10.1c3.3,4.2,6,8.8,10.2,13.8c4.7,5.5,11.1,11.5,21.9,17.7
					c2.8,2.9,10.7,4,9.4,10.1c16.7-5.1,33.9-15.3,52.3-12.5c2.4-0.1,1.3-3.2,3.6-3.3c9.6,3.8,19.3,7,27.2,13.3
					c1.5,0.9,0.4,3.5,3.1,4.1l8.6-5.1c8.1,3.6,16.4,6.9,24.7,10C425,370.5,503.4,378,503.7,377C503.9,376,438,365,380.4,344z
					 M285.9,261.8c1.9,1.7,4,4,6,6.6c3.4,4.5,6.7,9.6,9.3,13.1l-6-1.8c-1.8-3.2-3.9-7.4-5.9-11.3C288,265.9,286.8,263.6,285.9,261.8
					z M257.4,254.7c0-0.1-0.1-0.3-0.2-0.4c0.2,0.1,0.4,0.3,0.6,0.4c1.9,1.7,1.5,4.2,2,6.5C254.7,262.3,258.1,257,257.4,254.7z
					 M229.7,285.2c5,1.4,3.5,0.4,6.6,1.9c-4.6,0.9-4.8,3.6-9.7,0.4C228.2,287,228.5,286.8,229.7,285.2z M180,278.8
					c-3.4-0.1-4.4-3.8-3.7-7.1c0.1-1.2,0.3-2.3,0.6-3.3c1.1-4,3.5-6.8,8.4-6.2c7.4,1.1,10.5,2.9,14.6,6.2c1.2,0.9,2.4,2,3.7,3.2
					c4.1,4.2,5,5.8,9.7,10.6c1.9,1.9,4.5,4.3,8,7.5c-4.5-2.9-8.5-5.3-12.5-7.5c-5.4-3.1-10.8-5.9-17.9-9.1c1.2-0.3,3.3,0.7,3.1-1.1
					c-3.5-2.5-7,0.3-9.6,2C183,275.4,182.9,278.9,180,278.8z M252.1,319c-7.1,3.3-20.7,5.4-18.6,3.8c1.8-1.5-11.7-6.5-19.8-12.5
					c-0.2-0.2-0.4-0.4-0.6-0.6c-5.4-5.4-10.4-10-14.7-13.7c-9.8-8.6-15.9-12.9-15.9-12.9s0.2-0.3,0.5-0.9c1.2-1.9,4.2-5.8,8.4-3.6
					c1.8,1,4,2.2,6.4,3.6c6.9,4,15.6,9.4,22.6,13.8c6.6,4,11.7,7.1,12.6,7.2c6.6,1,6.4-0.2,9.3-0.9c-0.5,2.1-1.7,2.8-4.2,3
					c2.9,1.2,5.7,1.2,8.8,0.1c4.1-1.8,4.6-3.6,5.8-7.5c0,0,7.8,6.4,14.8,11.7c0.9,0.6,1.7,1.3,2.5,1.9
					C259,311.9,258.4,317,252.1,319z"/>
				<path class="st0" d="M274.8,254.7c-0.2,1.4-0.5,2.9-1.1,4c-1.3,2.4-2.8,5.3-5,4.8l-1-1c1.8-2.1,3-4.9,3.6-7.8
					c0.4-1.9,0.6-3.9,0.5-5.8c1.3-0.9,2.2,0.5,3.2,1.3C274.9,250.2,275.1,252.3,274.8,254.7z"/>
				<path class="st0" d="M171.1,293.6c-4.5,1.5-8.6-1.1-11-5.2c-1.2-2.1-1.2-4.3-1.2-6.3c0-0.7,0.1-1.4,0-2.1
					c0.3-1.6,1.9-3.6,3.2-3.9c-0.2,2.3-0.3,4.2-0.1,6c0.2,1.4,0.6,2.7,1.4,4.1c1.8,3.1,6.3,4.6,10.4,3.5c1.4-0.3,1.2-1.1,2.2-0.3
					C176.6,292,173.4,292.9,171.1,293.6z"/>
				<path class="st0" d="M358.3,313.6c-14.7,4.5-37.6,17-37.6,17s-15.6-9.8-25-14.1c-4.6-2.1-9.2-4.3-13.6-6.9
					c-7.1-4-13.8-8.5-19.8-13.7c-4-3.5-7.6-7.2-10.8-11.2c0,0,7.4,5.3,17.4,11.2c8.5,5,18.9,10.5,28.2,13.7c2.7,0.9,5.4,1.7,7.9,2.1
					c7.2,1.5,14.6,0.6,20.7-1c0.2,4.7-3.4,6.4-7.3,8.4c4.5,0.4,10.2-1.8,13.8-5.1c1.2-1.3,2.1-2.8,2.7-4.5c1.6-4.3,1.5-9.5,1.2-13.7
					c5.4,4.3,12.1,9,17.7,13.7C355.5,311,357,312.2,358.3,313.6z"/>
				<path class="st0" d="M455.4,307.7c0,0.4-3.6,1.2-8.4,1.9c-7,1.1-16.8,2.2-21.9,2.1c-6.3-0.2-22.5,2-37.5-2.1
					c-5.4-1.5-10.7-3.8-15.3-7.3c-2.4-1.9-5.2-4.2-7.6-6.4c-0.2-0.1-0.3-0.3-0.4-0.4c-4.6-4.2-8.9-8.7-13-13.4
					c-4-4.5-7.7-9.2-11.1-13.8c-3.6-4.8-6.8-9.5-9.6-13.7c-6.9-10.5-11-18.3-11.5-19.2c0.5,0.5,8.4,9.4,17.8,19.2
					c4.5,4.7,9.3,9.5,13.7,13.7c4.8,4.5,9.1,8.3,12.3,10.5c1.6,1.1,3.5,2.2,5.4,3.3c8.3,4.7,19.1,9.5,28.7,13.4
					c0.3,0.1,0.6,0.2,0.9,0.3c5.1,2,10.5,4.1,14.2,5.4C424.7,305.6,455.4,306.8,455.4,307.7z"/>
				<path class="st0" d="M507.9,289.6c0,0.8-71,3.6-114.5-7.4c-6-1.5-11.5-3.3-16.2-5.4c-4.4-2-9.2-4.9-14-8.3
					c-5.7-4.1-11.5-8.9-16.9-13.7c-14.4-12.9-26.1-26.1-26.9-27c0.9,0.6,15.6,9.7,27.1,14.7c6.3,2.8,16.9,6.3,31.6,12.3
					c8.7,3.6,18.8,8,30.2,13.7c5.3,2.7,10.9,5.6,16.8,8.8c3.6,1.9,7.9,3.6,12.8,4.9C465.3,289.8,507.9,288.8,507.9,289.6z"/>
				<path class="st0" d="M457.4,264.9c0,0-8.3,3.8-29.8-0.9c-9.7-2.2-17.6-5.5-25.7-9.3c-9.7-4.6-19.7-9.7-33.3-14.1
					c-24.8-7.9-27.6-7.9-36.6-13c-8.4-4.8-13.7-8.5-14.3-9c0.9,0.3,10.8,3.9,18.2,4.9c7.7,1.1,59.3,7.1,78.4,17.5
					c9.1,4.9,14.8,9.9,19.1,13.7c2.9,2.5,5.2,4.5,7.6,5.6C446.9,263,457.4,263.7,457.4,264.9z"/>
				<path id="Fill-8" class="st1" d="M621.6,430.4l-0.1-0.2h-2.2l1,1.4h2.6v-0.5C622.3,431.2,621.9,430.9,621.6,430.4z M615.5,430.4
					L615.5,430.4l-1.9-0.1c-0.1,0.8-0.5,1-1.4,1v0.4h4.8v-0.5C616.4,431.2,615.5,431.1,615.5,430.4z M625.1,430.3
					c-1.5,2.8-4.4,4.7-7.8,4.7c-3.4,0-6.3-1.9-7.7-4.7h-1.1c1.5,3.3,4.9,5.7,8.8,5.7c3.9,0,7.4-2.3,8.9-5.7H625.1z M618.4,426.3
					c1.5-0.2,2.7-1.2,2.7-2.7c0-2.1-2-3-3.8-3c-1.6,0-3.3,0-5,0v0.5c1.2,0,1.2,0.3,1.2,1.4v7.8h1.9v-3.8h0.9l2.8,3.8h2.2
					L618.4,426.3z M615.5,425.9v-4.4c0.2,0,0.3,0,0.5,0c1.5,0,3.3,0.4,3.3,2.1C619.3,425.5,616.9,425.8,615.5,425.9z M621.6,430.4
					l-0.1-0.2l-3-4c1.5-0.2,2.7-1.2,2.7-2.7c0-2.1-2-3-3.8-3c-1.6,0-3.3,0-5,0v0.5c1.2,0,1.2,0.3,1.2,1.4v7.8c-0.1,0.8-0.5,1-1.4,1
					v0.4h4.8v-0.5c-0.6,0-1.5-0.1-1.5-0.9v-3.9h0.9l2.8,3.8l1,1.4h2.6V431C622.3,431.2,621.9,430.9,621.6,430.4z M615.5,425.9v-4.4
					c0.2,0,0.3,0,0.5,0c1.5,0,3.3,0.4,3.3,2.1C619.3,425.5,616.9,425.8,615.5,425.9z M621.6,430.4l-0.1-0.2l-3-4
					c1.5-0.2,2.7-1.2,2.7-2.7c0-2.1-2-3-3.8-3c-1.6,0-3.3,0-5,0v0.5c1.2,0,1.2,0.3,1.2,1.4v7.8c-0.1,0.8-0.5,1-1.4,1v0.4h4.8v-0.5
					c-0.6,0-1.5-0.1-1.5-0.9v-3.9h0.9l2.8,3.8l1,1.4h2.6V431C622.3,431.2,621.9,430.9,621.6,430.4z M615.5,425.9v-4.4
					c0.2,0,0.3,0,0.5,0c1.5,0,3.3,0.4,3.3,2.1C619.3,425.5,616.9,425.8,615.5,425.9z M621.6,430.4l-0.1-0.2l-3-4
					c1.5-0.2,2.7-1.2,2.7-2.7c0-2.1-2-3-3.8-3c-1.6,0-3.3,0-5,0v0.5c1.2,0,1.2,0.3,1.2,1.4v7.8c-0.1,0.8-0.5,1-1.4,1v0.4h4.8v-0.5
					c-0.6,0-1.5-0.1-1.5-0.9v-3.9h0.9l2.8,3.8l1,1.4h2.6V431C622.3,431.2,621.9,430.9,621.6,430.4z M615.5,425.9v-4.4
					c0.2,0,0.3,0,0.5,0c1.5,0,3.3,0.4,3.3,2.1C619.3,425.5,616.9,425.8,615.5,425.9z M621.6,430.4l-0.1-0.2l-3-4
					c1.5-0.2,2.7-1.2,2.7-2.7c0-2.1-2-3-3.8-3c-1.6,0-3.3,0-5,0v0.5c1.2,0,1.2,0.3,1.2,1.4v7.8c-0.1,0.8-0.5,1-1.4,1v0.4h4.8v-0.5
					c-0.6,0-1.5-0.1-1.5-0.9v-3.9h0.9l2.8,3.8l1,1.4h2.6V431C622.3,431.2,621.9,430.9,621.6,430.4z M615.5,425.9v-4.4
					c0.2,0,0.3,0,0.5,0c1.5,0,3.3,0.4,3.3,2.1C619.3,425.5,616.9,425.8,615.5,425.9z M621.6,430.4l-0.1-0.2l-3-4
					c1.5-0.2,2.7-1.2,2.7-2.7c0-2.1-2-3-3.8-3c-1.6,0-3.3,0-5,0v0.5c1.2,0,1.2,0.3,1.2,1.4v7.8c-0.1,0.8-0.5,1-1.4,1v0.4h4.8v-0.5
					c-0.6,0-1.5-0.1-1.5-0.9v-3.9h0.9l2.8,3.8l1,1.4h2.6V431C622.3,431.2,621.9,430.9,621.6,430.4z M615.5,425.9v-4.4
					c0.2,0,0.3,0,0.5,0c1.5,0,3.3,0.4,3.3,2.1C619.3,425.5,616.9,425.8,615.5,425.9z M621.6,430.4l-0.1-0.2l-3-4
					c1.5-0.2,2.7-1.2,2.7-2.7c0-2.1-2-3-3.8-3c-1.6,0-3.3,0-5,0v0.5c1.2,0,1.2,0.3,1.2,1.4v7.8c-0.1,0.8-0.5,1-1.4,1v0.4h4.8v-0.5
					c-0.6,0-1.5-0.1-1.5-0.9v-3.9h0.9l2.8,3.8l1,1.4h2.6V431C622.3,431.2,621.9,430.9,621.6,430.4z M615.5,425.9v-4.4
					c0.2,0,0.3,0,0.5,0c1.5,0,3.3,0.4,3.3,2.1C619.3,425.5,616.9,425.8,615.5,425.9z M621.6,430.4l-0.1-0.2l-3-4
					c1.5-0.2,2.7-1.2,2.7-2.7c0-2.1-2-3-3.8-3c-1.6,0-3.3,0-5,0v0.5c1.2,0,1.2,0.3,1.2,1.4v7.8c-0.1,0.8-0.5,1-1.4,1v0.4h4.8v-0.5
					c-0.6,0-1.5-0.1-1.5-0.9v-3.9h0.9l2.8,3.8l1,1.4h2.6V431C622.3,431.2,621.9,430.9,621.6,430.4z M615.5,425.9v-4.4
					c0.2,0,0.3,0,0.5,0c1.5,0,3.3,0.4,3.3,2.1C619.3,425.5,616.9,425.8,615.5,425.9z M621.6,430.4l-0.1-0.2l-3-4
					c1.5-0.2,2.7-1.2,2.7-2.7c0-2.1-2-3-3.8-3c-1.6,0-3.3,0-5,0v0.5c1.2,0,1.2,0.3,1.2,1.4v7.8c-0.1,0.8-0.5,1-1.4,1v0.4h4.8v-0.5
					c-0.6,0-1.5-0.1-1.5-0.9v-3.9h0.9l2.8,3.8l1,1.4h2.6V431C622.3,431.2,621.9,430.9,621.6,430.4z M615.5,425.9v-4.4
					c0.2,0,0.3,0,0.5,0c1.5,0,3.3,0.4,3.3,2.1C619.3,425.5,616.9,425.8,615.5,425.9z M621.6,430.4l-0.1-0.2l-3-4
					c1.5-0.2,2.7-1.2,2.7-2.7c0-2.1-2-3-3.8-3c-1.6,0-3.3,0-5,0v0.5c1.2,0,1.2,0.3,1.2,1.4v7.8c-0.1,0.8-0.5,1-1.4,1v0.4h4.8v-0.5
					c-0.6,0-1.5-0.1-1.5-0.9v-3.9h0.9l2.8,3.8l1,1.4h2.6V431C622.3,431.2,621.9,430.9,621.6,430.4z M615.5,425.9v-4.4
					c0.2,0,0.3,0,0.5,0c1.5,0,3.3,0.4,3.3,2.1C619.3,425.5,616.9,425.8,615.5,425.9z M617.3,416.8c-5.4,0-9.7,4.3-9.7,9.6
					c0,1.4,0.3,2.7,0.9,3.9h1.1c-0.6-1.2-1-2.5-1-3.9c0-4.7,3.9-8.6,8.7-8.6s8.7,3.9,8.7,8.6c0,1.4-0.3,2.7-0.9,3.9h1.1
					c0.6-1.2,0.9-2.5,0.9-3.9C627,421.1,622.6,416.8,617.3,416.8z M621.4,430.3l-3-4c1.5-0.2,2.7-1.2,2.7-2.7c0-2.1-2-3-3.8-3
					c-1.6,0-3.3,0-5,0v0.5c1.2,0,1.2,0.3,1.2,1.4v7.8c-0.1,0.8-0.5,1-1.4,1v0.4h4.8v-0.5c-0.6,0-1.5-0.1-1.5-0.9v-3.9h0.9l2.8,3.8
					l1,1.4h2.6v-0.5C622.1,431.1,621.7,430.8,621.4,430.3L621.4,430.3z M615.5,425.9v-4.4c0.2,0,0.3,0,0.5,0c1.5,0,3.3,0.4,3.3,2.1
					C619.3,425.5,616.9,425.8,615.5,425.9z M621.6,430.4l-0.1-0.2l-3-4c1.5-0.2,2.7-1.2,2.7-2.7c0-2.1-2-3-3.8-3c-1.6,0-3.3,0-5,0
					v0.5c1.2,0,1.2,0.3,1.2,1.4v7.8c-0.1,0.8-0.5,1-1.4,1v0.4h4.8v-0.5c-0.6,0-1.5-0.1-1.5-0.9v-3.9h0.9l2.8,3.8l1,1.4h2.6V431
					C622.3,431.2,621.9,430.9,621.6,430.4z M615.5,425.9v-4.4c0.2,0,0.3,0,0.5,0c1.5,0,3.3,0.4,3.3,2.1
					C619.3,425.5,616.9,425.8,615.5,425.9z M621.6,430.4l-0.1-0.2l-3-4c1.5-0.2,2.7-1.2,2.7-2.7c0-2.1-2-3-3.8-3c-1.6,0-3.3,0-5,0
					v0.5c1.2,0,1.2,0.3,1.2,1.4v7.8c-0.1,0.8-0.5,1-1.4,1v0.4h4.8v-0.5c-0.6,0-1.5-0.1-1.5-0.9v-3.9h0.9l2.8,3.8l1,1.4h2.6V431
					C622.3,431.2,621.9,430.9,621.6,430.4z M615.5,425.9v-4.4c0.2,0,0.3,0,0.5,0c1.5,0,3.3,0.4,3.3,2.1
					C619.3,425.5,616.9,425.8,615.5,425.9z M621.6,430.4l-0.1-0.2l-3-4c1.5-0.2,2.7-1.2,2.7-2.7c0-2.1-2-3-3.8-3c-1.6,0-3.3,0-5,0
					v0.5c1.2,0,1.2,0.3,1.2,1.4v7.8c-0.1,0.8-0.5,1-1.4,1v0.4h4.8v-0.5c-0.6,0-1.5-0.1-1.5-0.9v-3.9h0.9l2.8,3.8l1,1.4h2.6V431
					C622.3,431.2,621.9,430.9,621.6,430.4z M615.5,425.9v-4.4c0.2,0,0.3,0,0.5,0c1.5,0,3.3,0.4,3.3,2.1
					C619.3,425.5,616.9,425.8,615.5,425.9z M621.6,430.4l-0.1-0.2l-3-4c1.5-0.2,2.7-1.2,2.7-2.7c0-2.1-2-3-3.8-3c-1.6,0-3.3,0-5,0
					v0.5c1.2,0,1.2,0.3,1.2,1.4v7.8c-0.1,0.8-0.5,1-1.4,1v0.4h4.8v-0.5c-0.6,0-1.5-0.1-1.5-0.9v-3.9h0.9l2.8,3.8l1,1.4h2.6V431
					C622.3,431.2,621.9,430.9,621.6,430.4z M615.5,425.9v-4.4c0.2,0,0.3,0,0.5,0c1.5,0,3.3,0.4,3.3,2.1
					C619.3,425.5,616.9,425.8,615.5,425.9z M621.6,430.4l-0.1-0.2l-3-4c1.5-0.2,2.7-1.2,2.7-2.7c0-2.1-2-3-3.8-3c-1.6,0-3.3,0-5,0
					v0.5c1.2,0,1.2,0.3,1.2,1.4v7.8c-0.1,0.8-0.5,1-1.4,1v0.4h4.8v-0.5c-0.6,0-1.5-0.1-1.5-0.9v-3.9h0.9l2.8,3.8l1,1.4h2.6V431
					C622.3,431.2,621.9,430.9,621.6,430.4z M615.5,425.9v-4.4c0.2,0,0.3,0,0.5,0c1.5,0,3.3,0.4,3.3,2.1
					C619.3,425.5,616.9,425.8,615.5,425.9z M621.6,430.4l-0.1-0.2l-3-4c1.5-0.2,2.7-1.2,2.7-2.7c0-2.1-2-3-3.8-3c-1.6,0-3.3,0-5,0
					v0.5c1.2,0,1.2,0.3,1.2,1.4v7.8c-0.1,0.8-0.5,1-1.4,1v0.4h4.8v-0.5c-0.6,0-1.5-0.1-1.5-0.9v-3.9h0.9l2.8,3.8l1,1.4h2.6V431
					C622.3,431.2,621.9,430.9,621.6,430.4z M615.5,425.9v-4.4c0.2,0,0.3,0,0.5,0c1.5,0,3.3,0.4,3.3,2.1
					C619.3,425.5,616.9,425.8,615.5,425.9z M621.6,430.4l-0.1-0.2l-3-4c1.5-0.2,2.7-1.2,2.7-2.7c0-2.1-2-3-3.8-3c-1.6,0-3.3,0-5,0
					v0.5c1.2,0,1.2,0.3,1.2,1.4v7.8c-0.1,0.8-0.5,1-1.4,1v0.4h4.8v-0.5c-0.6,0-1.5-0.1-1.5-0.9v-3.9h0.9l2.8,3.8l1,1.4h2.6V431
					C622.3,431.2,621.9,430.9,621.6,430.4z M615.5,425.9v-4.4c0.2,0,0.3,0,0.5,0c1.5,0,3.3,0.4,3.3,2.1
					C619.3,425.5,616.9,425.8,615.5,425.9z M621.6,430.4l-0.1-0.2l-3-4c1.5-0.2,2.7-1.2,2.7-2.7c0-2.1-2-3-3.8-3c-1.6,0-3.3,0-5,0
					v0.5c1.2,0,1.2,0.3,1.2,1.4v7.8c-0.1,0.8-0.5,1-1.4,1v0.4h4.8v-0.5c-0.6,0-1.5-0.1-1.5-0.9v-3.9h0.9l2.8,3.8l1,1.4h2.6V431
					C622.3,431.2,621.9,430.9,621.6,430.4z M615.5,425.9v-4.4c0.2,0,0.3,0,0.5,0c1.5,0,3.3,0.4,3.3,2.1
					C619.3,425.5,616.9,425.8,615.5,425.9z"/>
				<path class="st1" d="M599.7,389.3V436H577v-44.6c0-0.8,0-1.5,0-2.1c-0.2-5.3-1.4-8.4-3.3-11c-1.4-2-4.9-3.4-6.9-3.4
					c-4.6,0-9.3,2.5-13.2,5.7V436H531v-72.6l22.4-3.6v9.9c10.5-6.6,15.7-8.6,24.8-8.6C590.5,361,599.7,369.6,599.7,389.3z"/>
				<path class="st1" d="M525.7,435.9h-22.1c-4.6,0-6.6-1.4-7.1-5.7c-0.1-0.8-0.1-1.7-0.1-2.7v-28.1h-1.8c-2.6,0-17.5,3.3-17.5,17.5
					c0,2.3,0.9,8.1,4.4,9.3c1.2,0.4,3.7,0.5,4.2,0.5c3,0,6-0.9,9.3-1.9c-0.3,1.2-0.6,3.4-0.9,5.4c-0.2,1.7-0.4,3.3-0.6,4.4
					c-4.2,1.4-7.8,2.8-12.2,3.3c-2.6,0.2-3.9,0.2-4.5,0.2c-7.4,0-14.9-2.4-19.2-7.8c-2.3-2.9-3.7-6.8-3.7-11.6
					c0-24.6,42.5-28.4,42.5-28.4v-6.4c0-2.5-0.6-12.7-13.5-12.7c-7.1,0-19.5,2.8-23.1,4.2l1.3-9.8c2.6-0.9,14.4-4.5,18.6-5
					c20.7-2.5,31.2,5.3,34.6,9.7c3,3.9,4.9,10.5,4.9,15.3V426c0,1.5,0.3,2.9,0.9,4.2C521.2,433.1,523.3,435.4,525.7,435.9z"/>
				<path class="st1" d="M448.8,395.8c0,13.9-4.9,26.8-14.4,34.5c-5,4.1-11.2,6.7-18.6,7.3c-2.6,0.2-4,0.2-4.5,0.2
					c-3.2,0-6.1-0.6-10.5-2.1c-0.3-1-0.8-3.4-1.2-5.4c-0.4-2.1-0.7-3.9-0.7-3.9c2.9,1.2,5.9,2.2,9,2.2c10.8,0,17.2-9.7,17.2-29.7
					c0-2.3-0.3-5.9-1-9.6c-1.1-5.8-3.4-12-7.5-14.4c-1.8-1-4.7-2.3-6.6-2.3c-3.9,0-8.8,1.5-12.7,4.3v53.3v20.5v19.8h-22.6V363.2
					l22.7-3.4v6.9c5.7-3.2,12.6-5.5,18.3-6c2.6-0.3,3.7-0.3,4.2-0.3c6.7,0,14.1,2.2,20.7,9.5c1.2,1.4,2.2,3.2,3,4.7
					c2.5,4.8,4.2,9.8,4.8,14.7c0,0.7,0.1,1.3,0.1,2C448.7,394.1,448.8,395.2,448.8,395.8z"/>
				<path class="st1" d="M365.4,413.3c0,5.1-1.5,11.9-7.2,17c-4.8,4.3-12.8,7.5-25.6,7.5c-11.3,0-21.6-3.9-22.3-4.2
					c-0.3-1.1-0.6-2.2-0.9-3.3c-0.6-2.3-1.1-4.7-1.8-7.1c3.8,1.3,11.7,5.1,21.9,5.1c8.8,0,14.7-4.6,14.7-10.2c0-2.7-1.6-5.9-5.2-8
					c-9-5.2-19-7.1-27.5-16.3c-1.2-1.3-2-2.9-2.6-4.6c-0.7-2.2-1-4.4-1-6.1c0-13,12-22.6,30.4-22.6c10.6,0,18.5,4.2,18.5,4.2
					s2.1,7.3,2.9,10.8c-6.9-3.3-12.8-5.4-19.2-5.4c-3.6,0-11.6,1.2-11.6,8.3c0,4.6,6.2,7.5,13.5,10.8
					C352.9,394,365.4,399.8,365.4,413.3z"/>
				<path class="st1" d="M295.4,430.3c-14.2-7.6-40.9-3.4-40.9-9.1c0-1.5,2.1-5.3,2.7-6.5c2.4,0.4,2.8,0.9,8.4,0.9
					c25.1,0,32.6-17.8,32.6-26v-0.3c0-6.5-1.8-11.4-7.6-18.4l9.9,1.5v-11.5h-36c-12.2,0-31.3,9.5-31.3,27c0,0.5,0,0.9,0,1.4
					c0.3,8.2,3.6,15.1,14.9,22.1c-5.9,4.9-11.5,11.2-11.5,16.9c0,0.7,0.1,1.4,0.2,2c1.1,5.3,6.4,8.3,8.3,8.9
					c11.1,3.5,22.5,1.1,33.8,6.4c2.7,1.2,4.8,3.2,5.3,5.2c0,0.3,0,0.5,0,0.7c0,7.6-13.8,10.2-20.4,10.2c-0.6,0-1.4-0.1-3.8-0.2
					c-7.6-0.4-15.2-2.4-22.8-4.7c1.1,3.6,1.9,6.9,3,10.3c6.4,2.1,11.2,3.2,19.3,4l7.6,0.2c12.6,0,31.9-4.5,36-20.5
					c0.5-2,0.8-4.2,0.8-6.5C304.1,437.4,300.6,433.1,295.4,430.3z M253.6,388.7c0-5.5,1.2-9.6,2.4-12.6c2-4.7,6-6.9,9.7-6.9
					c9.8,0,12.1,15.3,12.1,19.5c0,0.2,0,0.4,0,0.6c-0.1,4.3-1.9,11.4-4.2,14.5c-2.5,3.4-4.7,3.7-7.6,3.7c-9.6,0-12.3-12.5-12.4-18.2
					C253.6,389,253.6,388.9,253.6,388.7z"/>
				<path class="st1" d="M224.7,389.3V436H202v-44.6c0-0.7,0-1.4-0.1-2.1c-0.3-4-1.5-8.5-3.3-11c-1.4-2-4.9-3.4-7-3.4
					c-4.6,0-9.3,2.5-13.1,5.7V436H156v-72.6l22.5-3.6v9.9c10.4-6.6,15.7-8.6,24.8-8.6C215.5,361,224.7,369.6,224.7,389.3z"/>
				<path class="st1" d="M143.9,338.3c0,5.1-4.3,12.4-12.8,12.4c-6.9,0-12.8-5.2-12.8-12.2c0-6.9,4.8-12.6,13-12.6
					C138.8,325.9,143.9,332.3,143.9,338.3z"/>
				<polygon class="st1" points="142.4,359.7 142.4,435.9 119.9,435.9 119.9,363.3 				"/>
				<rect x="27" y="334.1" class="st1" width="22.1" height="101.8"/>
				<polygon class="st1" points="113.3,436 85,436 81.2,430.3 53.3,389.3 49.2,383.1 90.1,334.1 110.2,334.1 71.7,379.3 79,389.3 
					109.2,430.3 				"/>
			</g>
		</g>
	</g>
</g>
</svg>
