<?xml version="1.0" encoding="UTF-8"?>
<svg xmlns="http://www.w3.org/2000/svg" xmlns:xlink="http://www.w3.org/1999/xlink" width="262.5pt" height="165pt" viewBox="0 0 262.5 165" version="1.1">
<g id="surface39">
<path style=" stroke:none;fill-rule:nonzero;fill:rgb(75.294118%,60%,36.470588%);fill-opacity:1;" d="M 151.292969 56.8125 C 149.851562 55.722656 146.6875 51.648438 142.15625 51.042969 C 137.601562 50.4375 130.589844 52.8125 129.300781 53.015625 C 128.0625 53.21875 125.53125 52.710938 125.503906 52.789062 C 125.503906 52.839844 128.921875 54.15625 131.652344 54.710938 C 134.386719 55.292969 134.15625 54.6875 140.636719 55.242188 C 147.117188 55.800781 150.027344 58 151.847656 58.328125 C 153.667969 58.65625 154.910156 58.65625 154.910156 58.429688 C 154.910156 58.207031 152.734375 57.902344 151.292969 56.8125 Z M 142.207031 49.398438 C 140.839844 48.511719 137.375 45.855469 133.933594 47.09375 C 130.515625 48.332031 128.214844 50.332031 126.621094 50.8125 C 125 51.292969 121.914062 51.34375 121.914062 51.34375 C 121.914062 51.34375 124.773438 52.484375 128.164062 51.925781 C 131.554688 51.34375 135.453125 49.292969 138.742188 49.699219 C 142.058594 50.105469 141.726562 50.257812 142.5625 50.355469 C 143.398438 50.429688 144.003906 50.429688 144.003906 50.230469 C 144.03125 50.007812 143.574219 50.285156 142.207031 49.398438 Z M 129.199219 45.679688 C 127.175781 45.605469 125.175781 47.855469 123.226562 49.222656 C 121.457031 50.488281 118.519531 50.742188 118.089844 50.765625 C 118.546875 50.765625 121.910156 50.742188 124.316406 50.183594 C 126.898438 49.578125 129.679688 47.273438 130.894531 46.664062 C 132.109375 46.058594 133.425781 46.4375 133.425781 46.285156 C 133.425781 46.109375 131.226562 45.78125 129.199219 45.679688 Z M 123.226562 61.773438 L 122.746094 59.925781 C 121.734375 58.535156 120.390625 58.28125 118.949219 57.546875 L 118.746094 57.066406 L 120.214844 57.089844 C 120.265625 56.8125 120.140625 56.433594 120.039062 56.253906 C 118.722656 56.253906 117.636719 56.230469 116.269531 55.796875 C 114.546875 56.304688 113.636719 57.164062 112.652344 58.429688 C 113.210938 58.554688 113.664062 58.328125 114.246094 58.429688 C 117.230469 58.785156 119.410156 60.25 121.484375 62.175781 L 121.585938 61.746094 C 121.003906 60.304688 119.613281 59.292969 118.675781 58.203125 C 120.796875 59.242188 121.785156 60.304688 123.226562 61.773438 Z M 123.226562 61.773438 "/>
<path style=" stroke:none;fill-rule:nonzero;fill:rgb(75.294118%,60%,36.470588%);fill-opacity:1;" d="M 145.015625 87.054688 C 144.257812 86.777344 143.523438 86.523438 142.8125 86.21875 C 140.863281 85.078125 142.128906 83.816406 140.6875 82.472656 C 141.292969 82.320312 141.292969 81.082031 141.292969 81.003906 C 137.21875 81.609375 133.398438 82.800781 129.90625 84.699219 C 127.476562 82.421875 123.859375 81.257812 120.796875 79.867188 C 119.9375 79.410156 119.101562 78.90625 118.265625 78.375 C 116.621094 77.335938 115.078125 76.199219 113.660156 74.90625 C 112.519531 73.84375 111.484375 72.703125 110.625 71.414062 L 111.03125 72.957031 C 109.589844 72.351562 108.019531 71.769531 106.398438 71.414062 C 105.742188 71.261719 105.082031 71.160156 104.425781 71.109375 C 104.449219 71.210938 104.5 71.3125 104.578125 71.414062 C 104.882812 71.84375 105.515625 72.070312 105.96875 72.171875 C 105.589844 72.527344 105.3125 72.476562 104.753906 72.347656 C 104.476562 72.042969 104.148438 71.742188 103.84375 71.410156 C 103.261719 70.804688 102.804688 70.121094 103.085938 69.207031 C 103.84375 67.613281 105.871094 68.5 107.285156 68.648438 L 107.613281 68.421875 C 107.15625 68.015625 106.472656 68.09375 105.84375 67.914062 C 105.617188 67.863281 105.363281 67.761719 105.160156 67.609375 C 104.527344 67.179688 103.921875 66.621094 104.324219 65.964844 C 105.792969 63.207031 107.664062 66.671875 109.257812 66.722656 C 108.675781 66.015625 107.816406 65.253906 107.410156 64.445312 C 107.636719 64.066406 108.371094 64.066406 108.953125 64.039062 C 109.179688 64.164062 109.433594 64.316406 109.6875 64.445312 C 111.636719 65.558594 113.558594 66.824219 115.535156 67.914062 C 116.371094 68.371094 117.207031 68.800781 118.066406 69.179688 C 119.40625 69.738281 120.394531 70.925781 121.710938 71.382812 C 121.835938 71.433594 121.964844 71.457031 122.089844 71.484375 C 125.734375 71.535156 129.152344 73.28125 132.261719 74.371094 C 132.007812 73.433594 131.171875 73.257812 130.589844 72.550781 C 130.210938 72.171875 129.855469 71.792969 129.527344 71.363281 C 128.742188 70.324219 128.085938 69.136719 127.503906 67.871094 C 126.972656 66.730469 126.492188 65.542969 126.035156 64.402344 C 125.605469 63.390625 125.199219 62.402344 124.746094 61.515625 C 124.746094 61.515625 124.921875 62.730469 125.203125 64.402344 C 125.378906 65.464844 125.609375 66.679688 125.859375 67.871094 C 126.136719 69.160156 126.441406 70.402344 126.746094 71.363281 C 126.769531 71.4375 126.796875 71.515625 126.820312 71.617188 C 126.746094 71.542969 126.695312 71.464844 126.644531 71.363281 C 125.757812 70.175781 124.824219 68.984375 123.835938 67.871094 C 122.671875 66.582031 121.40625 65.417969 119.988281 64.402344 C 119.710938 64.199219 119.429688 64.023438 119.152344 63.820312 C 119.152344 63.820312 119.226562 64.046875 119.378906 64.402344 C 119.707031 65.160156 120.339844 66.605469 120.898438 67.871094 C 121.253906 68.628906 121.554688 69.339844 121.808594 69.792969 L 121.65625 69.894531 C 120.972656 69.007812 119.960938 68.222656 118.671875 68.097656 C 118.089844 68.375 117.609375 68.171875 117.128906 67.871094 C 116.546875 67.492188 115.988281 66.882812 115.332031 66.65625 L 116.242188 64.378906 C 116.597656 62.707031 115.253906 61.519531 114.472656 60.355469 L 112.019531 61.59375 C 110.679688 61.011719 110.199219 59.898438 109.894531 58.507812 L 111.109375 57.597656 C 111.058594 57.140625 110.222656 56.964844 109.820312 56.738281 C 111.414062 56.054688 112.882812 55.347656 114.453125 54.816406 C 116.527344 53.929688 119.3125 54.664062 121.210938 55.957031 L 121.285156 55.628906 L 117.589844 53.097656 C 116.527344 53.300781 115.488281 54.035156 114.476562 53.957031 C 115.335938 51.222656 117.792969 50.742188 117.792969 50.742188 C 117.792969 50.742188 121.160156 49.832031 122.171875 48.792969 C 123.285156 47.628906 125.511719 46.1875 125.511719 46.058594 C 125.511719 45.933594 123.007812 45.984375 121.945312 46.3125 C 120.199219 46.96875 119.363281 49.347656 117.0625 50.691406 C 115.441406 51.527344 114.050781 52.539062 113.644531 54.335938 L 108.253906 56.410156 L 108.128906 56.96875 C 108.835938 57.703125 109.417969 59.144531 109.722656 60.386719 C 109.671875 60.664062 109.292969 60.285156 109.140625 60.410156 C 108.761719 59.449219 108.609375 58.105469 107.496094 57.855469 L 107.421875 58.285156 C 108.003906 58.992188 108.257812 59.777344 108.511719 60.714844 C 109.320312 61.777344 111.09375 61.703125 112.003906 62.765625 C 112.410156 63.246094 112.710938 63.804688 112.8125 64.410156 C 112.863281 64.6875 112.835938 64.96875 112.789062 65.269531 C 112.132812 65.09375 111.5 64.738281 110.890625 64.410156 C 109.449219 63.601562 108.054688 62.714844 106.460938 63.5 C 105.929688 64.058594 105.195312 64.183594 104.539062 64.410156 C 104.058594 64.585938 103.601562 64.816406 103.324219 65.296875 C 102.617188 65.878906 103.019531 66.6875 103.199219 67.320312 C 102.894531 67.574219 102.667969 67.726562 102.492188 67.878906 C 102.265625 68.105469 102.113281 68.335938 102.035156 68.789062 C 101.65625 68.460938 101.300781 68.15625 100.945312 67.878906 C 100.007812 67.144531 99.097656 66.589844 97.808594 65.980469 C 95.886719 65.070312 94.417969 65.449219 93.304688 65.957031 C 93 67.347656 91.632812 66.183594 91 67.222656 C 90.847656 67.449219 90.695312 67.679688 90.59375 67.90625 L 91.65625 67.90625 C 91.707031 67.832031 91.730469 67.753906 91.757812 67.679688 C 92.0625 67.605469 92.164062 67.703125 92.1875 67.90625 C 92.238281 68.335938 91.910156 69.222656 92.210938 69.675781 C 92.234375 70.257812 92.386719 70.890625 92.71875 71.398438 C 92.390625 71.625 92.515625 72.105469 91.832031 71.703125 C 91.679688 71.601562 91.527344 71.5 91.425781 71.398438 C 90.285156 70.359375 91.121094 68.996094 91.652344 67.90625 L 90.589844 67.90625 C 90.132812 68.742188 89.832031 69.628906 90.109375 70.691406 C 90.183594 70.945312 90.261719 71.171875 90.335938 71.375 C 90.5625 71.980469 90.917969 72.4375 91.574219 72.742188 C 92.5625 73.171875 93.597656 72.867188 94.308594 72.285156 C 95.597656 73.042969 96.460938 73.878906 97.21875 74.839844 C 98.054688 75.902344 98.738281 77.066406 99.800781 78.332031 C 100.988281 79.722656 102.609375 81.242188 105.34375 82.8125 C 106.050781 83.546875 108.050781 83.824219 107.722656 85.367188 C 111.949219 84.078125 116.300781 81.496094 120.957031 82.203125 C 121.5625 82.179688 121.285156 81.394531 121.867188 81.367188 C 124.296875 82.328125 126.75 83.136719 128.75 84.734375 C 129.128906 84.960938 128.851562 85.621094 129.535156 85.773438 L 131.710938 84.484375 C 133.761719 85.394531 135.859375 86.230469 137.960938 87.015625 C 156.304688 93.761719 176.144531 95.660156 176.21875 95.40625 C 176.269531 95.152344 159.59375 92.371094 145.015625 87.054688 Z M 121.101562 66.253906 C 121.582031 66.683594 122.113281 67.265625 122.621094 67.925781 C 123.480469 69.066406 124.316406 70.355469 124.976562 71.242188 L 123.457031 70.785156 C 123 69.976562 122.46875 68.914062 121.964844 67.925781 C 121.632812 67.289062 121.328125 66.707031 121.101562 66.253906 Z M 113.890625 64.457031 C 113.890625 64.433594 113.867188 64.382812 113.839844 64.355469 C 113.890625 64.378906 113.941406 64.429688 113.992188 64.457031 C 114.472656 64.886719 114.371094 65.519531 114.5 66.101562 C 113.207031 66.378906 114.066406 65.039062 113.890625 64.457031 Z M 106.878906 72.175781 C 108.144531 72.53125 107.765625 72.277344 108.550781 72.65625 C 107.386719 72.882812 107.335938 73.566406 106.097656 72.757812 C 106.5 72.628906 106.574219 72.578125 106.878906 72.175781 Z M 94.300781 70.554688 C 93.441406 70.53125 93.1875 69.59375 93.363281 68.757812 C 93.386719 68.453125 93.4375 68.175781 93.515625 67.921875 C 93.792969 66.910156 94.402344 66.199219 95.640625 66.351562 C 97.511719 66.628906 98.296875 67.085938 99.335938 67.921875 C 99.640625 68.148438 99.941406 68.429688 100.273438 68.730469 C 101.3125 69.792969 101.539062 70.199219 102.726562 71.414062 C 103.207031 71.894531 103.867188 72.503906 104.75 73.3125 C 103.609375 72.578125 102.597656 71.972656 101.585938 71.414062 C 100.21875 70.628906 98.851562 69.921875 97.054688 69.109375 C 97.359375 69.035156 97.890625 69.285156 97.839844 68.832031 C 96.953125 68.199219 96.070312 68.90625 95.410156 69.339844 C 95.0625 69.695312 95.035156 70.582031 94.300781 70.554688 Z M 112.546875 80.730469 C 110.75 81.566406 107.308594 82.097656 107.839844 81.691406 C 108.296875 81.3125 104.878906 80.046875 102.828125 78.527344 C 102.777344 78.476562 102.726562 78.425781 102.675781 78.375 C 101.308594 77.007812 100.042969 75.84375 98.957031 74.90625 C 96.476562 72.730469 94.933594 71.640625 94.933594 71.640625 C 94.933594 71.640625 94.984375 71.566406 95.058594 71.414062 C 95.363281 70.933594 96.121094 69.945312 97.183594 70.503906 C 97.640625 70.757812 98.195312 71.0625 98.804688 71.414062 C 100.550781 72.425781 102.753906 73.792969 104.523438 74.90625 C 106.195312 75.917969 107.484375 76.703125 107.710938 76.726562 C 109.382812 76.980469 109.332031 76.675781 110.066406 76.5 C 109.941406 77.03125 109.636719 77.207031 109.003906 77.257812 C 109.738281 77.5625 110.445312 77.5625 111.230469 77.28125 C 112.269531 76.824219 112.394531 76.371094 112.699219 75.382812 C 112.699219 75.382812 114.671875 77.003906 116.445312 78.34375 C 116.671875 78.496094 116.875 78.671875 117.078125 78.824219 C 114.292969 78.933594 114.144531 80.222656 112.546875 80.730469 Z M 112.546875 80.730469 "/>
<path style=" stroke:none;fill-rule:nonzero;fill:rgb(75.294118%,60%,36.470588%);fill-opacity:1;" d="M 118.292969 64.457031 C 118.242188 64.8125 118.167969 65.191406 118.015625 65.46875 C 117.6875 66.074219 117.308594 66.808594 116.75 66.683594 L 116.496094 66.429688 C 116.953125 65.898438 117.253906 65.191406 117.40625 64.457031 C 117.507812 63.976562 117.558594 63.46875 117.53125 62.988281 C 117.859375 62.761719 118.089844 63.113281 118.339844 63.316406 C 118.316406 63.316406 118.367188 63.847656 118.292969 64.457031 Z M 118.292969 64.457031 "/>
<path style=" stroke:none;fill-rule:nonzero;fill:rgb(75.294118%,60%,36.470588%);fill-opacity:1;" d="M 92.050781 74.300781 C 90.910156 74.679688 89.875 74.023438 89.265625 72.984375 C 88.960938 72.453125 88.960938 71.894531 88.960938 71.390625 C 88.960938 71.214844 88.984375 71.035156 88.960938 70.859375 C 89.035156 70.453125 89.441406 69.949219 89.769531 69.871094 C 89.71875 70.453125 89.695312 70.933594 89.746094 71.390625 C 89.796875 71.746094 89.898438 72.074219 90.101562 72.429688 C 90.558594 73.214844 91.695312 73.59375 92.734375 73.316406 C 93.089844 73.242188 93.039062 73.039062 93.292969 73.242188 C 93.441406 73.894531 92.632812 74.125 92.050781 74.300781 Z M 92.050781 74.300781 "/>
<path style=" stroke:none;fill-rule:nonzero;fill:rgb(75.294118%,60%,36.470588%);fill-opacity:1;" d="M 139.425781 79.363281 C 135.707031 80.503906 129.910156 83.664062 129.910156 83.664062 C 129.910156 83.664062 125.960938 81.183594 123.582031 80.097656 C 122.417969 79.566406 121.253906 79.007812 120.140625 78.351562 C 118.34375 77.339844 116.648438 76.199219 115.128906 74.882812 C 114.117188 73.996094 113.207031 73.0625 112.394531 72.046875 C 112.394531 72.046875 114.265625 73.386719 116.796875 74.882812 C 118.949219 76.148438 121.578125 77.539062 123.933594 78.351562 C 124.617188 78.578125 125.300781 78.78125 125.933594 78.882812 C 127.753906 79.261719 129.628906 79.035156 131.171875 78.628906 C 131.222656 79.816406 130.3125 80.25 129.324219 80.753906 C 130.464844 80.855469 131.90625 80.296875 132.816406 79.464844 C 133.121094 79.136719 133.347656 78.757812 133.5 78.324219 C 133.90625 77.234375 133.878906 75.921875 133.804688 74.855469 C 135.171875 75.945312 136.867188 77.132812 138.285156 78.324219 C 138.714844 78.703125 139.09375 79.007812 139.425781 79.363281 Z M 139.425781 79.363281 "/>
<path style=" stroke:none;fill-rule:nonzero;fill:rgb(75.294118%,60%,36.470588%);fill-opacity:1;" d="M 163.996094 77.867188 C 163.996094 77.96875 163.085938 78.171875 161.871094 78.347656 C 160.101562 78.625 157.621094 78.90625 156.328125 78.878906 C 154.734375 78.828125 150.632812 79.386719 146.839844 78.347656 C 145.472656 77.96875 144.132812 77.386719 142.96875 76.5 C 142.363281 76.019531 141.652344 75.4375 141.046875 74.878906 C 140.996094 74.855469 140.972656 74.804688 140.945312 74.777344 C 139.78125 73.714844 138.691406 72.574219 137.65625 71.386719 C 136.644531 70.246094 135.707031 69.058594 134.847656 67.894531 C 133.9375 66.679688 133.125 65.492188 132.417969 64.425781 C 130.671875 61.769531 129.632812 59.792969 129.507812 59.566406 C 129.632812 59.691406 131.632812 61.945312 134.011719 64.425781 C 135.152344 65.613281 136.367188 66.828125 137.480469 67.894531 C 138.695312 69.035156 139.785156 69.996094 140.59375 70.550781 C 141 70.828125 141.480469 71.109375 141.960938 71.386719 C 144.0625 72.574219 146.792969 73.789062 149.222656 74.777344 C 149.296875 74.800781 149.375 74.828125 149.449219 74.851562 C 150.738281 75.359375 152.105469 75.890625 153.042969 76.21875 C 156.226562 77.335938 163.996094 77.640625 163.996094 77.867188 Z M 163.996094 77.867188 "/>
<path style=" stroke:none;fill-rule:nonzero;fill:rgb(75.294118%,60%,36.470588%);fill-opacity:1;" d="M 177.28125 73.289062 C 177.28125 73.492188 159.3125 74.199219 148.304688 71.417969 C 146.785156 71.039062 145.394531 70.582031 144.203125 70.050781 C 143.089844 69.542969 141.875 68.8125 140.660156 67.949219 C 139.21875 66.910156 137.75 65.695312 136.382812 64.480469 C 132.738281 61.214844 129.777344 57.875 129.574219 57.648438 C 129.800781 57.800781 133.523438 60.101562 136.433594 61.367188 C 138.027344 62.074219 140.710938 62.960938 144.429688 64.480469 C 146.632812 65.390625 149.1875 66.503906 152.074219 67.949219 C 153.414062 68.632812 154.832031 69.367188 156.324219 70.175781 C 157.234375 70.65625 158.324219 71.085938 159.5625 71.414062 C 166.503906 73.339844 177.28125 73.085938 177.28125 73.289062 Z M 177.28125 73.289062 "/>
<path style=" stroke:none;fill-rule:nonzero;fill:rgb(75.294118%,60%,36.470588%);fill-opacity:1;" d="M 164.503906 67.039062 C 164.503906 67.039062 162.402344 68 156.960938 66.8125 C 154.507812 66.253906 152.507812 65.421875 150.457031 64.457031 C 148.003906 63.292969 145.472656 62.003906 142.03125 60.890625 C 135.753906 58.890625 135.046875 58.890625 132.769531 57.601562 C 130.644531 56.386719 129.300781 55.449219 129.152344 55.324219 C 129.378906 55.398438 131.886719 56.3125 133.757812 56.5625 C 135.707031 56.839844 148.765625 58.359375 153.597656 60.992188 C 155.902344 62.230469 157.34375 63.496094 158.429688 64.460938 C 159.164062 65.09375 159.746094 65.601562 160.351562 65.878906 C 161.847656 66.558594 164.503906 66.734375 164.503906 67.039062 Z M 164.503906 67.039062 "/>
<path style=" stroke:none;fill-rule:nonzero;fill:rgb(0%,25.882353%,53.333333%);fill-opacity:1;" d="M 206.058594 108.921875 L 206.035156 108.871094 L 205.476562 108.871094 L 205.730469 109.226562 L 206.386719 109.226562 L 206.386719 109.101562 C 206.234375 109.121094 206.132812 109.046875 206.058594 108.921875 Z M 204.511719 108.921875 L 204.03125 108.898438 C 204.007812 109.101562 203.90625 109.152344 203.675781 109.152344 L 203.675781 109.253906 L 204.890625 109.253906 L 204.890625 109.128906 C 204.742188 109.121094 204.511719 109.097656 204.511719 108.921875 Z M 206.941406 108.894531 C 206.5625 109.601562 205.828125 110.082031 204.96875 110.082031 C 204.109375 110.082031 203.375 109.601562 203.019531 108.894531 L 202.742188 108.894531 C 203.121094 109.730469 203.980469 110.335938 204.96875 110.335938 C 205.957031 110.335938 206.839844 109.753906 207.222656 108.894531 Z M 205.246094 107.882812 C 205.625 107.832031 205.929688 107.578125 205.929688 107.199219 C 205.929688 106.667969 205.421875 106.441406 204.96875 106.441406 C 204.5625 106.441406 204.132812 106.441406 203.703125 106.441406 L 203.703125 106.566406 C 204.007812 106.566406 204.007812 106.640625 204.007812 106.921875 L 204.007812 108.894531 L 204.488281 108.894531 L 204.488281 107.933594 L 204.714844 107.933594 L 205.421875 108.894531 L 205.980469 108.894531 Z M 204.511719 107.78125 L 204.511719 106.667969 C 204.5625 106.667969 204.585938 106.667969 204.636719 106.667969 C 205.015625 106.667969 205.472656 106.769531 205.472656 107.199219 C 205.476562 107.679688 204.867188 107.757812 204.511719 107.78125 Z M 206.058594 108.921875 L 206.035156 108.871094 L 205.277344 107.859375 C 205.65625 107.808594 205.960938 107.554688 205.960938 107.175781 C 205.960938 106.644531 205.453125 106.417969 205 106.417969 C 204.59375 106.417969 204.164062 106.417969 203.734375 106.417969 L 203.734375 106.542969 C 204.039062 106.542969 204.039062 106.617188 204.039062 106.898438 L 204.039062 108.871094 C 204.015625 109.074219 203.914062 109.125 203.683594 109.125 L 203.683594 109.226562 L 204.898438 109.226562 L 204.898438 109.101562 C 204.746094 109.101562 204.519531 109.078125 204.519531 108.875 L 204.519531 107.886719 L 204.746094 107.886719 L 205.453125 108.847656 L 205.707031 109.203125 L 206.363281 109.203125 L 206.359375 109.070312 C 206.234375 109.121094 206.132812 109.046875 206.058594 108.921875 Z M 204.511719 107.78125 L 204.511719 106.667969 C 204.5625 106.667969 204.585938 106.667969 204.636719 106.667969 C 205.015625 106.667969 205.472656 106.769531 205.472656 107.199219 C 205.476562 107.679688 204.867188 107.757812 204.511719 107.78125 Z M 206.058594 108.921875 L 206.035156 108.871094 L 205.277344 107.859375 C 205.65625 107.808594 205.960938 107.554688 205.960938 107.175781 C 205.960938 106.644531 205.453125 106.417969 205 106.417969 C 204.59375 106.417969 204.164062 106.417969 203.734375 106.417969 L 203.734375 106.542969 C 204.039062 106.542969 204.039062 106.617188 204.039062 106.898438 L 204.039062 108.871094 C 204.015625 109.074219 203.914062 109.125 203.683594 109.125 L 203.683594 109.226562 L 204.898438 109.226562 L 204.898438 109.101562 C 204.746094 109.101562 204.519531 109.078125 204.519531 108.875 L 204.519531 107.886719 L 204.746094 107.886719 L 205.453125 108.847656 L 205.707031 109.203125 L 206.363281 109.203125 L 206.359375 109.070312 C 206.234375 109.121094 206.132812 109.046875 206.058594 108.921875 Z M 204.511719 107.78125 L 204.511719 106.667969 C 204.5625 106.667969 204.585938 106.667969 204.636719 106.667969 C 205.015625 106.667969 205.472656 106.769531 205.472656 107.199219 C 205.476562 107.679688 204.867188 107.757812 204.511719 107.78125 Z M 206.058594 108.921875 L 206.035156 108.871094 L 205.277344 107.859375 C 205.65625 107.808594 205.960938 107.554688 205.960938 107.175781 C 205.960938 106.644531 205.453125 106.417969 205 106.417969 C 204.59375 106.417969 204.164062 106.417969 203.734375 106.417969 L 203.734375 106.542969 C 204.039062 106.542969 204.039062 106.617188 204.039062 106.898438 L 204.039062 108.871094 C 204.015625 109.074219 203.914062 109.125 203.683594 109.125 L 203.683594 109.226562 L 204.898438 109.226562 L 204.898438 109.101562 C 204.746094 109.101562 204.519531 109.078125 204.519531 108.875 L 204.519531 107.886719 L 204.746094 107.886719 L 205.453125 108.847656 L 205.707031 109.203125 L 206.363281 109.203125 L 206.359375 109.070312 C 206.234375 109.121094 206.132812 109.046875 206.058594 108.921875 Z M 204.511719 107.78125 L 204.511719 106.667969 C 204.5625 106.667969 204.585938 106.667969 204.636719 106.667969 C 205.015625 106.667969 205.472656 106.769531 205.472656 107.199219 C 205.476562 107.679688 204.867188 107.757812 204.511719 107.78125 Z M 206.058594 108.921875 L 206.035156 108.871094 L 205.277344 107.859375 C 205.65625 107.808594 205.960938 107.554688 205.960938 107.175781 C 205.960938 106.644531 205.453125 106.417969 205 106.417969 C 204.59375 106.417969 204.164062 106.417969 203.734375 106.417969 L 203.734375 106.542969 C 204.039062 106.542969 204.039062 106.617188 204.039062 106.898438 L 204.039062 108.871094 C 204.015625 109.074219 203.914062 109.125 203.683594 109.125 L 203.683594 109.226562 L 204.898438 109.226562 L 204.898438 109.101562 C 204.746094 109.101562 204.519531 109.078125 204.519531 108.875 L 204.519531 107.886719 L 204.746094 107.886719 L 205.453125 108.847656 L 205.707031 109.203125 L 206.363281 109.203125 L 206.359375 109.070312 C 206.234375 109.121094 206.132812 109.046875 206.058594 108.921875 Z M 204.511719 107.78125 L 204.511719 106.667969 C 204.5625 106.667969 204.585938 106.667969 204.636719 106.667969 C 205.015625 106.667969 205.472656 106.769531 205.472656 107.199219 C 205.476562 107.679688 204.867188 107.757812 204.511719 107.78125 Z M 206.058594 108.921875 L 206.035156 108.871094 L 205.277344 107.859375 C 205.65625 107.808594 205.960938 107.554688 205.960938 107.175781 C 205.960938 106.644531 205.453125 106.417969 205 106.417969 C 204.59375 106.417969 204.164062 106.417969 203.734375 106.417969 L 203.734375 106.542969 C 204.039062 106.542969 204.039062 106.617188 204.039062 106.898438 L 204.039062 108.871094 C 204.015625 109.074219 203.914062 109.125 203.683594 109.125 L 203.683594 109.226562 L 204.898438 109.226562 L 204.898438 109.101562 C 204.746094 109.101562 204.519531 109.078125 204.519531 108.875 L 204.519531 107.886719 L 204.746094 107.886719 L 205.453125 108.847656 L 205.707031 109.203125 L 206.363281 109.203125 L 206.359375 109.070312 C 206.234375 109.121094 206.132812 109.046875 206.058594 108.921875 Z M 204.511719 107.78125 L 204.511719 106.667969 C 204.5625 106.667969 204.585938 106.667969 204.636719 106.667969 C 205.015625 106.667969 205.472656 106.769531 205.472656 107.199219 C 205.476562 107.679688 204.867188 107.757812 204.511719 107.78125 Z M 206.058594 108.921875 L 206.035156 108.871094 L 205.277344 107.859375 C 205.65625 107.808594 205.960938 107.554688 205.960938 107.175781 C 205.960938 106.644531 205.453125 106.417969 205 106.417969 C 204.59375 106.417969 204.164062 106.417969 203.734375 106.417969 L 203.734375 106.542969 C 204.039062 106.542969 204.039062 106.617188 204.039062 106.898438 L 204.039062 108.871094 C 204.015625 109.074219 203.914062 109.125 203.683594 109.125 L 203.683594 109.226562 L 204.898438 109.226562 L 204.898438 109.101562 C 204.746094 109.101562 204.519531 109.078125 204.519531 108.875 L 204.519531 107.886719 L 204.746094 107.886719 L 205.453125 108.847656 L 205.707031 109.203125 L 206.363281 109.203125 L 206.359375 109.070312 C 206.234375 109.121094 206.132812 109.046875 206.058594 108.921875 Z M 204.511719 107.78125 L 204.511719 106.667969 C 204.5625 106.667969 204.585938 106.667969 204.636719 106.667969 C 205.015625 106.667969 205.472656 106.769531 205.472656 107.199219 C 205.476562 107.679688 204.867188 107.757812 204.511719 107.78125 Z M 206.058594 108.921875 L 206.035156 108.871094 L 205.277344 107.859375 C 205.65625 107.808594 205.960938 107.554688 205.960938 107.175781 C 205.960938 106.644531 205.453125 106.417969 205 106.417969 C 204.59375 106.417969 204.164062 106.417969 203.734375 106.417969 L 203.734375 106.542969 C 204.039062 106.542969 204.039062 106.617188 204.039062 106.898438 L 204.039062 108.871094 C 204.015625 109.074219 203.914062 109.125 203.683594 109.125 L 203.683594 109.226562 L 204.898438 109.226562 L 204.898438 109.101562 C 204.746094 109.101562 204.519531 109.078125 204.519531 108.875 L 204.519531 107.886719 L 204.746094 107.886719 L 205.453125 108.847656 L 205.707031 109.203125 L 206.363281 109.203125 L 206.359375 109.070312 C 206.234375 109.121094 206.132812 109.046875 206.058594 108.921875 Z M 204.511719 107.78125 L 204.511719 106.667969 C 204.5625 106.667969 204.585938 106.667969 204.636719 106.667969 C 205.015625 106.667969 205.472656 106.769531 205.472656 107.199219 C 205.476562 107.679688 204.867188 107.757812 204.511719 107.78125 Z M 206.058594 108.921875 L 206.035156 108.871094 L 205.277344 107.859375 C 205.65625 107.808594 205.960938 107.554688 205.960938 107.175781 C 205.960938 106.644531 205.453125 106.417969 205 106.417969 C 204.59375 106.417969 204.164062 106.417969 203.734375 106.417969 L 203.734375 106.542969 C 204.039062 106.542969 204.039062 106.617188 204.039062 106.898438 L 204.039062 108.871094 C 204.015625 109.074219 203.914062 109.125 203.683594 109.125 L 203.683594 109.226562 L 204.898438 109.226562 L 204.898438 109.101562 C 204.746094 109.101562 204.519531 109.078125 204.519531 108.875 L 204.519531 107.886719 L 204.746094 107.886719 L 205.453125 108.847656 L 205.707031 109.203125 L 206.363281 109.203125 L 206.359375 109.070312 C 206.234375 109.121094 206.132812 109.046875 206.058594 108.921875 Z M 204.511719 107.78125 L 204.511719 106.667969 C 204.5625 106.667969 204.585938 106.667969 204.636719 106.667969 C 205.015625 106.667969 205.472656 106.769531 205.472656 107.199219 C 205.476562 107.679688 204.867188 107.757812 204.511719 107.78125 Z M 206.058594 108.921875 L 206.035156 108.871094 L 205.277344 107.859375 C 205.65625 107.808594 205.960938 107.554688 205.960938 107.175781 C 205.960938 106.644531 205.453125 106.417969 205 106.417969 C 204.59375 106.417969 204.164062 106.417969 203.734375 106.417969 L 203.734375 106.542969 C 204.039062 106.542969 204.039062 106.617188 204.039062 106.898438 L 204.039062 108.871094 C 204.015625 109.074219 203.914062 109.125 203.683594 109.125 L 203.683594 109.226562 L 204.898438 109.226562 L 204.898438 109.101562 C 204.746094 109.101562 204.519531 109.078125 204.519531 108.875 L 204.519531 107.886719 L 204.746094 107.886719 L 205.453125 108.847656 L 205.707031 109.203125 L 206.363281 109.203125 L 206.359375 109.070312 C 206.234375 109.121094 206.132812 109.046875 206.058594 108.921875 Z M 204.511719 107.78125 L 204.511719 106.667969 C 204.5625 106.667969 204.585938 106.667969 204.636719 106.667969 C 205.015625 106.667969 205.472656 106.769531 205.472656 107.199219 C 205.476562 107.679688 204.867188 107.757812 204.511719 107.78125 Z M 204.96875 105.480469 C 203.601562 105.480469 202.515625 106.570312 202.515625 107.910156 C 202.515625 108.265625 202.589844 108.59375 202.742188 108.898438 L 203.019531 108.898438 C 202.867188 108.59375 202.765625 108.265625 202.765625 107.910156 C 202.765625 106.722656 203.753906 105.734375 204.96875 105.734375 C 206.183594 105.734375 207.171875 106.722656 207.171875 107.910156 C 207.171875 108.265625 207.097656 108.59375 206.945312 108.898438 L 207.222656 108.898438 C 207.375 108.59375 207.449219 108.265625 207.449219 107.910156 C 207.421875 106.566406 206.308594 105.480469 204.96875 105.480469 Z M 206.007812 108.894531 L 205.25 107.882812 C 205.628906 107.832031 205.933594 107.578125 205.933594 107.199219 C 205.933594 106.667969 205.425781 106.441406 204.972656 106.441406 C 204.566406 106.441406 204.136719 106.441406 203.707031 106.441406 L 203.707031 106.566406 C 204.011719 106.566406 204.011719 106.640625 204.011719 106.921875 L 204.011719 108.894531 C 203.988281 109.097656 203.886719 109.148438 203.65625 109.148438 L 203.65625 109.25 L 204.871094 109.25 L 204.871094 109.125 C 204.71875 109.125 204.492188 109.101562 204.492188 108.898438 L 204.492188 107.910156 L 204.71875 107.910156 L 205.425781 108.871094 L 205.679688 109.226562 L 206.335938 109.226562 L 206.335938 109.101562 C 206.183594 109.097656 206.082031 109.019531 206.007812 108.894531 Z M 204.511719 107.78125 L 204.511719 106.667969 C 204.5625 106.667969 204.585938 106.667969 204.636719 106.667969 C 205.015625 106.667969 205.472656 106.769531 205.472656 107.199219 C 205.476562 107.679688 204.867188 107.757812 204.511719 107.78125 Z M 206.058594 108.921875 L 206.035156 108.871094 L 205.277344 107.859375 C 205.65625 107.808594 205.960938 107.554688 205.960938 107.175781 C 205.960938 106.644531 205.453125 106.417969 205 106.417969 C 204.59375 106.417969 204.164062 106.417969 203.734375 106.417969 L 203.734375 106.542969 C 204.039062 106.542969 204.039062 106.617188 204.039062 106.898438 L 204.039062 108.871094 C 204.015625 109.074219 203.914062 109.125 203.683594 109.125 L 203.683594 109.226562 L 204.898438 109.226562 L 204.898438 109.101562 C 204.746094 109.101562 204.519531 109.078125 204.519531 108.875 L 204.519531 107.886719 L 204.746094 107.886719 L 205.453125 108.847656 L 205.707031 109.203125 L 206.363281 109.203125 L 206.359375 109.070312 C 206.234375 109.121094 206.132812 109.046875 206.058594 108.921875 Z M 204.511719 107.78125 L 204.511719 106.667969 C 204.5625 106.667969 204.585938 106.667969 204.636719 106.667969 C 205.015625 106.667969 205.472656 106.769531 205.472656 107.199219 C 205.476562 107.679688 204.867188 107.757812 204.511719 107.78125 Z M 206.058594 108.921875 L 206.035156 108.871094 L 205.277344 107.859375 C 205.65625 107.808594 205.960938 107.554688 205.960938 107.175781 C 205.960938 106.644531 205.453125 106.417969 205 106.417969 C 204.59375 106.417969 204.164062 106.417969 203.734375 106.417969 L 203.734375 106.542969 C 204.039062 106.542969 204.039062 106.617188 204.039062 106.898438 L 204.039062 108.871094 C 204.015625 109.074219 203.914062 109.125 203.683594 109.125 L 203.683594 109.226562 L 204.898438 109.226562 L 204.898438 109.101562 C 204.746094 109.101562 204.519531 109.078125 204.519531 108.875 L 204.519531 107.886719 L 204.746094 107.886719 L 205.453125 108.847656 L 205.707031 109.203125 L 206.363281 109.203125 L 206.359375 109.070312 C 206.234375 109.121094 206.132812 109.046875 206.058594 108.921875 Z M 204.511719 107.78125 L 204.511719 106.667969 C 204.5625 106.667969 204.585938 106.667969 204.636719 106.667969 C 205.015625 106.667969 205.472656 106.769531 205.472656 107.199219 C 205.476562 107.679688 204.867188 107.757812 204.511719 107.78125 Z M 206.058594 108.921875 L 206.035156 108.871094 L 205.277344 107.859375 C 205.65625 107.808594 205.960938 107.554688 205.960938 107.175781 C 205.960938 106.644531 205.453125 106.417969 205 106.417969 C 204.59375 106.417969 204.164062 106.417969 203.734375 106.417969 L 203.734375 106.542969 C 204.039062 106.542969 204.039062 106.617188 204.039062 106.898438 L 204.039062 108.871094 C 204.015625 109.074219 203.914062 109.125 203.683594 109.125 L 203.683594 109.226562 L 204.898438 109.226562 L 204.898438 109.101562 C 204.746094 109.101562 204.519531 109.078125 204.519531 108.875 L 204.519531 107.886719 L 204.746094 107.886719 L 205.453125 108.847656 L 205.707031 109.203125 L 206.363281 109.203125 L 206.359375 109.070312 C 206.234375 109.121094 206.132812 109.046875 206.058594 108.921875 Z M 204.511719 107.78125 L 204.511719 106.667969 C 204.5625 106.667969 204.585938 106.667969 204.636719 106.667969 C 205.015625 106.667969 205.472656 106.769531 205.472656 107.199219 C 205.476562 107.679688 204.867188 107.757812 204.511719 107.78125 Z M 206.058594 108.921875 L 206.035156 108.871094 L 205.277344 107.859375 C 205.65625 107.808594 205.960938 107.554688 205.960938 107.175781 C 205.960938 106.644531 205.453125 106.417969 205 106.417969 C 204.59375 106.417969 204.164062 106.417969 203.734375 106.417969 L 203.734375 106.542969 C 204.039062 106.542969 204.039062 106.617188 204.039062 106.898438 L 204.039062 108.871094 C 204.015625 109.074219 203.914062 109.125 203.683594 109.125 L 203.683594 109.226562 L 204.898438 109.226562 L 204.898438 109.101562 C 204.746094 109.101562 204.519531 109.078125 204.519531 108.875 L 204.519531 107.886719 L 204.746094 107.886719 L 205.453125 108.847656 L 205.707031 109.203125 L 206.363281 109.203125 L 206.359375 109.070312 C 206.234375 109.121094 206.132812 109.046875 206.058594 108.921875 Z M 204.511719 107.78125 L 204.511719 106.667969 C 204.5625 106.667969 204.585938 106.667969 204.636719 106.667969 C 205.015625 106.667969 205.472656 106.769531 205.472656 107.199219 C 205.476562 107.679688 204.867188 107.757812 204.511719 107.78125 Z M 206.058594 108.921875 L 206.035156 108.871094 L 205.277344 107.859375 C 205.65625 107.808594 205.960938 107.554688 205.960938 107.175781 C 205.960938 106.644531 205.453125 106.417969 205 106.417969 C 204.59375 106.417969 204.164062 106.417969 203.734375 106.417969 L 203.734375 106.542969 C 204.039062 106.542969 204.039062 106.617188 204.039062 106.898438 L 204.039062 108.871094 C 204.015625 109.074219 203.914062 109.125 203.683594 109.125 L 203.683594 109.226562 L 204.898438 109.226562 L 204.898438 109.101562 C 204.746094 109.101562 204.519531 109.078125 204.519531 108.875 L 204.519531 107.886719 L 204.746094 107.886719 L 205.453125 108.847656 L 205.707031 109.203125 L 206.363281 109.203125 L 206.359375 109.070312 C 206.234375 109.121094 206.132812 109.046875 206.058594 108.921875 Z M 204.511719 107.78125 L 204.511719 106.667969 C 204.5625 106.667969 204.585938 106.667969 204.636719 106.667969 C 205.015625 106.667969 205.472656 106.769531 205.472656 107.199219 C 205.476562 107.679688 204.867188 107.757812 204.511719 107.78125 Z M 206.058594 108.921875 L 206.035156 108.871094 L 205.277344 107.859375 C 205.65625 107.808594 205.960938 107.554688 205.960938 107.175781 C 205.960938 106.644531 205.453125 106.417969 205 106.417969 C 204.59375 106.417969 204.164062 106.417969 203.734375 106.417969 L 203.734375 106.542969 C 204.039062 106.542969 204.039062 106.617188 204.039062 106.898438 L 204.039062 108.871094 C 204.015625 109.074219 203.914062 109.125 203.683594 109.125 L 203.683594 109.226562 L 204.898438 109.226562 L 204.898438 109.101562 C 204.746094 109.101562 204.519531 109.078125 204.519531 108.875 L 204.519531 107.886719 L 204.746094 107.886719 L 205.453125 108.847656 L 205.707031 109.203125 L 206.363281 109.203125 L 206.359375 109.070312 C 206.234375 109.121094 206.132812 109.046875 206.058594 108.921875 Z M 204.511719 107.78125 L 204.511719 106.667969 C 204.5625 106.667969 204.585938 106.667969 204.636719 106.667969 C 205.015625 106.667969 205.472656 106.769531 205.472656 107.199219 C 205.476562 107.679688 204.867188 107.757812 204.511719 107.78125 Z M 206.058594 108.921875 L 206.035156 108.871094 L 205.277344 107.859375 C 205.65625 107.808594 205.960938 107.554688 205.960938 107.175781 C 205.960938 106.644531 205.453125 106.417969 205 106.417969 C 204.59375 106.417969 204.164062 106.417969 203.734375 106.417969 L 203.734375 106.542969 C 204.039062 106.542969 204.039062 106.617188 204.039062 106.898438 L 204.039062 108.871094 C 204.015625 109.074219 203.914062 109.125 203.683594 109.125 L 203.683594 109.226562 L 204.898438 109.226562 L 204.898438 109.101562 C 204.746094 109.101562 204.519531 109.078125 204.519531 108.875 L 204.519531 107.886719 L 204.746094 107.886719 L 205.453125 108.847656 L 205.707031 109.203125 L 206.363281 109.203125 L 206.359375 109.070312 C 206.234375 109.121094 206.132812 109.046875 206.058594 108.921875 Z M 204.511719 107.78125 L 204.511719 106.667969 C 204.5625 106.667969 204.585938 106.667969 204.636719 106.667969 C 205.015625 106.667969 205.472656 106.769531 205.472656 107.199219 C 205.476562 107.679688 204.867188 107.757812 204.511719 107.78125 Z M 206.058594 108.921875 L 206.035156 108.871094 L 205.277344 107.859375 C 205.65625 107.808594 205.960938 107.554688 205.960938 107.175781 C 205.960938 106.644531 205.453125 106.417969 205 106.417969 C 204.59375 106.417969 204.164062 106.417969 203.734375 106.417969 L 203.734375 106.542969 C 204.039062 106.542969 204.039062 106.617188 204.039062 106.898438 L 204.039062 108.871094 C 204.015625 109.074219 203.914062 109.125 203.683594 109.125 L 203.683594 109.226562 L 204.898438 109.226562 L 204.898438 109.101562 C 204.746094 109.101562 204.519531 109.078125 204.519531 108.875 L 204.519531 107.886719 L 204.746094 107.886719 L 205.453125 108.847656 L 205.707031 109.203125 L 206.363281 109.203125 L 206.359375 109.070312 C 206.234375 109.121094 206.132812 109.046875 206.058594 108.921875 Z M 204.511719 107.78125 L 204.511719 106.667969 C 204.5625 106.667969 204.585938 106.667969 204.636719 106.667969 C 205.015625 106.667969 205.472656 106.769531 205.472656 107.199219 C 205.476562 107.679688 204.867188 107.757812 204.511719 107.78125 Z M 204.511719 107.78125 "/>
<path style=" stroke:none;fill-rule:nonzero;fill:rgb(0%,25.882353%,53.333333%);fill-opacity:1;" d="M 200.515625 98.519531 L 200.515625 110.335938 L 194.769531 110.335938 L 194.769531 99.050781 C 194.769531 98.847656 194.769531 98.671875 194.769531 98.519531 C 194.71875 97.179688 194.414062 96.394531 193.933594 95.734375 C 193.578125 95.226562 192.695312 94.875 192.1875 94.875 C 191.023438 94.875 189.832031 95.507812 188.847656 96.316406 L 188.847656 110.335938 L 183.128906 110.335938 L 183.128906 91.964844 L 188.796875 91.054688 L 188.796875 93.558594 C 191.453125 91.886719 192.769531 91.382812 195.074219 91.382812 C 198.1875 91.355469 200.515625 93.535156 200.515625 98.519531 Z M 200.515625 98.519531 "/>
<path style=" stroke:none;fill-rule:nonzero;fill:rgb(0%,25.882353%,53.333333%);fill-opacity:1;" d="M 181.789062 110.3125 L 176.195312 110.3125 C 175.03125 110.3125 174.523438 109.957031 174.398438 108.871094 C 174.375 108.667969 174.375 108.441406 174.375 108.1875 L 174.375 101.078125 L 173.917969 101.078125 C 173.261719 101.078125 169.488281 101.914062 169.488281 105.507812 C 169.488281 106.089844 169.714844 107.558594 170.601562 107.863281 C 170.90625 107.964844 171.539062 107.988281 171.664062 107.988281 C 172.421875 107.988281 173.183594 107.761719 174.019531 107.507812 C 173.945312 107.8125 173.867188 108.367188 173.792969 108.875 C 173.742188 109.304688 173.691406 109.710938 173.640625 109.988281 C 172.578125 110.34375 171.667969 110.695312 170.554688 110.824219 C 169.898438 110.875 169.566406 110.875 169.414062 110.875 C 167.542969 110.875 165.644531 110.269531 164.554688 108.902344 C 163.972656 108.167969 163.617188 107.179688 163.617188 105.964844 C 163.617188 99.738281 174.371094 98.777344 174.371094 98.777344 L 174.371094 97.15625 C 174.371094 96.523438 174.21875 93.941406 170.953125 93.941406 C 169.15625 93.941406 166.019531 94.648438 165.105469 95.003906 L 165.433594 92.523438 C 166.089844 92.296875 169.078125 91.382812 170.140625 91.257812 C 175.378906 90.625 178.035156 92.597656 178.898438 93.710938 C 179.65625 94.699219 180.136719 96.367188 180.136719 97.582031 L 180.144531 107.808594 C 180.144531 108.1875 180.21875 108.542969 180.371094 108.871094 C 180.648438 109.605469 181.179688 110.1875 181.789062 110.3125 Z M 181.789062 110.3125 "/>
<path style=" stroke:none;fill-rule:nonzero;fill:rgb(0%,25.882353%,53.333333%);fill-opacity:1;" d="M 162.328125 100.164062 C 162.328125 103.683594 161.089844 106.945312 158.683594 108.894531 C 157.417969 109.933594 155.847656 110.589844 153.976562 110.742188 C 153.320312 110.792969 152.964844 110.792969 152.835938 110.792969 C 152.027344 110.792969 151.292969 110.640625 150.179688 110.261719 C 150.105469 110.007812 149.976562 109.402344 149.875 108.894531 C 149.773438 108.363281 149.699219 107.90625 149.699219 107.90625 C 150.433594 108.210938 151.191406 108.464844 151.976562 108.464844 C 154.710938 108.464844 156.328125 106.011719 156.328125 100.949219 C 156.328125 100.367188 156.253906 99.457031 156.074219 98.519531 C 155.796875 97.050781 155.214844 95.484375 154.175781 94.875 C 153.71875 94.621094 152.988281 94.292969 152.503906 94.292969 C 151.515625 94.292969 150.277344 94.671875 149.289062 95.382812 L 149.289062 119.070312 L 143.570312 119.070312 L 143.574219 91.914062 L 149.320312 91.054688 L 149.320312 92.800781 C 150.761719 91.992188 152.507812 91.410156 153.953125 91.28125 C 154.609375 91.207031 154.890625 91.207031 155.015625 91.207031 C 156.710938 91.207031 158.582031 91.765625 160.253906 93.609375 C 160.558594 93.964844 160.8125 94.417969 161.011719 94.796875 C 161.644531 96.011719 162.074219 97.277344 162.226562 98.515625 C 162.226562 98.691406 162.25 98.84375 162.25 99.023438 C 162.300781 99.734375 162.328125 100.011719 162.328125 100.164062 Z M 162.328125 100.164062 "/>
<path style=" stroke:none;fill-rule:nonzero;fill:rgb(0%,25.882353%,53.333333%);fill-opacity:1;" d="M 141.222656 104.59375 C 141.222656 105.882812 140.84375 107.605469 139.402344 108.894531 C 138.1875 109.984375 136.164062 110.792969 132.921875 110.792969 C 130.0625 110.792969 127.457031 109.804688 127.277344 109.730469 C 127.203125 109.453125 127.125 109.171875 127.050781 108.894531 C 126.898438 108.3125 126.773438 107.707031 126.59375 107.097656 C 127.554688 107.425781 129.554688 108.386719 132.136719 108.386719 C 134.363281 108.386719 135.855469 107.222656 135.855469 105.804688 C 135.855469 105.121094 135.449219 104.3125 134.539062 103.78125 C 132.261719 102.464844 129.730469 101.984375 127.578125 99.65625 C 127.273438 99.328125 127.070312 98.921875 126.921875 98.492188 C 126.746094 97.933594 126.667969 97.378906 126.667969 96.949219 C 126.667969 93.660156 129.703125 91.230469 134.359375 91.230469 C 137.042969 91.230469 139.042969 92.292969 139.042969 92.292969 C 139.042969 92.292969 139.574219 94.140625 139.777344 95.027344 C 138.03125 94.191406 136.539062 93.660156 134.917969 93.660156 C 134.007812 93.660156 131.980469 93.964844 131.980469 95.761719 C 131.980469 96.925781 133.550781 97.660156 135.398438 98.496094 C 138.058594 99.707031 141.222656 101.175781 141.222656 104.59375 Z M 141.222656 104.59375 "/>
<path style=" stroke:none;fill-rule:nonzero;fill:rgb(0%,25.882353%,53.333333%);fill-opacity:1;" d="M 123.507812 108.894531 C 119.914062 106.972656 113.15625 108.035156 113.15625 106.589844 C 113.15625 106.210938 113.6875 105.25 113.839844 104.945312 C 114.445312 105.046875 114.546875 105.171875 115.964844 105.171875 C 122.316406 105.171875 124.214844 100.667969 124.214844 98.59375 L 124.214844 98.519531 C 124.214844 96.875 123.757812 95.632812 122.292969 93.863281 L 124.796875 94.242188 L 124.796875 91.332031 L 115.6875 91.332031 C 112.601562 91.332031 107.765625 93.734375 107.765625 98.164062 C 107.765625 98.289062 107.765625 98.390625 107.765625 98.519531 C 107.839844 100.59375 108.675781 102.339844 111.535156 104.113281 C 110.042969 105.351562 108.625 106.949219 108.625 108.390625 C 108.625 108.566406 108.648438 108.746094 108.675781 108.898438 C 108.953125 110.238281 110.296875 111 110.777344 111.152344 C 113.585938 112.039062 116.472656 111.429688 119.332031 112.773438 C 120.015625 113.078125 120.546875 113.582031 120.671875 114.089844 C 120.671875 114.164062 120.671875 114.214844 120.671875 114.265625 C 120.671875 116.1875 117.179688 116.847656 115.507812 116.847656 C 115.355469 116.847656 115.152344 116.824219 114.546875 116.796875 C 112.625 116.695312 110.699219 116.191406 108.777344 115.609375 C 109.054688 116.519531 109.257812 117.355469 109.535156 118.214844 C 111.15625 118.746094 112.371094 119.023438 114.417969 119.226562 L 116.339844 119.277344 C 119.527344 119.277344 124.414062 118.136719 125.449219 114.089844 C 125.574219 113.582031 125.652344 113.027344 125.652344 112.445312 C 125.707031 110.691406 124.820312 109.605469 123.507812 108.894531 Z M 112.929688 98.367188 C 112.929688 96.976562 113.234375 95.9375 113.535156 95.179688 C 114.042969 93.992188 115.054688 93.433594 115.988281 93.433594 C 118.46875 93.433594 119.050781 97.304688 119.050781 98.367188 C 119.050781 98.417969 119.050781 98.46875 119.050781 98.519531 C 119.027344 99.609375 118.570312 101.40625 117.988281 102.1875 C 117.355469 103.046875 116.800781 103.125 116.066406 103.125 C 113.636719 103.125 112.953125 99.960938 112.929688 98.519531 C 112.929688 98.441406 112.929688 98.417969 112.929688 98.367188 Z M 112.929688 98.367188 "/>
<path style=" stroke:none;fill-rule:nonzero;fill:rgb(0%,25.882353%,53.333333%);fill-opacity:1;" d="M 105.613281 98.519531 L 105.613281 110.335938 L 99.871094 110.335938 L 99.871094 99.050781 C 99.871094 98.875 99.871094 98.695312 99.847656 98.519531 C 99.773438 97.507812 99.46875 96.367188 99.011719 95.734375 C 98.65625 95.226562 97.773438 94.875 97.242188 94.875 C 96.078125 94.875 94.886719 95.507812 93.925781 96.316406 L 93.921875 110.335938 L 88.230469 110.335938 L 88.230469 91.964844 L 93.925781 91.054688 L 93.925781 93.558594 C 96.558594 91.886719 97.898438 91.382812 100.203125 91.382812 C 103.285156 91.355469 105.613281 93.535156 105.613281 98.519531 Z M 105.613281 98.519531 "/>
<path style=" stroke:none;fill-rule:nonzero;fill:rgb(0%,25.882353%,53.333333%);fill-opacity:1;" d="M 85.167969 85.613281 C 85.167969 86.902344 84.078125 88.75 81.929688 88.75 C 80.183594 88.75 78.691406 87.433594 78.691406 85.664062 C 78.691406 83.917969 79.90625 82.476562 81.980469 82.476562 C 83.875 82.476562 85.167969 84.09375 85.167969 85.613281 Z M 85.167969 85.613281 "/>
<path style=" stroke:none;fill-rule:nonzero;fill:rgb(0%,25.882353%,53.333333%);fill-opacity:1;" d="M 84.785156 91.027344 L 84.785156 110.3125 L 79.09375 110.3125 L 79.09375 91.9375 Z M 84.785156 91.027344 "/>
<path style=" stroke:none;fill-rule:nonzero;fill:rgb(0%,25.882353%,53.333333%);fill-opacity:1;" d="M 55.582031 84.550781 L 61.175781 84.550781 L 61.175781 110.3125 L 55.582031 110.3125 Z M 55.582031 84.550781 "/>
<path style=" stroke:none;fill-rule:nonzero;fill:rgb(0%,25.882353%,53.333333%);fill-opacity:1;" d="M 77.421875 110.335938 L 70.261719 110.335938 L 69.300781 108.894531 L 62.238281 98.519531 L 61.199219 96.949219 L 71.550781 84.550781 L 76.636719 84.550781 L 66.894531 95.988281 L 68.742188 98.519531 L 76.386719 108.894531 Z M 77.421875 110.335938 "/>
</g>
</svg>
