<?xml version="1.0" encoding="UTF-8"?>
<svg xmlns="http://www.w3.org/2000/svg" xmlns:xlink="http://www.w3.org/1999/xlink" width="192pt" height="192pt" viewBox="0 0 192 192" version="1.1">
<g id="surface4">
<path style=" stroke:none;fill-rule:nonzero;fill:rgb(75.294118%,60%,36.470588%);fill-opacity:1;" d="M 119.324219 66.109375 C 117.644531 64.84375 113.964844 60.101562 108.695312 59.394531 C 103.394531 58.6875 95.238281 61.457031 93.734375 61.691406 C 92.292969 61.925781 89.347656 61.339844 89.316406 61.425781 C 89.316406 61.484375 93.292969 63.015625 96.472656 63.664062 C 99.652344 64.339844 99.386719 63.632812 106.925781 64.28125 C 114.464844 64.929688 117.851562 67.492188 119.972656 67.875 C 122.09375 68.257812 123.535156 68.257812 123.535156 67.992188 C 123.535156 67.730469 121 67.375 119.324219 66.109375 Z M 108.75 57.480469 C 107.160156 56.449219 103.125 53.359375 99.121094 54.800781 C 95.144531 56.242188 92.464844 58.570312 90.609375 59.128906 C 88.726562 59.6875 85.132812 59.746094 85.132812 59.746094 C 85.132812 59.746094 88.460938 61.070312 92.40625 60.421875 C 96.351562 59.746094 100.886719 57.359375 104.714844 57.832031 C 108.574219 58.304688 108.191406 58.480469 109.160156 58.597656 C 110.132812 58.6875 110.839844 58.6875 110.839844 58.449219 C 110.871094 58.1875 110.339844 58.511719 108.75 57.480469 Z M 93.613281 53.152344 C 91.257812 53.0625 88.929688 55.683594 86.664062 57.273438 C 84.601562 58.746094 81.1875 59.039062 80.6875 59.070312 C 81.21875 59.070312 85.132812 59.039062 87.933594 58.394531 C 90.9375 57.6875 94.175781 55.007812 95.589844 54.300781 C 97.003906 53.59375 98.535156 54.035156 98.535156 53.859375 C 98.53125 53.652344 95.96875 53.269531 93.613281 53.152344 Z M 86.664062 71.882812 L 86.105469 69.734375 C 84.925781 68.113281 83.367188 67.820312 81.6875 66.964844 L 81.453125 66.40625 L 83.160156 66.4375 C 83.21875 66.113281 83.070312 65.671875 82.953125 65.464844 C 81.421875 65.464844 80.15625 65.433594 78.566406 64.933594 C 76.5625 65.523438 75.503906 66.523438 74.355469 67.996094 C 75.003906 68.144531 75.535156 67.878906 76.210938 67.996094 C 79.6875 68.410156 82.21875 70.117188 84.632812 72.355469 L 84.75 71.855469 C 84.074219 70.175781 82.453125 69 81.363281 67.734375 C 83.839844 68.9375 84.988281 70.175781 86.664062 71.882812 Z M 86.664062 71.882812 "/>
<path style=" stroke:none;fill-rule:nonzero;fill:rgb(75.294118%,60%,36.470588%);fill-opacity:1;" d="M 112.019531 101.300781 C 111.136719 100.976562 110.28125 100.683594 109.457031 100.328125 C 107.191406 99.003906 108.660156 97.53125 106.984375 95.96875 C 107.691406 95.792969 107.691406 94.347656 107.691406 94.261719 C 102.949219 94.96875 98.503906 96.351562 94.441406 98.5625 C 91.613281 95.914062 87.402344 94.558594 83.839844 92.9375 C 82.839844 92.40625 81.867188 91.820312 80.894531 91.199219 C 78.980469 89.992188 77.183594 88.667969 75.535156 87.164062 C 74.210938 85.925781 73.003906 84.601562 72 83.101562 L 72.472656 84.898438 C 70.792969 84.191406 68.96875 83.515625 67.082031 83.101562 C 66.316406 82.925781 65.550781 82.808594 64.785156 82.75 C 64.816406 82.867188 64.875 82.984375 64.960938 83.101562 C 65.3125 83.601562 66.050781 83.867188 66.582031 83.984375 C 66.140625 84.398438 65.816406 84.335938 65.167969 84.191406 C 64.84375 83.839844 64.460938 83.484375 64.109375 83.101562 C 63.433594 82.394531 62.902344 81.601562 63.226562 80.539062 C 64.109375 78.683594 66.464844 79.714844 68.113281 79.890625 L 68.496094 79.625 C 67.964844 79.152344 67.171875 79.242188 66.433594 79.035156 C 66.167969 78.976562 65.875 78.859375 65.636719 78.683594 C 64.902344 78.183594 64.195312 77.535156 64.664062 76.769531 C 66.371094 73.558594 68.550781 77.59375 70.40625 77.652344 C 69.730469 76.828125 68.726562 75.945312 68.257812 75.003906 C 68.523438 74.5625 69.375 74.5625 70.054688 74.53125 C 70.320312 74.679688 70.613281 74.855469 70.910156 75.003906 C 73.175781 76.300781 75.414062 77.773438 77.710938 79.039062 C 78.683594 79.570312 79.65625 80.070312 80.65625 80.511719 C 82.21875 81.160156 83.367188 82.542969 84.898438 83.074219 C 85.046875 83.132812 85.191406 83.164062 85.339844 83.191406 C 89.582031 83.25 93.554688 85.28125 97.179688 86.546875 C 96.886719 85.457031 95.914062 85.25 95.234375 84.425781 C 94.792969 83.984375 94.378906 83.542969 93.996094 83.042969 C 93.082031 81.835938 92.316406 80.453125 91.640625 78.980469 C 91.023438 77.65625 90.460938 76.269531 89.933594 74.945312 C 89.433594 73.765625 88.960938 72.617188 88.433594 71.589844 C 88.433594 71.589844 88.640625 73.003906 88.964844 74.945312 C 89.171875 76.183594 89.4375 77.59375 89.730469 78.980469 C 90.054688 80.480469 90.40625 81.925781 90.761719 83.042969 C 90.792969 83.132812 90.820312 83.21875 90.851562 83.335938 C 90.761719 83.246094 90.703125 83.160156 90.644531 83.042969 C 89.613281 81.660156 88.523438 80.273438 87.375 78.980469 C 86.019531 77.480469 84.546875 76.125 82.898438 74.945312 C 82.574219 74.710938 82.25 74.503906 81.925781 74.269531 C 81.925781 74.269531 82.015625 74.535156 82.191406 74.945312 C 82.574219 75.828125 83.308594 77.507812 83.957031 78.980469 C 84.371094 79.863281 84.722656 80.6875 85.015625 81.21875 L 84.839844 81.335938 C 84.042969 80.304688 82.867188 79.390625 81.363281 79.246094 C 80.6875 79.570312 80.125 79.335938 79.566406 78.980469 C 78.890625 78.539062 78.242188 77.832031 77.476562 77.566406 L 78.535156 74.917969 C 78.949219 72.972656 77.386719 71.589844 76.472656 70.234375 L 73.617188 71.675781 C 72.054688 71 71.496094 69.703125 71.144531 68.082031 L 72.558594 67.023438 C 72.5 66.492188 71.527344 66.289062 71.058594 66.023438 C 72.914062 65.226562 74.621094 64.402344 76.449219 63.785156 C 78.863281 62.753906 82.101562 63.609375 84.3125 65.109375 L 84.402344 64.726562 L 80.101562 61.78125 C 78.863281 62.015625 77.65625 62.871094 76.480469 62.78125 C 77.480469 59.601562 80.339844 59.042969 80.339844 59.042969 C 80.339844 59.042969 84.257812 57.984375 85.433594 56.777344 C 86.730469 55.421875 89.320312 53.746094 89.320312 53.597656 C 89.320312 53.449219 86.40625 53.507812 85.167969 53.890625 C 83.136719 54.65625 82.164062 57.425781 79.484375 58.984375 C 77.601562 59.957031 75.980469 61.132812 75.507812 63.226562 L 69.234375 65.640625 L 69.085938 66.289062 C 69.910156 67.144531 70.585938 68.820312 70.941406 70.265625 C 70.882812 70.589844 70.441406 70.148438 70.265625 70.296875 C 69.824219 69.179688 69.648438 67.617188 68.351562 67.324219 L 68.261719 67.824219 C 68.9375 68.648438 69.234375 69.5625 69.527344 70.652344 C 70.46875 71.890625 72.53125 71.800781 73.589844 73.039062 C 74.0625 73.597656 74.414062 74.246094 74.53125 74.953125 C 74.589844 75.277344 74.5625 75.601562 74.5 75.953125 C 73.734375 75.746094 73 75.335938 72.292969 74.953125 C 70.613281 74.011719 68.996094 72.980469 67.140625 73.894531 C 66.523438 74.542969 65.667969 74.691406 64.902344 74.953125 C 64.34375 75.160156 63.8125 75.425781 63.488281 75.984375 C 62.664062 76.660156 63.136719 77.605469 63.339844 78.339844 C 62.988281 78.632812 62.722656 78.8125 62.515625 78.988281 C 62.25 79.253906 62.074219 79.519531 61.984375 80.046875 C 61.542969 79.664062 61.128906 79.3125 60.71875 78.988281 C 59.628906 78.132812 58.570312 77.488281 57.066406 76.78125 C 54.828125 75.722656 53.121094 76.164062 51.824219 76.75 C 51.472656 78.371094 49.878906 77.015625 49.144531 78.222656 C 48.96875 78.488281 48.792969 78.753906 48.671875 79.019531 L 49.910156 79.019531 C 49.96875 78.929688 50 78.84375 50.027344 78.753906 C 50.378906 78.664062 50.5 78.785156 50.527344 79.019531 C 50.585938 79.519531 50.203125 80.550781 50.558594 81.082031 C 50.589844 81.757812 50.765625 82.496094 51.148438 83.085938 C 50.765625 83.351562 50.914062 83.910156 50.117188 83.4375 C 49.941406 83.320312 49.765625 83.203125 49.644531 83.085938 C 48.320312 81.878906 49.292969 80.289062 49.910156 79.023438 L 48.671875 79.023438 C 48.140625 79.996094 47.789062 81.027344 48.113281 82.261719 C 48.203125 82.554688 48.289062 82.820312 48.378906 83.058594 C 48.644531 83.765625 49.054688 84.296875 49.820312 84.648438 C 50.96875 85.148438 52.175781 84.796875 53 84.117188 C 54.5 85 55.503906 85.972656 56.386719 87.089844 C 57.359375 88.328125 58.152344 89.679688 59.390625 91.152344 C 60.773438 92.773438 62.660156 94.539062 65.839844 96.363281 C 66.664062 97.21875 68.992188 97.542969 68.609375 99.335938 C 73.527344 97.835938 78.59375 94.832031 84.011719 95.65625 C 84.71875 95.625 84.394531 94.714844 85.070312 94.683594 C 87.898438 95.800781 90.753906 96.746094 93.082031 98.601562 C 93.523438 98.867188 93.199219 99.632812 93.996094 99.808594 L 96.527344 98.308594 C 98.914062 99.367188 101.355469 100.339844 103.800781 101.253906 C 125.152344 109.105469 148.242188 111.3125 148.328125 111.019531 C 148.386719 110.722656 128.980469 107.484375 112.019531 101.300781 Z M 84.191406 77.09375 C 84.75 77.59375 85.371094 78.273438 85.957031 79.039062 C 86.957031 80.363281 87.929688 81.867188 88.695312 82.898438 L 86.929688 82.367188 C 86.398438 81.425781 85.78125 80.1875 85.191406 79.039062 C 84.808594 78.300781 84.457031 77.625 84.191406 77.09375 Z M 75.796875 75.003906 C 75.796875 74.972656 75.765625 74.914062 75.738281 74.886719 C 75.796875 74.917969 75.855469 74.976562 75.914062 75.003906 C 76.472656 75.503906 76.355469 76.242188 76.503906 76.917969 C 75.003906 77.242188 76.003906 75.679688 75.796875 75.003906 Z M 67.640625 83.984375 C 69.113281 84.398438 68.671875 84.101562 69.585938 84.542969 C 68.230469 84.808594 68.171875 85.601562 66.730469 84.660156 C 67.199219 84.515625 67.289062 84.457031 67.640625 83.984375 Z M 53.007812 82.101562 C 52.007812 82.070312 51.710938 80.984375 51.917969 80.011719 C 51.949219 79.660156 52.007812 79.335938 52.09375 79.039062 C 52.417969 77.859375 53.125 77.035156 54.566406 77.214844 C 56.746094 77.539062 57.660156 78.070312 58.867188 79.039062 C 59.21875 79.304688 59.574219 79.628906 59.957031 79.980469 C 61.164062 81.21875 61.429688 81.6875 62.8125 83.101562 C 63.371094 83.660156 64.136719 84.367188 65.167969 85.308594 C 63.84375 84.453125 62.664062 83.746094 61.488281 83.101562 C 59.898438 82.1875 58.308594 81.363281 56.21875 80.421875 C 56.570312 80.332031 57.191406 80.628906 57.132812 80.097656 C 56.101562 79.363281 55.070312 80.1875 54.304688 80.6875 C 53.890625 81.097656 53.859375 82.128906 53.007812 82.101562 Z M 74.238281 93.9375 C 72.148438 94.910156 68.140625 95.527344 68.761719 95.054688 C 69.292969 94.613281 65.316406 93.140625 62.929688 91.375 C 62.871094 91.316406 62.8125 91.257812 62.753906 91.199219 C 61.164062 89.609375 59.691406 88.253906 58.425781 87.164062 C 55.539062 84.632812 53.742188 83.367188 53.742188 83.367188 C 53.742188 83.367188 53.800781 83.277344 53.890625 83.101562 C 54.242188 82.542969 55.128906 81.394531 56.363281 82.042969 C 56.894531 82.335938 57.542969 82.691406 58.246094 83.101562 C 60.277344 84.28125 62.839844 85.871094 64.902344 87.164062 C 66.847656 88.34375 68.347656 89.253906 68.613281 89.285156 C 70.558594 89.578125 70.496094 89.226562 71.351562 89.019531 C 71.203125 89.636719 70.851562 89.84375 70.113281 89.902344 C 70.96875 90.253906 71.792969 90.253906 72.703125 89.933594 C 73.910156 89.402344 74.058594 88.875 74.410156 87.726562 C 74.410156 87.726562 76.707031 89.609375 78.769531 91.171875 C 79.035156 91.347656 79.269531 91.554688 79.503906 91.730469 C 76.269531 91.847656 76.09375 93.351562 74.238281 93.9375 Z M 74.238281 93.9375 "/>
<path style=" stroke:none;fill-rule:nonzero;fill:rgb(75.294118%,60%,36.470588%);fill-opacity:1;" d="M 80.921875 75.003906 C 80.863281 75.417969 80.773438 75.859375 80.597656 76.183594 C 80.214844 76.890625 79.773438 77.746094 79.125 77.597656 L 78.832031 77.304688 C 79.363281 76.6875 79.714844 75.863281 79.890625 75.007812 C 80.007812 74.449219 80.066406 73.859375 80.039062 73.300781 C 80.421875 73.035156 80.6875 73.449219 80.980469 73.683594 C 80.953125 73.679688 81.011719 74.296875 80.921875 75.003906 Z M 80.921875 75.003906 "/>
<path style=" stroke:none;fill-rule:nonzero;fill:rgb(75.294118%,60%,36.470588%);fill-opacity:1;" d="M 50.386719 86.457031 C 49.0625 86.898438 47.855469 86.132812 47.148438 84.925781 C 46.796875 84.308594 46.796875 83.660156 46.796875 83.070312 C 46.796875 82.863281 46.828125 82.65625 46.796875 82.453125 C 46.886719 81.980469 47.355469 81.394531 47.738281 81.304688 C 47.679688 81.980469 47.648438 82.542969 47.707031 83.070312 C 47.765625 83.484375 47.882812 83.867188 48.121094 84.277344 C 48.652344 85.191406 49.976562 85.632812 51.183594 85.308594 C 51.597656 85.21875 51.535156 84.984375 51.832031 85.21875 C 52.003906 85.988281 51.0625 86.253906 50.386719 86.457031 Z M 50.386719 86.457031 "/>
<path style=" stroke:none;fill-rule:nonzero;fill:rgb(75.294118%,60%,36.470588%);fill-opacity:1;" d="M 105.511719 92.347656 C 101.183594 93.671875 94.4375 97.355469 94.4375 97.355469 C 94.4375 97.355469 89.84375 94.46875 87.074219 93.203125 C 85.71875 92.585938 84.363281 91.9375 83.070312 91.171875 C 80.980469 89.992188 79.007812 88.667969 77.238281 87.136719 C 76.058594 86.105469 75 85.015625 74.058594 83.839844 C 74.058594 83.839844 76.238281 85.402344 79.183594 87.136719 C 81.6875 88.609375 84.75 90.230469 87.488281 91.171875 C 88.285156 91.4375 89.078125 91.671875 89.816406 91.789062 C 91.9375 92.230469 94.117188 91.964844 95.914062 91.496094 C 95.972656 92.878906 94.914062 93.378906 93.765625 93.96875 C 95.089844 94.085938 96.769531 93.4375 97.828125 92.46875 C 98.179688 92.085938 98.445312 91.644531 98.625 91.144531 C 99.097656 89.878906 99.066406 88.347656 98.976562 87.109375 C 100.566406 88.375 102.539062 89.757812 104.1875 91.144531 C 104.6875 91.582031 105.128906 91.9375 105.511719 92.347656 Z M 105.511719 92.347656 "/>
<path style=" stroke:none;fill-rule:nonzero;fill:rgb(75.294118%,60%,36.470588%);fill-opacity:1;" d="M 134.105469 90.609375 C 134.105469 90.726562 133.046875 90.960938 131.632812 91.167969 C 129.570312 91.492188 126.6875 91.816406 125.183594 91.785156 C 123.328125 91.726562 118.558594 92.375 114.140625 91.167969 C 112.550781 90.726562 110.988281 90.050781 109.636719 89.019531 C 108.929688 88.460938 108.105469 87.78125 107.398438 87.136719 C 107.339844 87.105469 107.308594 87.046875 107.28125 87.019531 C 105.925781 85.78125 104.660156 84.457031 103.453125 83.074219 C 102.273438 81.75 101.1875 80.363281 100.183594 79.011719 C 99.125 77.597656 98.179688 76.214844 97.355469 74.976562 C 95.324219 71.882812 94.117188 69.585938 93.96875 69.324219 C 94.117188 69.472656 96.441406 72.09375 99.210938 74.976562 C 100.535156 76.359375 101.949219 77.773438 103.246094 79.011719 C 104.660156 80.335938 105.925781 81.457031 106.867188 82.105469 C 107.339844 82.429688 107.898438 82.753906 108.457031 83.078125 C 110.902344 84.460938 114.082031 85.875 116.910156 87.023438 C 117 87.054688 117.085938 87.082031 117.175781 87.113281 C 118.675781 87.703125 120.269531 88.320312 121.355469 88.703125 C 125.066406 89.992188 134.105469 90.347656 134.105469 90.609375 Z M 134.105469 90.609375 "/>
<path style=" stroke:none;fill-rule:nonzero;fill:rgb(75.294118%,60%,36.470588%);fill-opacity:1;" d="M 149.566406 85.28125 C 149.566406 85.515625 128.660156 86.339844 115.847656 83.101562 C 114.082031 82.660156 112.460938 82.128906 111.078125 81.511719 C 109.78125 80.921875 108.367188 80.070312 106.957031 79.066406 C 105.277344 77.859375 103.570312 76.445312 101.980469 75.03125 C 97.738281 71.234375 94.292969 67.34375 94.058594 67.082031 C 94.324219 67.257812 98.652344 69.9375 102.039062 71.410156 C 103.894531 72.234375 107.015625 73.265625 111.34375 75.03125 C 113.90625 76.089844 116.878906 77.386719 120.238281 79.066406 C 121.800781 79.863281 123.449219 80.714844 125.183594 81.65625 C 126.242188 82.214844 127.511719 82.714844 128.953125 83.097656 C 137.019531 85.339844 149.566406 85.046875 149.566406 85.28125 Z M 149.566406 85.28125 "/>
<path style=" stroke:none;fill-rule:nonzero;fill:rgb(75.294118%,60%,36.470588%);fill-opacity:1;" d="M 134.695312 78.007812 C 134.695312 78.007812 132.25 79.125 125.917969 77.742188 C 123.0625 77.09375 120.734375 76.121094 118.351562 75.003906 C 115.496094 73.648438 112.550781 72.148438 108.546875 70.851562 C 101.242188 68.523438 100.417969 68.523438 97.769531 67.023438 C 95.296875 65.609375 93.734375 64.519531 93.558594 64.375 C 93.824219 64.464844 96.738281 65.523438 98.917969 65.816406 C 101.183594 66.140625 116.378906 67.90625 122.003906 70.96875 C 124.683594 72.410156 126.363281 73.882812 127.628906 75.003906 C 128.484375 75.738281 129.160156 76.328125 129.867188 76.652344 C 131.601562 77.449219 134.695312 77.652344 134.695312 78.007812 Z M 134.695312 78.007812 "/>
<path style=" stroke:none;fill-rule:nonzero;fill:rgb(0%,25.882353%,53.333333%);fill-opacity:1;" d="M 183.046875 126.742188 L 183.015625 126.683594 L 182.367188 126.683594 L 182.660156 127.097656 L 183.425781 127.097656 L 183.425781 126.949219 C 183.253906 126.980469 183.136719 126.890625 183.046875 126.742188 Z M 181.25 126.742188 L 180.691406 126.710938 C 180.660156 126.945312 180.542969 127.003906 180.277344 127.003906 L 180.277344 127.121094 L 181.691406 127.121094 L 181.691406 126.972656 C 181.515625 126.980469 181.25 126.949219 181.25 126.742188 Z M 184.078125 126.714844 C 183.636719 127.539062 182.78125 128.097656 181.78125 128.097656 C 180.78125 128.097656 179.925781 127.539062 179.515625 126.714844 L 179.191406 126.714844 C 179.632812 127.6875 180.632812 128.394531 181.78125 128.394531 C 182.929688 128.394531 183.960938 127.71875 184.402344 126.714844 Z M 182.105469 125.535156 C 182.546875 125.476562 182.902344 125.183594 182.902344 124.738281 C 182.902344 124.121094 182.3125 123.855469 181.785156 123.855469 C 181.3125 123.855469 180.8125 123.855469 180.3125 123.855469 L 180.3125 124.003906 C 180.664062 124.003906 180.664062 124.09375 180.664062 124.417969 L 180.664062 126.714844 L 181.222656 126.714844 L 181.222656 125.597656 L 181.488281 125.597656 L 182.3125 126.714844 L 182.960938 126.714844 Z M 181.25 125.417969 L 181.25 124.121094 C 181.308594 124.121094 181.339844 124.121094 181.398438 124.121094 C 181.839844 124.121094 182.371094 124.238281 182.371094 124.738281 C 182.371094 125.300781 181.664062 125.390625 181.25 125.417969 Z M 183.046875 126.742188 L 183.015625 126.683594 L 182.132812 125.503906 C 182.574219 125.445312 182.929688 125.152344 182.929688 124.707031 C 182.929688 124.089844 182.339844 123.824219 181.8125 123.824219 C 181.339844 123.824219 180.839844 123.824219 180.339844 123.824219 L 180.339844 123.972656 C 180.691406 123.972656 180.691406 124.0625 180.691406 124.386719 L 180.691406 126.683594 C 180.660156 126.917969 180.542969 126.976562 180.277344 126.976562 L 180.277344 127.09375 L 181.691406 127.09375 L 181.691406 126.945312 C 181.515625 126.945312 181.25 126.914062 181.25 126.679688 L 181.25 125.53125 L 181.515625 125.53125 L 182.339844 126.648438 L 182.632812 127.0625 L 183.398438 127.0625 L 183.402344 126.921875 C 183.253906 126.980469 183.136719 126.890625 183.046875 126.742188 Z M 181.25 125.417969 L 181.25 124.121094 C 181.308594 124.121094 181.339844 124.121094 181.398438 124.121094 C 181.839844 124.121094 182.371094 124.238281 182.371094 124.738281 C 182.371094 125.300781 181.664062 125.390625 181.25 125.417969 Z M 183.046875 126.742188 L 183.015625 126.683594 L 182.132812 125.503906 C 182.574219 125.445312 182.929688 125.152344 182.929688 124.707031 C 182.929688 124.089844 182.339844 123.824219 181.8125 123.824219 C 181.339844 123.824219 180.839844 123.824219 180.339844 123.824219 L 180.339844 123.972656 C 180.691406 123.972656 180.691406 124.0625 180.691406 124.386719 L 180.691406 126.683594 C 180.660156 126.917969 180.542969 126.976562 180.277344 126.976562 L 180.277344 127.09375 L 181.691406 127.09375 L 181.691406 126.945312 C 181.515625 126.945312 181.25 126.914062 181.25 126.679688 L 181.25 125.53125 L 181.515625 125.53125 L 182.339844 126.648438 L 182.632812 127.0625 L 183.398438 127.0625 L 183.402344 126.921875 C 183.253906 126.980469 183.136719 126.890625 183.046875 126.742188 Z M 181.25 125.417969 L 181.25 124.121094 C 181.308594 124.121094 181.339844 124.121094 181.398438 124.121094 C 181.839844 124.121094 182.371094 124.238281 182.371094 124.738281 C 182.371094 125.300781 181.664062 125.390625 181.25 125.417969 Z M 183.046875 126.742188 L 183.015625 126.683594 L 182.132812 125.503906 C 182.574219 125.445312 182.929688 125.152344 182.929688 124.707031 C 182.929688 124.089844 182.339844 123.824219 181.8125 123.824219 C 181.339844 123.824219 180.839844 123.824219 180.339844 123.824219 L 180.339844 123.972656 C 180.691406 123.972656 180.691406 124.0625 180.691406 124.386719 L 180.691406 126.683594 C 180.660156 126.917969 180.542969 126.976562 180.277344 126.976562 L 180.277344 127.09375 L 181.691406 127.09375 L 181.691406 126.945312 C 181.515625 126.945312 181.25 126.914062 181.25 126.679688 L 181.25 125.53125 L 181.515625 125.53125 L 182.339844 126.648438 L 182.632812 127.0625 L 183.398438 127.0625 L 183.402344 126.921875 C 183.253906 126.980469 183.136719 126.890625 183.046875 126.742188 Z M 181.25 125.417969 L 181.25 124.121094 C 181.308594 124.121094 181.339844 124.121094 181.398438 124.121094 C 181.839844 124.121094 182.371094 124.238281 182.371094 124.738281 C 182.371094 125.300781 181.664062 125.390625 181.25 125.417969 Z M 183.046875 126.742188 L 183.015625 126.683594 L 182.132812 125.503906 C 182.574219 125.445312 182.929688 125.152344 182.929688 124.707031 C 182.929688 124.089844 182.339844 123.824219 181.8125 123.824219 C 181.339844 123.824219 180.839844 123.824219 180.339844 123.824219 L 180.339844 123.972656 C 180.691406 123.972656 180.691406 124.0625 180.691406 124.386719 L 180.691406 126.683594 C 180.660156 126.917969 180.542969 126.976562 180.277344 126.976562 L 180.277344 127.09375 L 181.691406 127.09375 L 181.691406 126.945312 C 181.515625 126.945312 181.25 126.914062 181.25 126.679688 L 181.25 125.53125 L 181.515625 125.53125 L 182.339844 126.648438 L 182.632812 127.0625 L 183.398438 127.0625 L 183.402344 126.921875 C 183.253906 126.980469 183.136719 126.890625 183.046875 126.742188 Z M 181.25 125.417969 L 181.25 124.121094 C 181.308594 124.121094 181.339844 124.121094 181.398438 124.121094 C 181.839844 124.121094 182.371094 124.238281 182.371094 124.738281 C 182.371094 125.300781 181.664062 125.390625 181.25 125.417969 Z M 183.046875 126.742188 L 183.015625 126.683594 L 182.132812 125.503906 C 182.574219 125.445312 182.929688 125.152344 182.929688 124.707031 C 182.929688 124.089844 182.339844 123.824219 181.8125 123.824219 C 181.339844 123.824219 180.839844 123.824219 180.339844 123.824219 L 180.339844 123.972656 C 180.691406 123.972656 180.691406 124.0625 180.691406 124.386719 L 180.691406 126.683594 C 180.660156 126.917969 180.542969 126.976562 180.277344 126.976562 L 180.277344 127.09375 L 181.691406 127.09375 L 181.691406 126.945312 C 181.515625 126.945312 181.25 126.914062 181.25 126.679688 L 181.25 125.53125 L 181.515625 125.53125 L 182.339844 126.648438 L 182.632812 127.0625 L 183.398438 127.0625 L 183.402344 126.921875 C 183.253906 126.980469 183.136719 126.890625 183.046875 126.742188 Z M 181.25 125.417969 L 181.25 124.121094 C 181.308594 124.121094 181.339844 124.121094 181.398438 124.121094 C 181.839844 124.121094 182.371094 124.238281 182.371094 124.738281 C 182.371094 125.300781 181.664062 125.390625 181.25 125.417969 Z M 183.046875 126.742188 L 183.015625 126.683594 L 182.132812 125.503906 C 182.574219 125.445312 182.929688 125.152344 182.929688 124.707031 C 182.929688 124.089844 182.339844 123.824219 181.8125 123.824219 C 181.339844 123.824219 180.839844 123.824219 180.339844 123.824219 L 180.339844 123.972656 C 180.691406 123.972656 180.691406 124.0625 180.691406 124.386719 L 180.691406 126.683594 C 180.660156 126.917969 180.542969 126.976562 180.277344 126.976562 L 180.277344 127.09375 L 181.691406 127.09375 L 181.691406 126.945312 C 181.515625 126.945312 181.25 126.914062 181.25 126.679688 L 181.25 125.53125 L 181.515625 125.53125 L 182.339844 126.648438 L 182.632812 127.0625 L 183.398438 127.0625 L 183.402344 126.921875 C 183.253906 126.980469 183.136719 126.890625 183.046875 126.742188 Z M 181.25 125.417969 L 181.25 124.121094 C 181.308594 124.121094 181.339844 124.121094 181.398438 124.121094 C 181.839844 124.121094 182.371094 124.238281 182.371094 124.738281 C 182.371094 125.300781 181.664062 125.390625 181.25 125.417969 Z M 183.046875 126.742188 L 183.015625 126.683594 L 182.132812 125.503906 C 182.574219 125.445312 182.929688 125.152344 182.929688 124.707031 C 182.929688 124.089844 182.339844 123.824219 181.8125 123.824219 C 181.339844 123.824219 180.839844 123.824219 180.339844 123.824219 L 180.339844 123.972656 C 180.691406 123.972656 180.691406 124.0625 180.691406 124.386719 L 180.691406 126.683594 C 180.660156 126.917969 180.542969 126.976562 180.277344 126.976562 L 180.277344 127.09375 L 181.691406 127.09375 L 181.691406 126.945312 C 181.515625 126.945312 181.25 126.914062 181.25 126.679688 L 181.25 125.53125 L 181.515625 125.53125 L 182.339844 126.648438 L 182.632812 127.0625 L 183.398438 127.0625 L 183.402344 126.921875 C 183.253906 126.980469 183.136719 126.890625 183.046875 126.742188 Z M 181.25 125.417969 L 181.25 124.121094 C 181.308594 124.121094 181.339844 124.121094 181.398438 124.121094 C 181.839844 124.121094 182.371094 124.238281 182.371094 124.738281 C 182.371094 125.300781 181.664062 125.390625 181.25 125.417969 Z M 183.046875 126.742188 L 183.015625 126.683594 L 182.132812 125.503906 C 182.574219 125.445312 182.929688 125.152344 182.929688 124.707031 C 182.929688 124.089844 182.339844 123.824219 181.8125 123.824219 C 181.339844 123.824219 180.839844 123.824219 180.339844 123.824219 L 180.339844 123.972656 C 180.691406 123.972656 180.691406 124.0625 180.691406 124.386719 L 180.691406 126.683594 C 180.660156 126.917969 180.542969 126.976562 180.277344 126.976562 L 180.277344 127.09375 L 181.691406 127.09375 L 181.691406 126.945312 C 181.515625 126.945312 181.25 126.914062 181.25 126.679688 L 181.25 125.53125 L 181.515625 125.53125 L 182.339844 126.648438 L 182.632812 127.0625 L 183.398438 127.0625 L 183.402344 126.921875 C 183.253906 126.980469 183.136719 126.890625 183.046875 126.742188 Z M 181.25 125.417969 L 181.25 124.121094 C 181.308594 124.121094 181.339844 124.121094 181.398438 124.121094 C 181.839844 124.121094 182.371094 124.238281 182.371094 124.738281 C 182.371094 125.300781 181.664062 125.390625 181.25 125.417969 Z M 183.046875 126.742188 L 183.015625 126.683594 L 182.132812 125.503906 C 182.574219 125.445312 182.929688 125.152344 182.929688 124.707031 C 182.929688 124.089844 182.339844 123.824219 181.8125 123.824219 C 181.339844 123.824219 180.839844 123.824219 180.339844 123.824219 L 180.339844 123.972656 C 180.691406 123.972656 180.691406 124.0625 180.691406 124.386719 L 180.691406 126.683594 C 180.660156 126.917969 180.542969 126.976562 180.277344 126.976562 L 180.277344 127.09375 L 181.691406 127.09375 L 181.691406 126.945312 C 181.515625 126.945312 181.25 126.914062 181.25 126.679688 L 181.25 125.53125 L 181.515625 125.53125 L 182.339844 126.648438 L 182.632812 127.0625 L 183.398438 127.0625 L 183.402344 126.921875 C 183.253906 126.980469 183.136719 126.890625 183.046875 126.742188 Z M 181.25 125.417969 L 181.25 124.121094 C 181.308594 124.121094 181.339844 124.121094 181.398438 124.121094 C 181.839844 124.121094 182.371094 124.238281 182.371094 124.738281 C 182.371094 125.300781 181.664062 125.390625 181.25 125.417969 Z M 181.78125 122.738281 C 180.191406 122.738281 178.925781 124.003906 178.925781 125.566406 C 178.925781 125.980469 179.015625 126.363281 179.191406 126.714844 L 179.515625 126.714844 C 179.339844 126.363281 179.222656 125.980469 179.222656 125.566406 C 179.222656 124.183594 180.371094 123.035156 181.785156 123.035156 C 183.199219 123.035156 184.347656 124.183594 184.347656 125.566406 C 184.347656 125.980469 184.257812 126.363281 184.082031 126.714844 L 184.40625 126.714844 C 184.582031 126.363281 184.671875 125.980469 184.671875 125.566406 C 184.636719 124.003906 183.34375 122.738281 181.78125 122.738281 Z M 182.988281 126.714844 L 182.105469 125.535156 C 182.546875 125.476562 182.902344 125.183594 182.902344 124.738281 C 182.902344 124.121094 182.3125 123.855469 181.785156 123.855469 C 181.3125 123.855469 180.8125 123.855469 180.3125 123.855469 L 180.3125 124.003906 C 180.664062 124.003906 180.664062 124.09375 180.664062 124.417969 L 180.664062 126.714844 C 180.632812 126.949219 180.515625 127.007812 180.25 127.007812 L 180.25 127.125 L 181.664062 127.125 L 181.664062 126.976562 C 181.488281 126.976562 181.222656 126.945312 181.222656 126.710938 L 181.222656 125.5625 L 181.488281 125.5625 L 182.3125 126.679688 L 182.605469 127.09375 L 183.371094 127.09375 L 183.371094 126.945312 C 183.195312 126.949219 183.078125 126.863281 182.988281 126.714844 Z M 181.25 125.417969 L 181.25 124.121094 C 181.308594 124.121094 181.339844 124.121094 181.398438 124.121094 C 181.839844 124.121094 182.371094 124.238281 182.371094 124.738281 C 182.371094 125.300781 181.664062 125.390625 181.25 125.417969 Z M 183.046875 126.742188 L 183.015625 126.683594 L 182.132812 125.503906 C 182.574219 125.445312 182.929688 125.152344 182.929688 124.707031 C 182.929688 124.089844 182.339844 123.824219 181.8125 123.824219 C 181.339844 123.824219 180.839844 123.824219 180.339844 123.824219 L 180.339844 123.972656 C 180.691406 123.972656 180.691406 124.0625 180.691406 124.386719 L 180.691406 126.683594 C 180.660156 126.917969 180.542969 126.976562 180.277344 126.976562 L 180.277344 127.09375 L 181.691406 127.09375 L 181.691406 126.945312 C 181.515625 126.945312 181.25 126.914062 181.25 126.679688 L 181.25 125.53125 L 181.515625 125.53125 L 182.339844 126.648438 L 182.632812 127.0625 L 183.398438 127.0625 L 183.402344 126.921875 C 183.253906 126.980469 183.136719 126.890625 183.046875 126.742188 Z M 181.25 125.417969 L 181.25 124.121094 C 181.308594 124.121094 181.339844 124.121094 181.398438 124.121094 C 181.839844 124.121094 182.371094 124.238281 182.371094 124.738281 C 182.371094 125.300781 181.664062 125.390625 181.25 125.417969 Z M 183.046875 126.742188 L 183.015625 126.683594 L 182.132812 125.503906 C 182.574219 125.445312 182.929688 125.152344 182.929688 124.707031 C 182.929688 124.089844 182.339844 123.824219 181.8125 123.824219 C 181.339844 123.824219 180.839844 123.824219 180.339844 123.824219 L 180.339844 123.972656 C 180.691406 123.972656 180.691406 124.0625 180.691406 124.386719 L 180.691406 126.683594 C 180.660156 126.917969 180.542969 126.976562 180.277344 126.976562 L 180.277344 127.09375 L 181.691406 127.09375 L 181.691406 126.945312 C 181.515625 126.945312 181.25 126.914062 181.25 126.679688 L 181.25 125.53125 L 181.515625 125.53125 L 182.339844 126.648438 L 182.632812 127.0625 L 183.398438 127.0625 L 183.402344 126.921875 C 183.253906 126.980469 183.136719 126.890625 183.046875 126.742188 Z M 181.25 125.417969 L 181.25 124.121094 C 181.308594 124.121094 181.339844 124.121094 181.398438 124.121094 C 181.839844 124.121094 182.371094 124.238281 182.371094 124.738281 C 182.371094 125.300781 181.664062 125.390625 181.25 125.417969 Z M 183.046875 126.742188 L 183.015625 126.683594 L 182.132812 125.503906 C 182.574219 125.445312 182.929688 125.152344 182.929688 124.707031 C 182.929688 124.089844 182.339844 123.824219 181.8125 123.824219 C 181.339844 123.824219 180.839844 123.824219 180.339844 123.824219 L 180.339844 123.972656 C 180.691406 123.972656 180.691406 124.0625 180.691406 124.386719 L 180.691406 126.683594 C 180.660156 126.917969 180.542969 126.976562 180.277344 126.976562 L 180.277344 127.09375 L 181.691406 127.09375 L 181.691406 126.945312 C 181.515625 126.945312 181.25 126.914062 181.25 126.679688 L 181.25 125.53125 L 181.515625 125.53125 L 182.339844 126.648438 L 182.632812 127.0625 L 183.398438 127.0625 L 183.402344 126.921875 C 183.253906 126.980469 183.136719 126.890625 183.046875 126.742188 Z M 181.25 125.417969 L 181.25 124.121094 C 181.308594 124.121094 181.339844 124.121094 181.398438 124.121094 C 181.839844 124.121094 182.371094 124.238281 182.371094 124.738281 C 182.371094 125.300781 181.664062 125.390625 181.25 125.417969 Z M 183.046875 126.742188 L 183.015625 126.683594 L 182.132812 125.503906 C 182.574219 125.445312 182.929688 125.152344 182.929688 124.707031 C 182.929688 124.089844 182.339844 123.824219 181.8125 123.824219 C 181.339844 123.824219 180.839844 123.824219 180.339844 123.824219 L 180.339844 123.972656 C 180.691406 123.972656 180.691406 124.0625 180.691406 124.386719 L 180.691406 126.683594 C 180.660156 126.917969 180.542969 126.976562 180.277344 126.976562 L 180.277344 127.09375 L 181.691406 127.09375 L 181.691406 126.945312 C 181.515625 126.945312 181.25 126.914062 181.25 126.679688 L 181.25 125.53125 L 181.515625 125.53125 L 182.339844 126.648438 L 182.632812 127.0625 L 183.398438 127.0625 L 183.402344 126.921875 C 183.253906 126.980469 183.136719 126.890625 183.046875 126.742188 Z M 181.25 125.417969 L 181.25 124.121094 C 181.308594 124.121094 181.339844 124.121094 181.398438 124.121094 C 181.839844 124.121094 182.371094 124.238281 182.371094 124.738281 C 182.371094 125.300781 181.664062 125.390625 181.25 125.417969 Z M 183.046875 126.742188 L 183.015625 126.683594 L 182.132812 125.503906 C 182.574219 125.445312 182.929688 125.152344 182.929688 124.707031 C 182.929688 124.089844 182.339844 123.824219 181.8125 123.824219 C 181.339844 123.824219 180.839844 123.824219 180.339844 123.824219 L 180.339844 123.972656 C 180.691406 123.972656 180.691406 124.0625 180.691406 124.386719 L 180.691406 126.683594 C 180.660156 126.917969 180.542969 126.976562 180.277344 126.976562 L 180.277344 127.09375 L 181.691406 127.09375 L 181.691406 126.945312 C 181.515625 126.945312 181.25 126.914062 181.25 126.679688 L 181.25 125.53125 L 181.515625 125.53125 L 182.339844 126.648438 L 182.632812 127.0625 L 183.398438 127.0625 L 183.402344 126.921875 C 183.253906 126.980469 183.136719 126.890625 183.046875 126.742188 Z M 181.25 125.417969 L 181.25 124.121094 C 181.308594 124.121094 181.339844 124.121094 181.398438 124.121094 C 181.839844 124.121094 182.371094 124.238281 182.371094 124.738281 C 182.371094 125.300781 181.664062 125.390625 181.25 125.417969 Z M 183.046875 126.742188 L 183.015625 126.683594 L 182.132812 125.503906 C 182.574219 125.445312 182.929688 125.152344 182.929688 124.707031 C 182.929688 124.089844 182.339844 123.824219 181.8125 123.824219 C 181.339844 123.824219 180.839844 123.824219 180.339844 123.824219 L 180.339844 123.972656 C 180.691406 123.972656 180.691406 124.0625 180.691406 124.386719 L 180.691406 126.683594 C 180.660156 126.917969 180.542969 126.976562 180.277344 126.976562 L 180.277344 127.09375 L 181.691406 127.09375 L 181.691406 126.945312 C 181.515625 126.945312 181.25 126.914062 181.25 126.679688 L 181.25 125.53125 L 181.515625 125.53125 L 182.339844 126.648438 L 182.632812 127.0625 L 183.398438 127.0625 L 183.402344 126.921875 C 183.253906 126.980469 183.136719 126.890625 183.046875 126.742188 Z M 181.25 125.417969 L 181.25 124.121094 C 181.308594 124.121094 181.339844 124.121094 181.398438 124.121094 C 181.839844 124.121094 182.371094 124.238281 182.371094 124.738281 C 182.371094 125.300781 181.664062 125.390625 181.25 125.417969 Z M 183.046875 126.742188 L 183.015625 126.683594 L 182.132812 125.503906 C 182.574219 125.445312 182.929688 125.152344 182.929688 124.707031 C 182.929688 124.089844 182.339844 123.824219 181.8125 123.824219 C 181.339844 123.824219 180.839844 123.824219 180.339844 123.824219 L 180.339844 123.972656 C 180.691406 123.972656 180.691406 124.0625 180.691406 124.386719 L 180.691406 126.683594 C 180.660156 126.917969 180.542969 126.976562 180.277344 126.976562 L 180.277344 127.09375 L 181.691406 127.09375 L 181.691406 126.945312 C 181.515625 126.945312 181.25 126.914062 181.25 126.679688 L 181.25 125.53125 L 181.515625 125.53125 L 182.339844 126.648438 L 182.632812 127.0625 L 183.398438 127.0625 L 183.402344 126.921875 C 183.253906 126.980469 183.136719 126.890625 183.046875 126.742188 Z M 181.25 125.417969 L 181.25 124.121094 C 181.308594 124.121094 181.339844 124.121094 181.398438 124.121094 C 181.839844 124.121094 182.371094 124.238281 182.371094 124.738281 C 182.371094 125.300781 181.664062 125.390625 181.25 125.417969 Z M 183.046875 126.742188 L 183.015625 126.683594 L 182.132812 125.503906 C 182.574219 125.445312 182.929688 125.152344 182.929688 124.707031 C 182.929688 124.089844 182.339844 123.824219 181.8125 123.824219 C 181.339844 123.824219 180.839844 123.824219 180.339844 123.824219 L 180.339844 123.972656 C 180.691406 123.972656 180.691406 124.0625 180.691406 124.386719 L 180.691406 126.683594 C 180.660156 126.917969 180.542969 126.976562 180.277344 126.976562 L 180.277344 127.09375 L 181.691406 127.09375 L 181.691406 126.945312 C 181.515625 126.945312 181.25 126.914062 181.25 126.679688 L 181.25 125.53125 L 181.515625 125.53125 L 182.339844 126.648438 L 182.632812 127.0625 L 183.398438 127.0625 L 183.402344 126.921875 C 183.253906 126.980469 183.136719 126.890625 183.046875 126.742188 Z M 181.25 125.417969 L 181.25 124.121094 C 181.308594 124.121094 181.339844 124.121094 181.398438 124.121094 C 181.839844 124.121094 182.371094 124.238281 182.371094 124.738281 C 182.371094 125.300781 181.664062 125.390625 181.25 125.417969 Z M 181.25 125.417969 "/>
<path style=" stroke:none;fill-rule:nonzero;fill:rgb(0%,25.882353%,53.333333%);fill-opacity:1;" d="M 176.597656 114.640625 L 176.597656 128.394531 L 169.914062 128.394531 L 169.914062 115.261719 C 169.914062 115.027344 169.914062 114.820312 169.914062 114.644531 C 169.855469 113.082031 169.5 112.171875 168.941406 111.40625 C 168.527344 110.816406 167.5 110.40625 166.910156 110.40625 C 165.554688 110.40625 164.171875 111.140625 163.023438 112.085938 L 163.023438 128.394531 L 156.367188 128.394531 L 156.367188 107.015625 L 162.964844 105.957031 L 162.964844 108.871094 C 166.058594 106.925781 167.589844 106.339844 170.269531 106.339844 C 173.890625 106.308594 176.597656 108.839844 176.597656 114.640625 Z M 176.597656 114.640625 "/>
<path style=" stroke:none;fill-rule:nonzero;fill:rgb(0%,25.882353%,53.333333%);fill-opacity:1;" d="M 154.808594 128.363281 L 148.300781 128.363281 C 146.945312 128.363281 146.355469 127.949219 146.210938 126.683594 C 146.179688 126.449219 146.179688 126.183594 146.179688 125.886719 L 146.179688 117.613281 L 145.648438 117.613281 C 144.882812 117.613281 140.496094 118.585938 140.496094 122.765625 C 140.496094 123.441406 140.761719 125.152344 141.792969 125.503906 C 142.144531 125.621094 142.882812 125.652344 143.03125 125.652344 C 143.914062 125.652344 144.796875 125.386719 145.769531 125.09375 C 145.679688 125.445312 145.59375 126.09375 145.503906 126.683594 C 145.445312 127.183594 145.386719 127.65625 145.328125 127.980469 C 144.089844 128.394531 143.03125 128.804688 141.734375 128.953125 C 140.96875 129.011719 140.585938 129.011719 140.410156 129.011719 C 138.230469 129.011719 136.023438 128.304688 134.757812 126.714844 C 134.082031 125.859375 133.667969 124.710938 133.667969 123.300781 C 133.667969 116.054688 146.183594 114.9375 146.183594 114.9375 L 146.183594 113.054688 C 146.183594 112.320312 146.007812 109.316406 142.207031 109.316406 C 140.117188 109.316406 136.464844 110.140625 135.40625 110.554688 L 135.789062 107.667969 C 136.554688 107.402344 140.03125 106.34375 141.265625 106.195312 C 147.363281 105.460938 150.453125 107.757812 151.453125 109.050781 C 152.335938 110.199219 152.894531 112.144531 152.894531 113.554688 L 152.894531 125.449219 C 152.894531 125.890625 152.984375 126.304688 153.160156 126.6875 C 153.480469 127.539062 154.101562 128.214844 154.808594 128.363281 Z M 154.808594 128.363281 "/>
<path style=" stroke:none;fill-rule:nonzero;fill:rgb(0%,25.882353%,53.333333%);fill-opacity:1;" d="M 132.160156 116.554688 C 132.160156 120.648438 130.71875 124.445312 127.917969 126.714844 C 126.445312 127.921875 124.621094 128.6875 122.441406 128.863281 C 121.675781 128.921875 121.261719 128.921875 121.117188 128.921875 C 120.175781 128.921875 119.320312 128.746094 118.023438 128.304688 C 117.933594 128.011719 117.789062 127.304688 117.671875 126.714844 C 117.554688 126.097656 117.464844 125.566406 117.464844 125.566406 C 118.320312 125.917969 119.203125 126.214844 120.113281 126.214844 C 123.292969 126.214844 125.179688 123.359375 125.179688 117.46875 C 125.179688 116.792969 125.089844 115.730469 124.886719 114.640625 C 124.5625 112.933594 123.886719 111.105469 122.679688 110.398438 C 122.148438 110.105469 121.296875 109.722656 120.734375 109.722656 C 119.585938 109.722656 118.144531 110.164062 116.996094 110.988281 L 116.996094 138.550781 L 110.339844 138.550781 L 110.339844 106.953125 L 117.023438 105.953125 L 117.023438 107.984375 C 118.703125 107.042969 120.734375 106.363281 122.414062 106.21875 C 123.179688 106.128906 123.503906 106.128906 123.652344 106.128906 C 125.625 106.128906 127.804688 106.777344 129.75 108.925781 C 130.101562 109.339844 130.398438 109.867188 130.632812 110.308594 C 131.367188 111.722656 131.871094 113.195312 132.046875 114.636719 C 132.046875 114.84375 132.078125 115.019531 132.078125 115.226562 C 132.132812 116.054688 132.160156 116.378906 132.160156 116.554688 Z M 132.160156 116.554688 "/>
<path style=" stroke:none;fill-rule:nonzero;fill:rgb(0%,25.882353%,53.333333%);fill-opacity:1;" d="M 107.601562 121.707031 C 107.601562 123.207031 107.160156 125.210938 105.480469 126.714844 C 104.066406 127.980469 101.710938 128.921875 97.941406 128.921875 C 94.613281 128.921875 91.582031 127.773438 91.375 127.683594 C 91.285156 127.359375 91.199219 127.035156 91.109375 126.710938 C 90.933594 126.035156 90.785156 125.328125 90.578125 124.621094 C 91.695312 125.003906 94.023438 126.121094 97.027344 126.121094 C 99.617188 126.121094 101.355469 124.765625 101.355469 123.117188 C 101.355469 122.320312 100.882812 121.378906 99.824219 120.761719 C 97.175781 119.230469 94.230469 118.671875 91.726562 115.960938 C 91.375 115.578125 91.136719 115.105469 90.960938 114.605469 C 90.753906 113.957031 90.667969 113.308594 90.667969 112.808594 C 90.667969 108.980469 94.203125 106.152344 99.621094 106.152344 C 102.742188 106.152344 105.070312 107.390625 105.070312 107.390625 C 105.070312 107.390625 105.6875 109.539062 105.925781 110.570312 C 103.894531 109.597656 102.15625 108.980469 100.273438 108.980469 C 99.214844 108.980469 96.859375 109.332031 96.859375 111.425781 C 96.859375 112.78125 98.683594 113.632812 100.835938 114.605469 C 103.921875 116.023438 107.601562 117.734375 107.601562 121.707031 Z M 107.601562 121.707031 "/>
<path style=" stroke:none;fill-rule:nonzero;fill:rgb(0%,25.882353%,53.333333%);fill-opacity:1;" d="M 86.988281 126.714844 C 82.808594 124.476562 74.945312 125.714844 74.945312 124.035156 C 74.945312 123.59375 75.5625 122.472656 75.742188 122.121094 C 76.449219 122.238281 76.566406 122.386719 78.214844 122.386719 C 85.605469 122.386719 87.816406 117.144531 87.816406 114.730469 L 87.816406 114.640625 C 87.816406 112.726562 87.285156 111.285156 85.578125 109.222656 L 88.492188 109.664062 L 88.492188 106.277344 L 77.890625 106.277344 C 74.296875 106.277344 68.671875 109.074219 68.671875 114.226562 C 68.671875 114.375 68.671875 114.492188 68.671875 114.640625 C 68.761719 117.054688 69.730469 119.085938 73.058594 121.148438 C 71.320312 122.589844 69.671875 124.445312 69.671875 126.125 C 69.671875 126.332031 69.703125 126.539062 69.730469 126.714844 C 70.054688 128.277344 71.613281 129.160156 72.175781 129.335938 C 75.445312 130.367188 78.800781 129.660156 82.128906 131.21875 C 82.925781 131.570312 83.542969 132.160156 83.691406 132.75 C 83.691406 132.839844 83.691406 132.898438 83.691406 132.957031 C 83.691406 135.195312 79.628906 135.960938 77.683594 135.960938 C 77.507812 135.960938 77.269531 135.929688 76.566406 135.902344 C 74.328125 135.785156 72.089844 135.195312 69.851562 134.519531 C 70.175781 135.578125 70.410156 136.550781 70.734375 137.550781 C 72.617188 138.167969 74.03125 138.492188 76.417969 138.730469 L 78.65625 138.789062 C 82.367188 138.789062 88.050781 137.464844 89.257812 132.753906 C 89.40625 132.164062 89.492188 131.515625 89.492188 130.839844 C 89.550781 128.804688 88.519531 127.539062 86.988281 126.714844 Z M 74.679688 114.464844 C 74.679688 112.84375 75.03125 111.636719 75.386719 110.753906 C 75.976562 109.371094 77.152344 108.722656 78.242188 108.722656 C 81.128906 108.722656 81.804688 113.226562 81.804688 114.464844 C 81.804688 114.523438 81.804688 114.582031 81.804688 114.640625 C 81.773438 115.90625 81.246094 117.996094 80.566406 118.910156 C 79.832031 119.910156 79.183594 120 78.328125 120 C 75.5 120 74.707031 116.320312 74.675781 114.640625 C 74.679688 114.550781 74.679688 114.523438 74.679688 114.464844 Z M 74.679688 114.464844 "/>
<path style=" stroke:none;fill-rule:nonzero;fill:rgb(0%,25.882353%,53.333333%);fill-opacity:1;" d="M 66.167969 114.640625 L 66.167969 128.394531 L 59.484375 128.394531 L 59.484375 115.261719 C 59.484375 115.054688 59.484375 114.847656 59.453125 114.644531 C 59.363281 113.464844 59.011719 112.140625 58.480469 111.40625 C 58.066406 110.816406 57.039062 110.40625 56.417969 110.40625 C 55.0625 110.40625 53.679688 111.140625 52.558594 112.085938 L 52.5625 128.394531 L 45.9375 128.394531 L 45.9375 107.015625 L 52.5625 105.957031 L 52.5625 108.871094 C 55.625 106.925781 57.1875 106.339844 59.867188 106.339844 C 63.460938 106.308594 66.167969 108.839844 66.167969 114.640625 Z M 66.167969 114.640625 "/>
<path style=" stroke:none;fill-rule:nonzero;fill:rgb(0%,25.882353%,53.333333%);fill-opacity:1;" d="M 42.375 99.621094 C 42.375 101.121094 41.109375 103.273438 38.605469 103.273438 C 36.574219 103.273438 34.835938 101.742188 34.835938 99.679688 C 34.835938 97.648438 36.25 95.96875 38.664062 95.96875 C 40.875 95.96875 42.375 97.855469 42.375 99.621094 Z M 42.375 99.621094 "/>
<path style=" stroke:none;fill-rule:nonzero;fill:rgb(0%,25.882353%,53.333333%);fill-opacity:1;" d="M 41.933594 105.925781 L 41.933594 128.363281 L 35.308594 128.363281 L 35.308594 106.984375 Z M 41.933594 105.925781 "/>
<path style=" stroke:none;fill-rule:nonzero;fill:rgb(0%,25.882353%,53.333333%);fill-opacity:1;" d="M 7.949219 98.386719 L 14.457031 98.386719 L 14.457031 128.363281 L 7.949219 128.363281 Z M 7.949219 98.386719 "/>
<path style=" stroke:none;fill-rule:nonzero;fill:rgb(0%,25.882353%,53.333333%);fill-opacity:1;" d="M 33.363281 128.394531 L 25.03125 128.394531 L 23.910156 126.714844 L 15.695312 114.640625 L 14.488281 112.816406 L 26.53125 98.386719 L 32.453125 98.386719 L 21.113281 111.695312 L 23.265625 114.640625 L 32.15625 126.714844 Z M 33.363281 128.394531 "/>
</g>
</svg>
